ISO-10303-21;
HEADER;
/* Generated by software containing ST-Developer
 * from STEP Tools, Inc. (www.steptools.com) 
 */

FILE_DESCRIPTION(
/* description */ (''),
/* implementation_level */ '2;1');

FILE_NAME(
/* name */ 'Roof - Blank.step',
/* time_stamp */ '2026-08-11T11:15:36-04:00',
/* author */ (''),
/* organization */ (''),
/* preprocessor_version */ 'ST-DEVELOPER v20.1',
/* originating_system */ 'Autodesk Translation Framework v15.8.0.0',
/* authorisation */ '');

FILE_SCHEMA (('AUTOMOTIVE_DESIGN { 1 0 10303 214 3 1 1 }'));
ENDSEC;

DATA;
#10=MECHANICAL_DESIGN_GEOMETRIC_PRESENTATION_REPRESENTATION('',(#13),#1764);
#11=SHAPE_REPRESENTATION_RELATIONSHIP('SRR','None',#1771,#12);
#12=ADVANCED_BREP_SHAPE_REPRESENTATION('',(#14),#1763);
#13=STYLED_ITEM('',(#1780),#14);
#14=MANIFOLD_SOLID_BREP('Roof',#1036);
#15=SPHERICAL_SURFACE('',#1113,2.5);
#16=SPHERICAL_SURFACE('',#1119,2.5);
#17=FACE_BOUND('',#152,.T.);
#18=FACE_BOUND('',#162,.T.);
#19=FACE_BOUND('',#163,.T.);
#20=FACE_BOUND('',#164,.T.);
#21=CONICAL_SURFACE('',#1088,2.25,0.0996686524911618);
#22=CONICAL_SURFACE('',#1092,2.25,0.0996686524911618);
#23=(
BOUNDED_SURFACE()
B_SPLINE_SURFACE(2,2,((#1483,#1484,#1485),(#1486,#1487,#1488),(#1489,#1490,
#1491)),.UNSPECIFIED.,.F.,.F.,.F.)
B_SPLINE_SURFACE_WITH_KNOTS((3,3),(3,3),(-3.22973970800046E-15,0.0996686524911617),
(1.5707963267949,3.14159265358979),.UNSPECIFIED.)
GEOMETRIC_REPRESENTATION_ITEM()
RATIONAL_B_SPLINE_SURFACE(((1.,0.707106781186548,1.),(0.998758526924834,
0.706228927156437,0.998758526924834),(1.,0.707106781186548,1.)))
REPRESENTATION_ITEM('')
SURFACE()
);
#24=(
BOUNDED_SURFACE()
B_SPLINE_SURFACE(2,2,((#1536,#1537,#1538),(#1539,#1540,#1541),(#1542,#1543,
#1544)),.UNSPECIFIED.,.F.,.F.,.F.)
B_SPLINE_SURFACE_WITH_KNOTS((3,3),(3,3),(-3.22973970800046E-15,0.0996686524911617),
(0.,1.5707963267949),.UNSPECIFIED.)
GEOMETRIC_REPRESENTATION_ITEM()
RATIONAL_B_SPLINE_SURFACE(((1.,0.707106781186548,1.),(0.998758526924834,
0.706228927156437,0.998758526924834),(1.,0.707106781186548,1.)))
REPRESENTATION_ITEM('')
SURFACE()
);
#25=PLANE('',#1053);
#26=PLANE('',#1055);
#27=PLANE('',#1064);
#28=PLANE('',#1066);
#29=PLANE('',#1069);
#30=PLANE('',#1078);
#31=PLANE('',#1080);
#32=PLANE('',#1083);
#33=PLANE('',#1084);
#34=PLANE('',#1086);
#35=PLANE('',#1087);
#36=PLANE('',#1090);
#37=PLANE('',#1091);
#38=PLANE('',#1094);
#39=PLANE('',#1095);
#40=PLANE('',#1097);
#41=PLANE('',#1098);
#42=PLANE('',#1099);
#43=PLANE('',#1103);
#44=PLANE('',#1107);
#45=PLANE('',#1116);
#46=PLANE('',#1122);
#47=PLANE('',#1126);
#48=PLANE('',#1133);
#49=PLANE('',#1134);
#50=PLANE('',#1135);
#51=PLANE('',#1136);
#52=PLANE('',#1137);
#53=PLANE('',#1138);
#54=PLANE('',#1139);
#55=PLANE('',#1140);
#56=PLANE('',#1142);
#57=PLANE('',#1143);
#58=PLANE('',#1144);
#59=PLANE('',#1146);
#60=FACE_OUTER_BOUND('',#119,.T.);
#61=FACE_OUTER_BOUND('',#120,.T.);
#62=FACE_OUTER_BOUND('',#121,.T.);
#63=FACE_OUTER_BOUND('',#122,.T.);
#64=FACE_OUTER_BOUND('',#123,.T.);
#65=FACE_OUTER_BOUND('',#124,.T.);
#66=FACE_OUTER_BOUND('',#125,.T.);
#67=FACE_OUTER_BOUND('',#126,.T.);
#68=FACE_OUTER_BOUND('',#127,.T.);
#69=FACE_OUTER_BOUND('',#128,.T.);
#70=FACE_OUTER_BOUND('',#129,.T.);
#71=FACE_OUTER_BOUND('',#130,.T.);
#72=FACE_OUTER_BOUND('',#131,.T.);
#73=FACE_OUTER_BOUND('',#132,.T.);
#74=FACE_OUTER_BOUND('',#133,.T.);
#75=FACE_OUTER_BOUND('',#134,.T.);
#76=FACE_OUTER_BOUND('',#135,.T.);
#77=FACE_OUTER_BOUND('',#136,.T.);
#78=FACE_OUTER_BOUND('',#137,.T.);
#79=FACE_OUTER_BOUND('',#138,.T.);
#80=FACE_OUTER_BOUND('',#139,.T.);
#81=FACE_OUTER_BOUND('',#140,.T.);
#82=FACE_OUTER_BOUND('',#141,.T.);
#83=FACE_OUTER_BOUND('',#142,.T.);
#84=FACE_OUTER_BOUND('',#143,.T.);
#85=FACE_OUTER_BOUND('',#144,.T.);
#86=FACE_OUTER_BOUND('',#145,.T.);
#87=FACE_OUTER_BOUND('',#146,.T.);
#88=FACE_OUTER_BOUND('',#147,.T.);
#89=FACE_OUTER_BOUND('',#148,.T.);
#90=FACE_OUTER_BOUND('',#149,.T.);
#91=FACE_OUTER_BOUND('',#150,.T.);
#92=FACE_OUTER_BOUND('',#151,.T.);
#93=FACE_OUTER_BOUND('',#153,.T.);
#94=FACE_OUTER_BOUND('',#154,.T.);
#95=FACE_OUTER_BOUND('',#155,.T.);
#96=FACE_OUTER_BOUND('',#156,.T.);
#97=FACE_OUTER_BOUND('',#157,.T.);
#98=FACE_OUTER_BOUND('',#158,.T.);
#99=FACE_OUTER_BOUND('',#159,.T.);
#100=FACE_OUTER_BOUND('',#160,.T.);
#101=FACE_OUTER_BOUND('',#161,.T.);
#102=FACE_OUTER_BOUND('',#165,.T.);
#103=FACE_OUTER_BOUND('',#166,.T.);
#104=FACE_OUTER_BOUND('',#167,.T.);
#105=FACE_OUTER_BOUND('',#168,.T.);
#106=FACE_OUTER_BOUND('',#169,.T.);
#107=FACE_OUTER_BOUND('',#170,.T.);
#108=FACE_OUTER_BOUND('',#171,.T.);
#109=FACE_OUTER_BOUND('',#172,.T.);
#110=FACE_OUTER_BOUND('',#173,.T.);
#111=FACE_OUTER_BOUND('',#174,.T.);
#112=FACE_OUTER_BOUND('',#175,.T.);
#113=FACE_OUTER_BOUND('',#176,.T.);
#114=FACE_OUTER_BOUND('',#177,.T.);
#115=FACE_OUTER_BOUND('',#178,.T.);
#116=FACE_OUTER_BOUND('',#179,.T.);
#117=FACE_OUTER_BOUND('',#180,.T.);
#118=FACE_OUTER_BOUND('',#181,.T.);
#119=EDGE_LOOP('',(#669,#670,#671,#672));
#120=EDGE_LOOP('',(#673,#674,#675,#676,#677,#678,#679));
#121=EDGE_LOOP('',(#680,#681,#682,#683));
#122=EDGE_LOOP('',(#684,#685,#686,#687));
#123=EDGE_LOOP('',(#688,#689,#690,#691));
#124=EDGE_LOOP('',(#692,#693,#694,#695));
#125=EDGE_LOOP('',(#696,#697,#698,#699,#700,#701,#702));
#126=EDGE_LOOP('',(#703,#704,#705,#706));
#127=EDGE_LOOP('',(#707,#708,#709,#710));
#128=EDGE_LOOP('',(#711,#712,#713,#714));
#129=EDGE_LOOP('',(#715,#716,#717,#718));
#130=EDGE_LOOP('',(#719,#720,#721,#722));
#131=EDGE_LOOP('',(#723,#724,#725,#726));
#132=EDGE_LOOP('',(#727,#728,#729,#730,#731,#732,#733));
#133=EDGE_LOOP('',(#734,#735,#736,#737));
#134=EDGE_LOOP('',(#738,#739,#740,#741));
#135=EDGE_LOOP('',(#742,#743,#744,#745));
#136=EDGE_LOOP('',(#746,#747,#748,#749,#750,#751,#752));
#137=EDGE_LOOP('',(#753,#754,#755,#756));
#138=EDGE_LOOP('',(#757,#758,#759,#760));
#139=EDGE_LOOP('',(#761,#762,#763,#764));
#140=EDGE_LOOP('',(#765,#766,#767,#768));
#141=EDGE_LOOP('',(#769,#770,#771,#772));
#142=EDGE_LOOP('',(#773,#774,#775,#776));
#143=EDGE_LOOP('',(#777,#778,#779,#780));
#144=EDGE_LOOP('',(#781,#782,#783,#784,#785,#786,#787,#788));
#145=EDGE_LOOP('',(#789,#790,#791,#792));
#146=EDGE_LOOP('',(#793,#794,#795,#796));
#147=EDGE_LOOP('',(#797,#798,#799,#800));
#148=EDGE_LOOP('',(#801,#802,#803,#804));
#149=EDGE_LOOP('',(#805,#806,#807,#808));
#150=EDGE_LOOP('',(#809,#810,#811,#812));
#151=EDGE_LOOP('',(#813,#814,#815,#816,#817,#818));
#152=EDGE_LOOP('',(#819,#820,#821,#822,#823,#824));
#153=EDGE_LOOP('',(#825,#826,#827,#828));
#154=EDGE_LOOP('',(#829,#830,#831));
#155=EDGE_LOOP('',(#832,#833,#834,#835));
#156=EDGE_LOOP('',(#836,#837,#838,#839));
#157=EDGE_LOOP('',(#840,#841,#842));
#158=EDGE_LOOP('',(#843,#844,#845,#846));
#159=EDGE_LOOP('',(#847,#848,#849,#850));
#160=EDGE_LOOP('',(#851,#852,#853,#854));
#161=EDGE_LOOP('',(#855,#856,#857,#858,#859,#860));
#162=EDGE_LOOP('',(#861,#862,#863,#864));
#163=EDGE_LOOP('',(#865,#866,#867,#868,#869,#870,#871));
#164=EDGE_LOOP('',(#872,#873,#874,#875,#876,#877,#878));
#165=EDGE_LOOP('',(#879,#880,#881,#882));
#166=EDGE_LOOP('',(#883,#884,#885,#886));
#167=EDGE_LOOP('',(#887,#888,#889,#890));
#168=EDGE_LOOP('',(#891,#892,#893,#894));
#169=EDGE_LOOP('',(#895,#896,#897,#898,#899,#900,#901));
#170=EDGE_LOOP('',(#902,#903,#904,#905));
#171=EDGE_LOOP('',(#906,#907,#908,#909,#910,#911,#912));
#172=EDGE_LOOP('',(#913,#914,#915,#916));
#173=EDGE_LOOP('',(#917,#918,#919,#920,#921,#922,#923,#924));
#174=EDGE_LOOP('',(#925,#926,#927,#928));
#175=EDGE_LOOP('',(#929,#930,#931,#932));
#176=EDGE_LOOP('',(#933,#934,#935,#936));
#177=EDGE_LOOP('',(#937,#938,#939,#940));
#178=EDGE_LOOP('',(#941,#942,#943,#944));
#179=EDGE_LOOP('',(#945,#946,#947,#948));
#180=EDGE_LOOP('',(#949,#950,#951,#952));
#181=EDGE_LOOP('',(#953,#954,#955,#956,#957,#958));
#182=LINE('',#1454,#287);
#183=LINE('',#1457,#288);
#184=LINE('',#1460,#289);
#185=LINE('',#1462,#290);
#186=LINE('',#1464,#291);
#187=LINE('',#1468,#292);
#188=LINE('',#1469,#293);
#189=LINE('',#1472,#294);
#190=LINE('',#1473,#295);
#191=LINE('',#1479,#296);
#192=LINE('',#1482,#297);
#193=LINE('',#1501,#298);
#194=LINE('',#1502,#299);
#195=LINE('',#1505,#300);
#196=LINE('',#1507,#301);
#197=LINE('',#1511,#302);
#198=LINE('',#1513,#303);
#199=LINE('',#1514,#304);
#200=LINE('',#1517,#305);
#201=LINE('',#1518,#306);
#202=LINE('',#1521,#307);
#203=LINE('',#1525,#308);
#204=LINE('',#1526,#309);
#205=LINE('',#1532,#310);
#206=LINE('',#1535,#311);
#207=LINE('',#1554,#312);
#208=LINE('',#1555,#313);
#209=LINE('',#1558,#314);
#210=LINE('',#1560,#315);
#211=LINE('',#1564,#316);
#212=LINE('',#1566,#317);
#213=LINE('',#1567,#318);
#214=LINE('',#1570,#319);
#215=LINE('',#1571,#320);
#216=LINE('',#1574,#321);
#217=LINE('',#1578,#322);
#218=LINE('',#1579,#323);
#219=LINE('',#1582,#324);
#220=LINE('',#1584,#325);
#221=LINE('',#1588,#326);
#222=LINE('',#1589,#327);
#223=LINE('',#1591,#328);
#224=LINE('',#1594,#329);
#225=LINE('',#1596,#330);
#226=LINE('',#1597,#331);
#227=LINE('',#1600,#332);
#228=LINE('',#1603,#333);
#229=LINE('',#1606,#334);
#230=LINE('',#1607,#335);
#231=LINE('',#1611,#336);
#232=LINE('',#1614,#337);
#233=LINE('',#1615,#338);
#234=LINE('',#1618,#339);
#235=LINE('',#1622,#340);
#236=LINE('',#1623,#341);
#237=LINE('',#1627,#342);
#238=LINE('',#1629,#343);
#239=LINE('',#1631,#344);
#240=LINE('',#1632,#345);
#241=LINE('',#1635,#346);
#242=LINE('',#1637,#347);
#243=LINE('',#1638,#348);
#244=LINE('',#1641,#349);
#245=LINE('',#1643,#350);
#246=LINE('',#1644,#351);
#247=LINE('',#1650,#352);
#248=LINE('',#1653,#353);
#249=LINE('',#1655,#354);
#250=LINE('',#1656,#355);
#251=LINE('',#1663,#356);
#252=LINE('',#1665,#357);
#253=LINE('',#1669,#358);
#254=LINE('',#1672,#359);
#255=LINE('',#1678,#360);
#256=LINE('',#1681,#361);
#257=LINE('',#1687,#362);
#258=LINE('',#1688,#363);
#259=LINE('',#1693,#364);
#260=LINE('',#1694,#365);
#261=LINE('',#1700,#366);
#262=LINE('',#1703,#367);
#263=LINE('',#1706,#368);
#264=LINE('',#1708,#369);
#265=LINE('',#1714,#370);
#266=LINE('',#1718,#371);
#267=LINE('',#1720,#372);
#268=LINE('',#1721,#373);
#269=LINE('',#1722,#374);
#270=LINE('',#1723,#375);
#271=LINE('',#1725,#376);
#272=LINE('',#1726,#377);
#273=LINE('',#1727,#378);
#274=LINE('',#1731,#379);
#275=LINE('',#1734,#380);
#276=LINE('',#1736,#381);
#277=LINE('',#1738,#382);
#278=LINE('',#1742,#383);
#279=LINE('',#1743,#384);
#280=LINE('',#1745,#385);
#281=LINE('',#1749,#386);
#282=LINE('',#1750,#387);
#283=LINE('',#1752,#388);
#284=LINE('',#1754,#389);
#285=LINE('',#1756,#390);
#286=LINE('',#1758,#391);
#287=VECTOR('',#1153,10.);
#288=VECTOR('',#1156,10.);
#289=VECTOR('',#1159,10.);
#290=VECTOR('',#1160,10.);
#291=VECTOR('',#1161,10.);
#292=VECTOR('',#1164,10.);
#293=VECTOR('',#1165,10.);
#294=VECTOR('',#1168,10.);
#295=VECTOR('',#1169,10.);
#296=VECTOR('',#1174,10.);
#297=VECTOR('',#1177,10.);
#298=VECTOR('',#1188,10.);
#299=VECTOR('',#1189,10.);
#300=VECTOR('',#1192,10.);
#301=VECTOR('',#1193,10.);
#302=VECTOR('',#1196,10.);
#303=VECTOR('',#1197,10.);
#304=VECTOR('',#1198,10.);
#305=VECTOR('',#1201,10.);
#306=VECTOR('',#1202,10.);
#307=VECTOR('',#1205,10.);
#308=VECTOR('',#1210,10.);
#309=VECTOR('',#1211,10.);
#310=VECTOR('',#1216,10.);
#311=VECTOR('',#1219,10.);
#312=VECTOR('',#1230,10.);
#313=VECTOR('',#1231,10.);
#314=VECTOR('',#1234,10.);
#315=VECTOR('',#1235,10.);
#316=VECTOR('',#1238,10.);
#317=VECTOR('',#1239,10.);
#318=VECTOR('',#1240,10.);
#319=VECTOR('',#1243,10.);
#320=VECTOR('',#1244,10.);
#321=VECTOR('',#1247,10.);
#322=VECTOR('',#1252,10.);
#323=VECTOR('',#1253,10.);
#324=VECTOR('',#1256,10.);
#325=VECTOR('',#1257,10.);
#326=VECTOR('',#1260,10.);
#327=VECTOR('',#1261,10.);
#328=VECTOR('',#1264,10.);
#329=VECTOR('',#1267,10.);
#330=VECTOR('',#1268,10.);
#331=VECTOR('',#1269,10.);
#332=VECTOR('',#1272,10.);
#333=VECTOR('',#1277,10.);
#334=VECTOR('',#1280,10.);
#335=VECTOR('',#1281,10.);
#336=VECTOR('',#1286,10.);
#337=VECTOR('',#1289,10.);
#338=VECTOR('',#1290,10.);
#339=VECTOR('',#1293,10.);
#340=VECTOR('',#1296,10.);
#341=VECTOR('',#1297,10.);
#342=VECTOR('',#1300,10.);
#343=VECTOR('',#1301,10.);
#344=VECTOR('',#1302,10.);
#345=VECTOR('',#1303,10.);
#346=VECTOR('',#1306,10.);
#347=VECTOR('',#1307,10.);
#348=VECTOR('',#1308,10.);
#349=VECTOR('',#1311,10.);
#350=VECTOR('',#1312,10.);
#351=VECTOR('',#1313,10.);
#352=VECTOR('',#1320,10.);
#353=VECTOR('',#1323,10.);
#354=VECTOR('',#1324,10.);
#355=VECTOR('',#1325,10.);
#356=VECTOR('',#1334,10.);
#357=VECTOR('',#1335,10.);
#358=VECTOR('',#1338,10.);
#359=VECTOR('',#1341,10.);
#360=VECTOR('',#1346,10.);
#361=VECTOR('',#1349,10.);
#362=VECTOR('',#1358,10.);
#363=VECTOR('',#1359,10.);
#364=VECTOR('',#1364,10.);
#365=VECTOR('',#1365,10.);
#366=VECTOR('',#1374,10.);
#367=VECTOR('',#1377,10.);
#368=VECTOR('',#1380,10.);
#369=VECTOR('',#1383,10.);
#370=VECTOR('',#1388,10.);
#371=VECTOR('',#1391,10.);
#372=VECTOR('',#1392,10.);
#373=VECTOR('',#1393,10.);
#374=VECTOR('',#1394,10.);
#375=VECTOR('',#1395,10.);
#376=VECTOR('',#1396,10.);
#377=VECTOR('',#1397,10.);
#378=VECTOR('',#1398,10.);
#379=VECTOR('',#1403,10.);
#380=VECTOR('',#1408,10.);
#381=VECTOR('',#1411,10.);
#382=VECTOR('',#1414,10.);
#383=VECTOR('',#1419,10.);
#384=VECTOR('',#1420,10.);
#385=VECTOR('',#1423,10.);
#386=VECTOR('',#1430,10.);
#387=VECTOR('',#1431,10.);
#388=VECTOR('',#1434,10.);
#389=VECTOR('',#1437,10.);
#390=VECTOR('',#1440,10.);
#391=VECTOR('',#1443,10.);
#392=CIRCLE('',#1051,33.);
#393=CIRCLE('',#1052,33.);
#394=CIRCLE('',#1054,2.5);
#395=CIRCLE('',#1057,33.);
#396=CIRCLE('',#1058,33.);
#397=CIRCLE('',#1059,2.5);
#398=CIRCLE('',#1060,33.);
#399=CIRCLE('',#1061,2.33622727692964);
#400=CIRCLE('',#1063,33.);
#401=CIRCLE('',#1065,2.5);
#402=CIRCLE('',#1068,2.5);
#403=CIRCLE('',#1071,33.);
#404=CIRCLE('',#1072,33.);
#405=CIRCLE('',#1073,2.5);
#406=CIRCLE('',#1074,33.);
#407=CIRCLE('',#1075,2.33622727692964);
#408=CIRCLE('',#1077,33.);
#409=CIRCLE('',#1079,2.5);
#410=CIRCLE('',#1082,2.5);
#411=CIRCLE('',#1085,2.5);
#412=CIRCLE('',#1089,2.);
#413=CIRCLE('',#1093,2.);
#414=CIRCLE('',#1096,2.5);
#415=CIRCLE('',#1101,4.);
#416=CIRCLE('',#1102,4.);
#417=CIRCLE('',#1105,4.);
#418=CIRCLE('',#1106,4.);
#419=CIRCLE('',#1108,5.);
#420=CIRCLE('',#1109,5.);
#421=CIRCLE('',#1111,2.5);
#422=CIRCLE('',#1112,2.5);
#423=CIRCLE('',#1114,2.5);
#424=CIRCLE('',#1115,2.5);
#425=CIRCLE('',#1118,2.5);
#426=CIRCLE('',#1120,2.5);
#427=CIRCLE('',#1121,2.5);
#428=CIRCLE('',#1124,2.5);
#429=CIRCLE('',#1127,5.);
#430=CIRCLE('',#1128,5.);
#431=CIRCLE('',#1130,2.5);
#432=VERTEX_POINT('',#1450);
#433=VERTEX_POINT('',#1451);
#434=VERTEX_POINT('',#1453);
#435=VERTEX_POINT('',#1455);
#436=VERTEX_POINT('',#1459);
#437=VERTEX_POINT('',#1461);
#438=VERTEX_POINT('',#1463);
#439=VERTEX_POINT('',#1465);
#440=VERTEX_POINT('',#1467);
#441=VERTEX_POINT('',#1471);
#442=VERTEX_POINT('',#1475);
#443=VERTEX_POINT('',#1476);
#444=VERTEX_POINT('',#1478);
#445=VERTEX_POINT('',#1480);
#446=VERTEX_POINT('',#1492);
#447=VERTEX_POINT('',#1494);
#448=VERTEX_POINT('',#1498);
#449=VERTEX_POINT('',#1499);
#450=VERTEX_POINT('',#1504);
#451=VERTEX_POINT('',#1506);
#452=VERTEX_POINT('',#1508);
#453=VERTEX_POINT('',#1510);
#454=VERTEX_POINT('',#1512);
#455=VERTEX_POINT('',#1516);
#456=VERTEX_POINT('',#1520);
#457=VERTEX_POINT('',#1524);
#458=VERTEX_POINT('',#1528);
#459=VERTEX_POINT('',#1529);
#460=VERTEX_POINT('',#1531);
#461=VERTEX_POINT('',#1533);
#462=VERTEX_POINT('',#1545);
#463=VERTEX_POINT('',#1547);
#464=VERTEX_POINT('',#1551);
#465=VERTEX_POINT('',#1552);
#466=VERTEX_POINT('',#1557);
#467=VERTEX_POINT('',#1559);
#468=VERTEX_POINT('',#1561);
#469=VERTEX_POINT('',#1563);
#470=VERTEX_POINT('',#1565);
#471=VERTEX_POINT('',#1569);
#472=VERTEX_POINT('',#1573);
#473=VERTEX_POINT('',#1577);
#474=VERTEX_POINT('',#1581);
#475=VERTEX_POINT('',#1583);
#476=VERTEX_POINT('',#1585);
#477=VERTEX_POINT('',#1587);
#478=VERTEX_POINT('',#1593);
#479=VERTEX_POINT('',#1595);
#480=VERTEX_POINT('',#1599);
#481=VERTEX_POINT('',#1605);
#482=VERTEX_POINT('',#1609);
#483=VERTEX_POINT('',#1613);
#484=VERTEX_POINT('',#1617);
#485=VERTEX_POINT('',#1619);
#486=VERTEX_POINT('',#1621);
#487=VERTEX_POINT('',#1625);
#488=VERTEX_POINT('',#1626);
#489=VERTEX_POINT('',#1628);
#490=VERTEX_POINT('',#1630);
#491=VERTEX_POINT('',#1634);
#492=VERTEX_POINT('',#1636);
#493=VERTEX_POINT('',#1640);
#494=VERTEX_POINT('',#1642);
#495=VERTEX_POINT('',#1646);
#496=VERTEX_POINT('',#1648);
#497=VERTEX_POINT('',#1652);
#498=VERTEX_POINT('',#1654);
#499=VERTEX_POINT('',#1661);
#500=VERTEX_POINT('',#1662);
#501=VERTEX_POINT('',#1664);
#502=VERTEX_POINT('',#1666);
#503=VERTEX_POINT('',#1668);
#504=VERTEX_POINT('',#1670);
#505=VERTEX_POINT('',#1674);
#506=VERTEX_POINT('',#1675);
#507=VERTEX_POINT('',#1677);
#508=VERTEX_POINT('',#1679);
#509=VERTEX_POINT('',#1683);
#510=VERTEX_POINT('',#1690);
#511=VERTEX_POINT('',#1691);
#512=VERTEX_POINT('',#1696);
#513=VERTEX_POINT('',#1702);
#514=VERTEX_POINT('',#1704);
#515=VERTEX_POINT('',#1710);
#516=VERTEX_POINT('',#1711);
#517=VERTEX_POINT('',#1713);
#518=VERTEX_POINT('',#1715);
#519=VERTEX_POINT('',#1717);
#520=VERTEX_POINT('',#1719);
#521=VERTEX_POINT('',#1724);
#522=VERTEX_POINT('',#1729);
#523=VERTEX_POINT('',#1741);
#524=EDGE_CURVE('',#432,#433,#392,.T.);
#525=EDGE_CURVE('',#433,#434,#182,.T.);
#526=EDGE_CURVE('',#434,#435,#393,.T.);
#527=EDGE_CURVE('',#435,#432,#183,.T.);
#528=EDGE_CURVE('',#436,#434,#184,.T.);
#529=EDGE_CURVE('',#437,#436,#185,.T.);
#530=EDGE_CURVE('',#438,#437,#186,.T.);
#531=EDGE_CURVE('',#439,#438,#394,.T.);
#532=EDGE_CURVE('',#440,#439,#187,.T.);
#533=EDGE_CURVE('',#440,#435,#188,.T.);
#534=EDGE_CURVE('',#433,#441,#189,.T.);
#535=EDGE_CURVE('',#441,#436,#190,.T.);
#536=EDGE_CURVE('',#442,#443,#395,.T.);
#537=EDGE_CURVE('',#443,#444,#191,.T.);
#538=EDGE_CURVE('',#444,#445,#396,.T.);
#539=EDGE_CURVE('',#445,#442,#192,.T.);
#540=EDGE_CURVE('',#444,#446,#397,.T.);
#541=EDGE_CURVE('',#446,#447,#398,.T.);
#542=EDGE_CURVE('',#447,#445,#399,.T.);
#543=EDGE_CURVE('',#448,#449,#400,.T.);
#544=EDGE_CURVE('',#449,#447,#193,.T.);
#545=EDGE_CURVE('',#446,#448,#194,.T.);
#546=EDGE_CURVE('',#450,#448,#195,.T.);
#547=EDGE_CURVE('',#451,#450,#196,.T.);
#548=EDGE_CURVE('',#452,#451,#401,.T.);
#549=EDGE_CURVE('',#452,#453,#197,.T.);
#550=EDGE_CURVE('',#454,#453,#198,.T.);
#551=EDGE_CURVE('',#449,#454,#199,.T.);
#552=EDGE_CURVE('',#455,#446,#200,.T.);
#553=EDGE_CURVE('',#450,#455,#201,.T.);
#554=EDGE_CURVE('',#444,#456,#202,.T.);
#555=EDGE_CURVE('',#456,#455,#402,.F.);
#556=EDGE_CURVE('',#457,#443,#203,.T.);
#557=EDGE_CURVE('',#456,#457,#204,.T.);
#558=EDGE_CURVE('',#458,#459,#403,.T.);
#559=EDGE_CURVE('',#459,#460,#205,.T.);
#560=EDGE_CURVE('',#460,#461,#404,.T.);
#561=EDGE_CURVE('',#461,#458,#206,.T.);
#562=EDGE_CURVE('',#460,#462,#405,.T.);
#563=EDGE_CURVE('',#462,#463,#406,.T.);
#564=EDGE_CURVE('',#463,#461,#407,.T.);
#565=EDGE_CURVE('',#464,#465,#408,.T.);
#566=EDGE_CURVE('',#465,#463,#207,.T.);
#567=EDGE_CURVE('',#462,#464,#208,.T.);
#568=EDGE_CURVE('',#466,#464,#209,.T.);
#569=EDGE_CURVE('',#467,#466,#210,.T.);
#570=EDGE_CURVE('',#468,#467,#409,.T.);
#571=EDGE_CURVE('',#468,#469,#211,.T.);
#572=EDGE_CURVE('',#470,#469,#212,.T.);
#573=EDGE_CURVE('',#465,#470,#213,.T.);
#574=EDGE_CURVE('',#471,#462,#214,.T.);
#575=EDGE_CURVE('',#466,#471,#215,.T.);
#576=EDGE_CURVE('',#460,#472,#216,.T.);
#577=EDGE_CURVE('',#472,#471,#410,.F.);
#578=EDGE_CURVE('',#473,#459,#217,.T.);
#579=EDGE_CURVE('',#472,#473,#218,.T.);
#580=EDGE_CURVE('',#474,#432,#219,.T.);
#581=EDGE_CURVE('',#475,#474,#220,.T.);
#582=EDGE_CURVE('',#476,#475,#411,.T.);
#583=EDGE_CURVE('',#476,#477,#221,.T.);
#584=EDGE_CURVE('',#441,#477,#222,.T.);
#585=EDGE_CURVE('',#474,#440,#223,.T.);
#586=EDGE_CURVE('',#445,#478,#224,.T.);
#587=EDGE_CURVE('',#478,#479,#225,.T.);
#588=EDGE_CURVE('',#479,#442,#226,.T.);
#589=EDGE_CURVE('',#447,#480,#227,.T.);
#590=EDGE_CURVE('',#480,#478,#412,.T.);
#591=EDGE_CURVE('',#454,#480,#228,.T.);
#592=EDGE_CURVE('',#470,#481,#229,.T.);
#593=EDGE_CURVE('',#481,#463,#230,.T.);
#594=EDGE_CURVE('',#481,#482,#413,.T.);
#595=EDGE_CURVE('',#482,#461,#231,.T.);
#596=EDGE_CURVE('',#482,#483,#232,.T.);
#597=EDGE_CURVE('',#483,#458,#233,.T.);
#598=EDGE_CURVE('',#469,#484,#234,.T.);
#599=EDGE_CURVE('',#485,#484,#414,.T.);
#600=EDGE_CURVE('',#485,#486,#235,.T.);
#601=EDGE_CURVE('',#486,#483,#236,.T.);
#602=EDGE_CURVE('',#487,#488,#237,.T.);
#603=EDGE_CURVE('',#487,#489,#238,.T.);
#604=EDGE_CURVE('',#490,#489,#239,.T.);
#605=EDGE_CURVE('',#488,#490,#240,.T.);
#606=EDGE_CURVE('',#488,#491,#241,.T.);
#607=EDGE_CURVE('',#492,#490,#242,.T.);
#608=EDGE_CURVE('',#491,#492,#243,.T.);
#609=EDGE_CURVE('',#491,#493,#244,.T.);
#610=EDGE_CURVE('',#494,#492,#245,.T.);
#611=EDGE_CURVE('',#493,#494,#246,.T.);
#612=EDGE_CURVE('',#493,#495,#415,.T.);
#613=EDGE_CURVE('',#496,#494,#416,.T.);
#614=EDGE_CURVE('',#495,#496,#247,.T.);
#615=EDGE_CURVE('',#495,#497,#248,.T.);
#616=EDGE_CURVE('',#498,#496,#249,.T.);
#617=EDGE_CURVE('',#497,#498,#250,.T.);
#618=EDGE_CURVE('',#497,#487,#417,.T.);
#619=EDGE_CURVE('',#489,#498,#418,.T.);
#620=EDGE_CURVE('',#499,#500,#251,.T.);
#621=EDGE_CURVE('',#500,#501,#252,.T.);
#622=EDGE_CURVE('',#501,#502,#419,.T.);
#623=EDGE_CURVE('',#502,#503,#253,.T.);
#624=EDGE_CURVE('',#503,#504,#420,.T.);
#625=EDGE_CURVE('',#504,#499,#254,.T.);
#626=EDGE_CURVE('',#505,#506,#421,.T.);
#627=EDGE_CURVE('',#506,#507,#255,.T.);
#628=EDGE_CURVE('',#507,#508,#422,.T.);
#629=EDGE_CURVE('',#508,#505,#256,.T.);
#630=EDGE_CURVE('',#505,#509,#423,.T.);
#631=EDGE_CURVE('',#509,#506,#424,.T.);
#632=EDGE_CURVE('',#453,#508,#257,.T.);
#633=EDGE_CURVE('',#505,#452,#258,.T.);
#634=EDGE_CURVE('',#510,#511,#425,.T.);
#635=EDGE_CURVE('',#511,#485,#259,.T.);
#636=EDGE_CURVE('',#484,#510,#260,.T.);
#637=EDGE_CURVE('',#510,#512,#426,.T.);
#638=EDGE_CURVE('',#512,#511,#427,.T.);
#639=EDGE_CURVE('',#510,#468,#261,.T.);
#640=EDGE_CURVE('',#512,#513,#262,.T.);
#641=EDGE_CURVE('',#513,#514,#428,.T.);
#642=EDGE_CURVE('',#514,#511,#263,.T.);
#643=EDGE_CURVE('',#467,#512,#264,.T.);
#644=EDGE_CURVE('',#515,#516,#429,.T.);
#645=EDGE_CURVE('',#515,#517,#265,.T.);
#646=EDGE_CURVE('',#518,#517,#430,.T.);
#647=EDGE_CURVE('',#518,#519,#266,.T.);
#648=EDGE_CURVE('',#519,#520,#267,.T.);
#649=EDGE_CURVE('',#520,#516,#268,.T.);
#650=EDGE_CURVE('',#475,#439,#269,.T.);
#651=EDGE_CURVE('',#473,#513,#270,.T.);
#652=EDGE_CURVE('',#457,#521,#271,.T.);
#653=EDGE_CURVE('',#509,#521,#272,.T.);
#654=EDGE_CURVE('',#451,#509,#273,.T.);
#655=EDGE_CURVE('',#521,#522,#431,.T.);
#656=EDGE_CURVE('',#522,#506,#274,.T.);
#657=EDGE_CURVE('',#438,#476,#275,.T.);
#658=EDGE_CURVE('',#477,#437,#276,.T.);
#659=EDGE_CURVE('',#514,#486,#277,.T.);
#660=EDGE_CURVE('',#523,#479,#278,.T.);
#661=EDGE_CURVE('',#522,#523,#279,.T.);
#662=EDGE_CURVE('',#507,#523,#280,.T.);
#663=EDGE_CURVE('',#515,#503,#281,.T.);
#664=EDGE_CURVE('',#517,#502,#282,.T.);
#665=EDGE_CURVE('',#518,#501,#283,.T.);
#666=EDGE_CURVE('',#519,#500,#284,.T.);
#667=EDGE_CURVE('',#520,#499,#285,.T.);
#668=EDGE_CURVE('',#516,#504,#286,.T.);
#669=ORIENTED_EDGE('',*,*,#524,.T.);
#670=ORIENTED_EDGE('',*,*,#525,.T.);
#671=ORIENTED_EDGE('',*,*,#526,.T.);
#672=ORIENTED_EDGE('',*,*,#527,.T.);
#673=ORIENTED_EDGE('',*,*,#526,.F.);
#674=ORIENTED_EDGE('',*,*,#528,.F.);
#675=ORIENTED_EDGE('',*,*,#529,.F.);
#676=ORIENTED_EDGE('',*,*,#530,.F.);
#677=ORIENTED_EDGE('',*,*,#531,.F.);
#678=ORIENTED_EDGE('',*,*,#532,.F.);
#679=ORIENTED_EDGE('',*,*,#533,.T.);
#680=ORIENTED_EDGE('',*,*,#525,.F.);
#681=ORIENTED_EDGE('',*,*,#534,.T.);
#682=ORIENTED_EDGE('',*,*,#535,.T.);
#683=ORIENTED_EDGE('',*,*,#528,.T.);
#684=ORIENTED_EDGE('',*,*,#536,.T.);
#685=ORIENTED_EDGE('',*,*,#537,.T.);
#686=ORIENTED_EDGE('',*,*,#538,.T.);
#687=ORIENTED_EDGE('',*,*,#539,.T.);
#688=ORIENTED_EDGE('',*,*,#538,.F.);
#689=ORIENTED_EDGE('',*,*,#540,.T.);
#690=ORIENTED_EDGE('',*,*,#541,.T.);
#691=ORIENTED_EDGE('',*,*,#542,.T.);
#692=ORIENTED_EDGE('',*,*,#543,.T.);
#693=ORIENTED_EDGE('',*,*,#544,.T.);
#694=ORIENTED_EDGE('',*,*,#541,.F.);
#695=ORIENTED_EDGE('',*,*,#545,.T.);
#696=ORIENTED_EDGE('',*,*,#543,.F.);
#697=ORIENTED_EDGE('',*,*,#546,.F.);
#698=ORIENTED_EDGE('',*,*,#547,.F.);
#699=ORIENTED_EDGE('',*,*,#548,.F.);
#700=ORIENTED_EDGE('',*,*,#549,.T.);
#701=ORIENTED_EDGE('',*,*,#550,.F.);
#702=ORIENTED_EDGE('',*,*,#551,.F.);
#703=ORIENTED_EDGE('',*,*,#545,.F.);
#704=ORIENTED_EDGE('',*,*,#552,.F.);
#705=ORIENTED_EDGE('',*,*,#553,.F.);
#706=ORIENTED_EDGE('',*,*,#546,.T.);
#707=ORIENTED_EDGE('',*,*,#540,.F.);
#708=ORIENTED_EDGE('',*,*,#554,.T.);
#709=ORIENTED_EDGE('',*,*,#555,.T.);
#710=ORIENTED_EDGE('',*,*,#552,.T.);
#711=ORIENTED_EDGE('',*,*,#537,.F.);
#712=ORIENTED_EDGE('',*,*,#556,.F.);
#713=ORIENTED_EDGE('',*,*,#557,.F.);
#714=ORIENTED_EDGE('',*,*,#554,.F.);
#715=ORIENTED_EDGE('',*,*,#558,.T.);
#716=ORIENTED_EDGE('',*,*,#559,.T.);
#717=ORIENTED_EDGE('',*,*,#560,.T.);
#718=ORIENTED_EDGE('',*,*,#561,.T.);
#719=ORIENTED_EDGE('',*,*,#560,.F.);
#720=ORIENTED_EDGE('',*,*,#562,.T.);
#721=ORIENTED_EDGE('',*,*,#563,.T.);
#722=ORIENTED_EDGE('',*,*,#564,.T.);
#723=ORIENTED_EDGE('',*,*,#565,.T.);
#724=ORIENTED_EDGE('',*,*,#566,.T.);
#725=ORIENTED_EDGE('',*,*,#563,.F.);
#726=ORIENTED_EDGE('',*,*,#567,.T.);
#727=ORIENTED_EDGE('',*,*,#565,.F.);
#728=ORIENTED_EDGE('',*,*,#568,.F.);
#729=ORIENTED_EDGE('',*,*,#569,.F.);
#730=ORIENTED_EDGE('',*,*,#570,.F.);
#731=ORIENTED_EDGE('',*,*,#571,.T.);
#732=ORIENTED_EDGE('',*,*,#572,.F.);
#733=ORIENTED_EDGE('',*,*,#573,.F.);
#734=ORIENTED_EDGE('',*,*,#567,.F.);
#735=ORIENTED_EDGE('',*,*,#574,.F.);
#736=ORIENTED_EDGE('',*,*,#575,.F.);
#737=ORIENTED_EDGE('',*,*,#568,.T.);
#738=ORIENTED_EDGE('',*,*,#562,.F.);
#739=ORIENTED_EDGE('',*,*,#576,.T.);
#740=ORIENTED_EDGE('',*,*,#577,.T.);
#741=ORIENTED_EDGE('',*,*,#574,.T.);
#742=ORIENTED_EDGE('',*,*,#559,.F.);
#743=ORIENTED_EDGE('',*,*,#578,.F.);
#744=ORIENTED_EDGE('',*,*,#579,.F.);
#745=ORIENTED_EDGE('',*,*,#576,.F.);
#746=ORIENTED_EDGE('',*,*,#524,.F.);
#747=ORIENTED_EDGE('',*,*,#580,.F.);
#748=ORIENTED_EDGE('',*,*,#581,.F.);
#749=ORIENTED_EDGE('',*,*,#582,.F.);
#750=ORIENTED_EDGE('',*,*,#583,.T.);
#751=ORIENTED_EDGE('',*,*,#584,.F.);
#752=ORIENTED_EDGE('',*,*,#534,.F.);
#753=ORIENTED_EDGE('',*,*,#527,.F.);
#754=ORIENTED_EDGE('',*,*,#533,.F.);
#755=ORIENTED_EDGE('',*,*,#585,.F.);
#756=ORIENTED_EDGE('',*,*,#580,.T.);
#757=ORIENTED_EDGE('',*,*,#539,.F.);
#758=ORIENTED_EDGE('',*,*,#586,.T.);
#759=ORIENTED_EDGE('',*,*,#587,.T.);
#760=ORIENTED_EDGE('',*,*,#588,.T.);
#761=ORIENTED_EDGE('',*,*,#542,.F.);
#762=ORIENTED_EDGE('',*,*,#589,.T.);
#763=ORIENTED_EDGE('',*,*,#590,.T.);
#764=ORIENTED_EDGE('',*,*,#586,.F.);
#765=ORIENTED_EDGE('',*,*,#544,.F.);
#766=ORIENTED_EDGE('',*,*,#551,.T.);
#767=ORIENTED_EDGE('',*,*,#591,.T.);
#768=ORIENTED_EDGE('',*,*,#589,.F.);
#769=ORIENTED_EDGE('',*,*,#566,.F.);
#770=ORIENTED_EDGE('',*,*,#573,.T.);
#771=ORIENTED_EDGE('',*,*,#592,.T.);
#772=ORIENTED_EDGE('',*,*,#593,.T.);
#773=ORIENTED_EDGE('',*,*,#564,.F.);
#774=ORIENTED_EDGE('',*,*,#593,.F.);
#775=ORIENTED_EDGE('',*,*,#594,.T.);
#776=ORIENTED_EDGE('',*,*,#595,.T.);
#777=ORIENTED_EDGE('',*,*,#561,.F.);
#778=ORIENTED_EDGE('',*,*,#595,.F.);
#779=ORIENTED_EDGE('',*,*,#596,.T.);
#780=ORIENTED_EDGE('',*,*,#597,.T.);
#781=ORIENTED_EDGE('',*,*,#596,.F.);
#782=ORIENTED_EDGE('',*,*,#594,.F.);
#783=ORIENTED_EDGE('',*,*,#592,.F.);
#784=ORIENTED_EDGE('',*,*,#572,.T.);
#785=ORIENTED_EDGE('',*,*,#598,.T.);
#786=ORIENTED_EDGE('',*,*,#599,.F.);
#787=ORIENTED_EDGE('',*,*,#600,.T.);
#788=ORIENTED_EDGE('',*,*,#601,.T.);
#789=ORIENTED_EDGE('',*,*,#602,.F.);
#790=ORIENTED_EDGE('',*,*,#603,.T.);
#791=ORIENTED_EDGE('',*,*,#604,.F.);
#792=ORIENTED_EDGE('',*,*,#605,.F.);
#793=ORIENTED_EDGE('',*,*,#606,.F.);
#794=ORIENTED_EDGE('',*,*,#605,.T.);
#795=ORIENTED_EDGE('',*,*,#607,.F.);
#796=ORIENTED_EDGE('',*,*,#608,.F.);
#797=ORIENTED_EDGE('',*,*,#609,.F.);
#798=ORIENTED_EDGE('',*,*,#608,.T.);
#799=ORIENTED_EDGE('',*,*,#610,.F.);
#800=ORIENTED_EDGE('',*,*,#611,.F.);
#801=ORIENTED_EDGE('',*,*,#612,.F.);
#802=ORIENTED_EDGE('',*,*,#611,.T.);
#803=ORIENTED_EDGE('',*,*,#613,.F.);
#804=ORIENTED_EDGE('',*,*,#614,.F.);
#805=ORIENTED_EDGE('',*,*,#615,.F.);
#806=ORIENTED_EDGE('',*,*,#614,.T.);
#807=ORIENTED_EDGE('',*,*,#616,.F.);
#808=ORIENTED_EDGE('',*,*,#617,.F.);
#809=ORIENTED_EDGE('',*,*,#618,.F.);
#810=ORIENTED_EDGE('',*,*,#617,.T.);
#811=ORIENTED_EDGE('',*,*,#619,.F.);
#812=ORIENTED_EDGE('',*,*,#603,.F.);
#813=ORIENTED_EDGE('',*,*,#620,.T.);
#814=ORIENTED_EDGE('',*,*,#621,.T.);
#815=ORIENTED_EDGE('',*,*,#622,.T.);
#816=ORIENTED_EDGE('',*,*,#623,.T.);
#817=ORIENTED_EDGE('',*,*,#624,.T.);
#818=ORIENTED_EDGE('',*,*,#625,.T.);
#819=ORIENTED_EDGE('',*,*,#619,.T.);
#820=ORIENTED_EDGE('',*,*,#616,.T.);
#821=ORIENTED_EDGE('',*,*,#613,.T.);
#822=ORIENTED_EDGE('',*,*,#610,.T.);
#823=ORIENTED_EDGE('',*,*,#607,.T.);
#824=ORIENTED_EDGE('',*,*,#604,.T.);
#825=ORIENTED_EDGE('',*,*,#626,.T.);
#826=ORIENTED_EDGE('',*,*,#627,.T.);
#827=ORIENTED_EDGE('',*,*,#628,.T.);
#828=ORIENTED_EDGE('',*,*,#629,.T.);
#829=ORIENTED_EDGE('',*,*,#626,.F.);
#830=ORIENTED_EDGE('',*,*,#630,.T.);
#831=ORIENTED_EDGE('',*,*,#631,.T.);
#832=ORIENTED_EDGE('',*,*,#629,.F.);
#833=ORIENTED_EDGE('',*,*,#632,.F.);
#834=ORIENTED_EDGE('',*,*,#549,.F.);
#835=ORIENTED_EDGE('',*,*,#633,.F.);
#836=ORIENTED_EDGE('',*,*,#634,.T.);
#837=ORIENTED_EDGE('',*,*,#635,.T.);
#838=ORIENTED_EDGE('',*,*,#599,.T.);
#839=ORIENTED_EDGE('',*,*,#636,.T.);
#840=ORIENTED_EDGE('',*,*,#634,.F.);
#841=ORIENTED_EDGE('',*,*,#637,.T.);
#842=ORIENTED_EDGE('',*,*,#638,.T.);
#843=ORIENTED_EDGE('',*,*,#636,.F.);
#844=ORIENTED_EDGE('',*,*,#598,.F.);
#845=ORIENTED_EDGE('',*,*,#571,.F.);
#846=ORIENTED_EDGE('',*,*,#639,.F.);
#847=ORIENTED_EDGE('',*,*,#638,.F.);
#848=ORIENTED_EDGE('',*,*,#640,.T.);
#849=ORIENTED_EDGE('',*,*,#641,.T.);
#850=ORIENTED_EDGE('',*,*,#642,.T.);
#851=ORIENTED_EDGE('',*,*,#637,.F.);
#852=ORIENTED_EDGE('',*,*,#639,.T.);
#853=ORIENTED_EDGE('',*,*,#570,.T.);
#854=ORIENTED_EDGE('',*,*,#643,.T.);
#855=ORIENTED_EDGE('',*,*,#644,.F.);
#856=ORIENTED_EDGE('',*,*,#645,.T.);
#857=ORIENTED_EDGE('',*,*,#646,.F.);
#858=ORIENTED_EDGE('',*,*,#647,.T.);
#859=ORIENTED_EDGE('',*,*,#648,.T.);
#860=ORIENTED_EDGE('',*,*,#649,.T.);
#861=ORIENTED_EDGE('',*,*,#581,.T.);
#862=ORIENTED_EDGE('',*,*,#585,.T.);
#863=ORIENTED_EDGE('',*,*,#532,.T.);
#864=ORIENTED_EDGE('',*,*,#650,.F.);
#865=ORIENTED_EDGE('',*,*,#651,.T.);
#866=ORIENTED_EDGE('',*,*,#640,.F.);
#867=ORIENTED_EDGE('',*,*,#643,.F.);
#868=ORIENTED_EDGE('',*,*,#569,.T.);
#869=ORIENTED_EDGE('',*,*,#575,.T.);
#870=ORIENTED_EDGE('',*,*,#577,.F.);
#871=ORIENTED_EDGE('',*,*,#579,.T.);
#872=ORIENTED_EDGE('',*,*,#652,.T.);
#873=ORIENTED_EDGE('',*,*,#653,.F.);
#874=ORIENTED_EDGE('',*,*,#654,.F.);
#875=ORIENTED_EDGE('',*,*,#547,.T.);
#876=ORIENTED_EDGE('',*,*,#553,.T.);
#877=ORIENTED_EDGE('',*,*,#555,.F.);
#878=ORIENTED_EDGE('',*,*,#557,.T.);
#879=ORIENTED_EDGE('',*,*,#631,.F.);
#880=ORIENTED_EDGE('',*,*,#653,.T.);
#881=ORIENTED_EDGE('',*,*,#655,.T.);
#882=ORIENTED_EDGE('',*,*,#656,.T.);
#883=ORIENTED_EDGE('',*,*,#630,.F.);
#884=ORIENTED_EDGE('',*,*,#633,.T.);
#885=ORIENTED_EDGE('',*,*,#548,.T.);
#886=ORIENTED_EDGE('',*,*,#654,.T.);
#887=ORIENTED_EDGE('',*,*,#531,.T.);
#888=ORIENTED_EDGE('',*,*,#657,.T.);
#889=ORIENTED_EDGE('',*,*,#582,.T.);
#890=ORIENTED_EDGE('',*,*,#650,.T.);
#891=ORIENTED_EDGE('',*,*,#657,.F.);
#892=ORIENTED_EDGE('',*,*,#530,.T.);
#893=ORIENTED_EDGE('',*,*,#658,.F.);
#894=ORIENTED_EDGE('',*,*,#583,.F.);
#895=ORIENTED_EDGE('',*,*,#558,.F.);
#896=ORIENTED_EDGE('',*,*,#597,.F.);
#897=ORIENTED_EDGE('',*,*,#601,.F.);
#898=ORIENTED_EDGE('',*,*,#659,.F.);
#899=ORIENTED_EDGE('',*,*,#641,.F.);
#900=ORIENTED_EDGE('',*,*,#651,.F.);
#901=ORIENTED_EDGE('',*,*,#578,.T.);
#902=ORIENTED_EDGE('',*,*,#635,.F.);
#903=ORIENTED_EDGE('',*,*,#642,.F.);
#904=ORIENTED_EDGE('',*,*,#659,.T.);
#905=ORIENTED_EDGE('',*,*,#600,.F.);
#906=ORIENTED_EDGE('',*,*,#536,.F.);
#907=ORIENTED_EDGE('',*,*,#588,.F.);
#908=ORIENTED_EDGE('',*,*,#660,.F.);
#909=ORIENTED_EDGE('',*,*,#661,.F.);
#910=ORIENTED_EDGE('',*,*,#655,.F.);
#911=ORIENTED_EDGE('',*,*,#652,.F.);
#912=ORIENTED_EDGE('',*,*,#556,.T.);
#913=ORIENTED_EDGE('',*,*,#627,.F.);
#914=ORIENTED_EDGE('',*,*,#656,.F.);
#915=ORIENTED_EDGE('',*,*,#661,.T.);
#916=ORIENTED_EDGE('',*,*,#662,.F.);
#917=ORIENTED_EDGE('',*,*,#591,.F.);
#918=ORIENTED_EDGE('',*,*,#550,.T.);
#919=ORIENTED_EDGE('',*,*,#632,.T.);
#920=ORIENTED_EDGE('',*,*,#628,.F.);
#921=ORIENTED_EDGE('',*,*,#662,.T.);
#922=ORIENTED_EDGE('',*,*,#660,.T.);
#923=ORIENTED_EDGE('',*,*,#587,.F.);
#924=ORIENTED_EDGE('',*,*,#590,.F.);
#925=ORIENTED_EDGE('',*,*,#535,.F.);
#926=ORIENTED_EDGE('',*,*,#584,.T.);
#927=ORIENTED_EDGE('',*,*,#658,.T.);
#928=ORIENTED_EDGE('',*,*,#529,.T.);
#929=ORIENTED_EDGE('',*,*,#645,.F.);
#930=ORIENTED_EDGE('',*,*,#663,.T.);
#931=ORIENTED_EDGE('',*,*,#623,.F.);
#932=ORIENTED_EDGE('',*,*,#664,.F.);
#933=ORIENTED_EDGE('',*,*,#646,.T.);
#934=ORIENTED_EDGE('',*,*,#664,.T.);
#935=ORIENTED_EDGE('',*,*,#622,.F.);
#936=ORIENTED_EDGE('',*,*,#665,.F.);
#937=ORIENTED_EDGE('',*,*,#647,.F.);
#938=ORIENTED_EDGE('',*,*,#665,.T.);
#939=ORIENTED_EDGE('',*,*,#621,.F.);
#940=ORIENTED_EDGE('',*,*,#666,.F.);
#941=ORIENTED_EDGE('',*,*,#648,.F.);
#942=ORIENTED_EDGE('',*,*,#666,.T.);
#943=ORIENTED_EDGE('',*,*,#620,.F.);
#944=ORIENTED_EDGE('',*,*,#667,.F.);
#945=ORIENTED_EDGE('',*,*,#649,.F.);
#946=ORIENTED_EDGE('',*,*,#667,.T.);
#947=ORIENTED_EDGE('',*,*,#625,.F.);
#948=ORIENTED_EDGE('',*,*,#668,.F.);
#949=ORIENTED_EDGE('',*,*,#644,.T.);
#950=ORIENTED_EDGE('',*,*,#668,.T.);
#951=ORIENTED_EDGE('',*,*,#624,.F.);
#952=ORIENTED_EDGE('',*,*,#663,.F.);
#953=ORIENTED_EDGE('',*,*,#602,.T.);
#954=ORIENTED_EDGE('',*,*,#606,.T.);
#955=ORIENTED_EDGE('',*,*,#609,.T.);
#956=ORIENTED_EDGE('',*,*,#612,.T.);
#957=ORIENTED_EDGE('',*,*,#615,.T.);
#958=ORIENTED_EDGE('',*,*,#618,.T.);
#959=CYLINDRICAL_SURFACE('',#1050,33.);
#960=CYLINDRICAL_SURFACE('',#1056,33.);
#961=CYLINDRICAL_SURFACE('',#1062,33.);
#962=CYLINDRICAL_SURFACE('',#1067,2.5);
#963=CYLINDRICAL_SURFACE('',#1070,33.);
#964=CYLINDRICAL_SURFACE('',#1076,33.);
#965=CYLINDRICAL_SURFACE('',#1081,2.5);
#966=CYLINDRICAL_SURFACE('',#1100,4.);
#967=CYLINDRICAL_SURFACE('',#1104,4.);
#968=CYLINDRICAL_SURFACE('',#1110,2.5);
#969=CYLINDRICAL_SURFACE('',#1117,2.5);
#970=CYLINDRICAL_SURFACE('',#1123,2.5);
#971=CYLINDRICAL_SURFACE('',#1125,2.5);
#972=CYLINDRICAL_SURFACE('',#1129,2.5);
#973=CYLINDRICAL_SURFACE('',#1131,2.5);
#974=CYLINDRICAL_SURFACE('',#1132,2.5);
#975=CYLINDRICAL_SURFACE('',#1141,5.);
#976=CYLINDRICAL_SURFACE('',#1145,5.);
#977=ADVANCED_FACE('',(#60),#959,.T.);
#978=ADVANCED_FACE('',(#61),#25,.T.);
#979=ADVANCED_FACE('',(#62),#26,.T.);
#980=ADVANCED_FACE('',(#63),#960,.T.);
#981=ADVANCED_FACE('',(#64),#23,.F.);
#982=ADVANCED_FACE('',(#65),#961,.T.);
#983=ADVANCED_FACE('',(#66),#27,.T.);
#984=ADVANCED_FACE('',(#67),#28,.T.);
#985=ADVANCED_FACE('',(#68),#962,.T.);
#986=ADVANCED_FACE('',(#69),#29,.T.);
#987=ADVANCED_FACE('',(#70),#963,.T.);
#988=ADVANCED_FACE('',(#71),#24,.F.);
#989=ADVANCED_FACE('',(#72),#964,.T.);
#990=ADVANCED_FACE('',(#73),#30,.T.);
#991=ADVANCED_FACE('',(#74),#31,.T.);
#992=ADVANCED_FACE('',(#75),#965,.T.);
#993=ADVANCED_FACE('',(#76),#32,.T.);
#994=ADVANCED_FACE('',(#77),#33,.T.);
#995=ADVANCED_FACE('',(#78),#34,.T.);
#996=ADVANCED_FACE('',(#79),#35,.T.);
#997=ADVANCED_FACE('',(#80),#21,.T.);
#998=ADVANCED_FACE('',(#81),#36,.T.);
#999=ADVANCED_FACE('',(#82),#37,.T.);
#1000=ADVANCED_FACE('',(#83),#22,.T.);
#1001=ADVANCED_FACE('',(#84),#38,.T.);
#1002=ADVANCED_FACE('',(#85),#39,.T.);
#1003=ADVANCED_FACE('',(#86),#40,.T.);
#1004=ADVANCED_FACE('',(#87),#41,.T.);
#1005=ADVANCED_FACE('',(#88),#42,.T.);
#1006=ADVANCED_FACE('',(#89),#966,.F.);
#1007=ADVANCED_FACE('',(#90),#43,.T.);
#1008=ADVANCED_FACE('',(#91),#967,.F.);
#1009=ADVANCED_FACE('',(#92,#17),#44,.T.);
#1010=ADVANCED_FACE('',(#93),#968,.F.);
#1011=ADVANCED_FACE('',(#94),#15,.F.);
#1012=ADVANCED_FACE('',(#95),#45,.T.);
#1013=ADVANCED_FACE('',(#96),#969,.F.);
#1014=ADVANCED_FACE('',(#97),#16,.F.);
#1015=ADVANCED_FACE('',(#98),#46,.T.);
#1016=ADVANCED_FACE('',(#99),#970,.F.);
#1017=ADVANCED_FACE('',(#100),#971,.F.);
#1018=ADVANCED_FACE('',(#101,#18,#19,#20),#47,.F.);
#1019=ADVANCED_FACE('',(#102),#972,.F.);
#1020=ADVANCED_FACE('',(#103),#973,.F.);
#1021=ADVANCED_FACE('',(#104),#974,.F.);
#1022=ADVANCED_FACE('',(#105),#48,.T.);
#1023=ADVANCED_FACE('',(#106),#49,.T.);
#1024=ADVANCED_FACE('',(#107),#50,.T.);
#1025=ADVANCED_FACE('',(#108),#51,.T.);
#1026=ADVANCED_FACE('',(#109),#52,.T.);
#1027=ADVANCED_FACE('',(#110),#53,.T.);
#1028=ADVANCED_FACE('',(#111),#54,.T.);
#1029=ADVANCED_FACE('',(#112),#55,.T.);
#1030=ADVANCED_FACE('',(#113),#975,.T.);
#1031=ADVANCED_FACE('',(#114),#56,.T.);
#1032=ADVANCED_FACE('',(#115),#57,.T.);
#1033=ADVANCED_FACE('',(#116),#58,.T.);
#1034=ADVANCED_FACE('',(#117),#976,.T.);
#1035=ADVANCED_FACE('',(#118),#59,.T.);
#1036=CLOSED_SHELL('',(#977,#978,#979,#980,#981,#982,#983,#984,#985,#986,
#987,#988,#989,#990,#991,#992,#993,#994,#995,#996,#997,#998,#999,#1000,
#1001,#1002,#1003,#1004,#1005,#1006,#1007,#1008,#1009,#1010,#1011,#1012,
#1013,#1014,#1015,#1016,#1017,#1018,#1019,#1020,#1021,#1022,#1023,#1024,
#1025,#1026,#1027,#1028,#1029,#1030,#1031,#1032,#1033,#1034,#1035));
#1037=DERIVED_UNIT_ELEMENT(#1039,1.);
#1038=DERIVED_UNIT_ELEMENT(#1766,-3.);
#1039=(
MASS_UNIT()
NAMED_UNIT(*)
SI_UNIT(.KILO.,.GRAM.)
);
#1040=DERIVED_UNIT((#1037,#1038));
#1041=MEASURE_REPRESENTATION_ITEM('density measure',
POSITIVE_RATIO_MEASURE(7850.),#1040);
#1042=PROPERTY_DEFINITION_REPRESENTATION(#1047,#1044);
#1043=PROPERTY_DEFINITION_REPRESENTATION(#1048,#1045);
#1044=REPRESENTATION('material name',(#1046),#1763);
#1045=REPRESENTATION('density',(#1041),#1763);
#1046=DESCRIPTIVE_REPRESENTATION_ITEM('PETG','PETG');
#1047=PROPERTY_DEFINITION('material property','material name',#1773);
#1048=PROPERTY_DEFINITION('material property','density of part',#1773);
#1049=AXIS2_PLACEMENT_3D('',#1448,#1147,#1148);
#1050=AXIS2_PLACEMENT_3D('',#1449,#1149,#1150);
#1051=AXIS2_PLACEMENT_3D('',#1452,#1151,#1152);
#1052=AXIS2_PLACEMENT_3D('',#1456,#1154,#1155);
#1053=AXIS2_PLACEMENT_3D('',#1458,#1157,#1158);
#1054=AXIS2_PLACEMENT_3D('',#1466,#1162,#1163);
#1055=AXIS2_PLACEMENT_3D('',#1470,#1166,#1167);
#1056=AXIS2_PLACEMENT_3D('',#1474,#1170,#1171);
#1057=AXIS2_PLACEMENT_3D('',#1477,#1172,#1173);
#1058=AXIS2_PLACEMENT_3D('',#1481,#1175,#1176);
#1059=AXIS2_PLACEMENT_3D('',#1493,#1178,#1179);
#1060=AXIS2_PLACEMENT_3D('',#1495,#1180,#1181);
#1061=AXIS2_PLACEMENT_3D('',#1496,#1182,#1183);
#1062=AXIS2_PLACEMENT_3D('',#1497,#1184,#1185);
#1063=AXIS2_PLACEMENT_3D('',#1500,#1186,#1187);
#1064=AXIS2_PLACEMENT_3D('',#1503,#1190,#1191);
#1065=AXIS2_PLACEMENT_3D('',#1509,#1194,#1195);
#1066=AXIS2_PLACEMENT_3D('',#1515,#1199,#1200);
#1067=AXIS2_PLACEMENT_3D('',#1519,#1203,#1204);
#1068=AXIS2_PLACEMENT_3D('',#1522,#1206,#1207);
#1069=AXIS2_PLACEMENT_3D('',#1523,#1208,#1209);
#1070=AXIS2_PLACEMENT_3D('',#1527,#1212,#1213);
#1071=AXIS2_PLACEMENT_3D('',#1530,#1214,#1215);
#1072=AXIS2_PLACEMENT_3D('',#1534,#1217,#1218);
#1073=AXIS2_PLACEMENT_3D('',#1546,#1220,#1221);
#1074=AXIS2_PLACEMENT_3D('',#1548,#1222,#1223);
#1075=AXIS2_PLACEMENT_3D('',#1549,#1224,#1225);
#1076=AXIS2_PLACEMENT_3D('',#1550,#1226,#1227);
#1077=AXIS2_PLACEMENT_3D('',#1553,#1228,#1229);
#1078=AXIS2_PLACEMENT_3D('',#1556,#1232,#1233);
#1079=AXIS2_PLACEMENT_3D('',#1562,#1236,#1237);
#1080=AXIS2_PLACEMENT_3D('',#1568,#1241,#1242);
#1081=AXIS2_PLACEMENT_3D('',#1572,#1245,#1246);
#1082=AXIS2_PLACEMENT_3D('',#1575,#1248,#1249);
#1083=AXIS2_PLACEMENT_3D('',#1576,#1250,#1251);
#1084=AXIS2_PLACEMENT_3D('',#1580,#1254,#1255);
#1085=AXIS2_PLACEMENT_3D('',#1586,#1258,#1259);
#1086=AXIS2_PLACEMENT_3D('',#1590,#1262,#1263);
#1087=AXIS2_PLACEMENT_3D('',#1592,#1265,#1266);
#1088=AXIS2_PLACEMENT_3D('',#1598,#1270,#1271);
#1089=AXIS2_PLACEMENT_3D('',#1601,#1273,#1274);
#1090=AXIS2_PLACEMENT_3D('',#1602,#1275,#1276);
#1091=AXIS2_PLACEMENT_3D('',#1604,#1278,#1279);
#1092=AXIS2_PLACEMENT_3D('',#1608,#1282,#1283);
#1093=AXIS2_PLACEMENT_3D('',#1610,#1284,#1285);
#1094=AXIS2_PLACEMENT_3D('',#1612,#1287,#1288);
#1095=AXIS2_PLACEMENT_3D('',#1616,#1291,#1292);
#1096=AXIS2_PLACEMENT_3D('',#1620,#1294,#1295);
#1097=AXIS2_PLACEMENT_3D('',#1624,#1298,#1299);
#1098=AXIS2_PLACEMENT_3D('',#1633,#1304,#1305);
#1099=AXIS2_PLACEMENT_3D('',#1639,#1309,#1310);
#1100=AXIS2_PLACEMENT_3D('',#1645,#1314,#1315);
#1101=AXIS2_PLACEMENT_3D('',#1647,#1316,#1317);
#1102=AXIS2_PLACEMENT_3D('',#1649,#1318,#1319);
#1103=AXIS2_PLACEMENT_3D('',#1651,#1321,#1322);
#1104=AXIS2_PLACEMENT_3D('',#1657,#1326,#1327);
#1105=AXIS2_PLACEMENT_3D('',#1658,#1328,#1329);
#1106=AXIS2_PLACEMENT_3D('',#1659,#1330,#1331);
#1107=AXIS2_PLACEMENT_3D('',#1660,#1332,#1333);
#1108=AXIS2_PLACEMENT_3D('',#1667,#1336,#1337);
#1109=AXIS2_PLACEMENT_3D('',#1671,#1339,#1340);
#1110=AXIS2_PLACEMENT_3D('',#1673,#1342,#1343);
#1111=AXIS2_PLACEMENT_3D('',#1676,#1344,#1345);
#1112=AXIS2_PLACEMENT_3D('',#1680,#1347,#1348);
#1113=AXIS2_PLACEMENT_3D('',#1682,#1350,#1351);
#1114=AXIS2_PLACEMENT_3D('',#1684,#1352,#1353);
#1115=AXIS2_PLACEMENT_3D('',#1685,#1354,#1355);
#1116=AXIS2_PLACEMENT_3D('',#1686,#1356,#1357);
#1117=AXIS2_PLACEMENT_3D('',#1689,#1360,#1361);
#1118=AXIS2_PLACEMENT_3D('',#1692,#1362,#1363);
#1119=AXIS2_PLACEMENT_3D('',#1695,#1366,#1367);
#1120=AXIS2_PLACEMENT_3D('',#1697,#1368,#1369);
#1121=AXIS2_PLACEMENT_3D('',#1698,#1370,#1371);
#1122=AXIS2_PLACEMENT_3D('',#1699,#1372,#1373);
#1123=AXIS2_PLACEMENT_3D('',#1701,#1375,#1376);
#1124=AXIS2_PLACEMENT_3D('',#1705,#1378,#1379);
#1125=AXIS2_PLACEMENT_3D('',#1707,#1381,#1382);
#1126=AXIS2_PLACEMENT_3D('',#1709,#1384,#1385);
#1127=AXIS2_PLACEMENT_3D('',#1712,#1386,#1387);
#1128=AXIS2_PLACEMENT_3D('',#1716,#1389,#1390);
#1129=AXIS2_PLACEMENT_3D('',#1728,#1399,#1400);
#1130=AXIS2_PLACEMENT_3D('',#1730,#1401,#1402);
#1131=AXIS2_PLACEMENT_3D('',#1732,#1404,#1405);
#1132=AXIS2_PLACEMENT_3D('',#1733,#1406,#1407);
#1133=AXIS2_PLACEMENT_3D('',#1735,#1409,#1410);
#1134=AXIS2_PLACEMENT_3D('',#1737,#1412,#1413);
#1135=AXIS2_PLACEMENT_3D('',#1739,#1415,#1416);
#1136=AXIS2_PLACEMENT_3D('',#1740,#1417,#1418);
#1137=AXIS2_PLACEMENT_3D('',#1744,#1421,#1422);
#1138=AXIS2_PLACEMENT_3D('',#1746,#1424,#1425);
#1139=AXIS2_PLACEMENT_3D('',#1747,#1426,#1427);
#1140=AXIS2_PLACEMENT_3D('',#1748,#1428,#1429);
#1141=AXIS2_PLACEMENT_3D('',#1751,#1432,#1433);
#1142=AXIS2_PLACEMENT_3D('',#1753,#1435,#1436);
#1143=AXIS2_PLACEMENT_3D('',#1755,#1438,#1439);
#1144=AXIS2_PLACEMENT_3D('',#1757,#1441,#1442);
#1145=AXIS2_PLACEMENT_3D('',#1759,#1444,#1445);
#1146=AXIS2_PLACEMENT_3D('',#1760,#1446,#1447);
#1147=DIRECTION('axis',(0.,0.,1.));
#1148=DIRECTION('refdir',(1.,0.,0.));
#1149=DIRECTION('center_axis',(-1.,0.,0.));
#1150=DIRECTION('ref_axis',(0.,-0.998758526924799,-0.0498137018801593));
#1151=DIRECTION('center_axis',(1.,0.,0.));
#1152=DIRECTION('ref_axis',(0.,-0.998758526924799,-0.0498137018801593));
#1153=DIRECTION('',(1.,0.,0.));
#1154=DIRECTION('center_axis',(-1.,0.,0.));
#1155=DIRECTION('ref_axis',(0.,-0.998758526924799,-0.0498137018801593));
#1156=DIRECTION('',(-1.,0.,0.));
#1157=DIRECTION('center_axis',(1.,0.,0.));
#1158=DIRECTION('ref_axis',(0.,-1.,0.));
#1159=DIRECTION('',(0.,-0.0995037190209986,0.995037190209989));
#1160=DIRECTION('',(0.,-1.,0.));
#1161=DIRECTION('',(0.,0.,-1.));
#1162=DIRECTION('center_axis',(1.,0.,0.));
#1163=DIRECTION('ref_axis',(0.,-0.707106781186547,0.707106781186547));
#1164=DIRECTION('',(0.,1.,0.));
#1165=DIRECTION('',(0.,0.,-1.));
#1166=DIRECTION('center_axis',(0.,-0.995037190209989,-0.0995037190209986));
#1167=DIRECTION('ref_axis',(0.,0.0995037190209986,-0.995037190209989));
#1168=DIRECTION('',(0.,0.0995037190209986,-0.995037190209989));
#1169=DIRECTION('',(1.,0.,0.));
#1170=DIRECTION('center_axis',(1.,0.,0.));
#1171=DIRECTION('ref_axis',(0.,0.998758526924799,-0.0498137018801599));
#1172=DIRECTION('center_axis',(1.,-1.77635683940025E-15,0.));
#1173=DIRECTION('ref_axis',(0.,0.998758526924799,-0.0498137018801599));
#1174=DIRECTION('',(1.,0.,0.));
#1175=DIRECTION('center_axis',(-1.,0.,0.));
#1176=DIRECTION('ref_axis',(0.,1.,0.));
#1177=DIRECTION('',(-1.,0.,0.));
#1178=DIRECTION('center_axis',(0.,0.,-1.));
#1179=DIRECTION('ref_axis',(0.707106781186547,0.707106781186547,0.));
#1180=DIRECTION('center_axis',(0.,1.,0.));
#1181=DIRECTION('ref_axis',(1.,0.,0.));
#1182=DIRECTION('center_axis',(0.,0.,1.));
#1183=DIRECTION('ref_axis',(0.707106781186548,0.707106781186548,0.));
#1184=DIRECTION('center_axis',(0.,-1.,0.));
#1185=DIRECTION('ref_axis',(0.998758526924799,0.,-0.0498137018801593));
#1186=DIRECTION('center_axis',(4.35207425653061E-14,1.,0.));
#1187=DIRECTION('ref_axis',(0.998758526924799,0.,-0.0498137018801593));
#1188=DIRECTION('',(0.,1.,0.));
#1189=DIRECTION('',(0.,-1.,0.));
#1190=DIRECTION('center_axis',(-4.35207425653061E-14,-1.,0.));
#1191=DIRECTION('ref_axis',(-1.,4.35207425653061E-14,0.));
#1192=DIRECTION('',(0.,0.,-1.));
#1193=DIRECTION('',(1.,-4.35207425653061E-14,0.));
#1194=DIRECTION('center_axis',(-4.35207425653061E-14,-1.,0.));
#1195=DIRECTION('ref_axis',(0.707106781186547,0.,0.707106781186547));
#1196=DIRECTION('',(0.,0.,-1.));
#1197=DIRECTION('',(-1.,4.35207425653061E-14,0.));
#1198=DIRECTION('',(-0.0995037190209986,4.33047573980343E-15,-0.995037190209989));
#1199=DIRECTION('center_axis',(1.,0.,0.));
#1200=DIRECTION('ref_axis',(0.,-1.,0.));
#1201=DIRECTION('',(0.,0.,-1.));
#1202=DIRECTION('',(0.,1.,0.));
#1203=DIRECTION('center_axis',(0.,0.,-1.));
#1204=DIRECTION('ref_axis',(0.707106781186547,0.707106781186547,0.));
#1205=DIRECTION('',(0.,0.,1.));
#1206=DIRECTION('center_axis',(0.,0.,1.));
#1207=DIRECTION('ref_axis',(0.707106781186547,0.707106781186547,0.));
#1208=DIRECTION('center_axis',(0.,1.,0.));
#1209=DIRECTION('ref_axis',(1.,0.,0.));
#1210=DIRECTION('',(0.,0.,-1.));
#1211=DIRECTION('',(-1.,0.,0.));
#1212=DIRECTION('center_axis',(-9.60192886162298E-17,1.,0.));
#1213=DIRECTION('ref_axis',(-0.998758526924799,-1.34739763622048E-16,-0.0498137018801599));
#1214=DIRECTION('center_axis',(4.35207425653061E-14,1.,0.));
#1215=DIRECTION('ref_axis',(-0.998758526924799,-1.34739763622048E-16,-0.0498137018801599));
#1216=DIRECTION('',(-9.60192886162298E-17,1.,0.));
#1217=DIRECTION('center_axis',(0.,-1.,0.));
#1218=DIRECTION('ref_axis',(-1.,0.,0.));
#1219=DIRECTION('',(9.60192886162298E-17,-1.,0.));
#1220=DIRECTION('center_axis',(0.,0.,-1.));
#1221=DIRECTION('ref_axis',(-0.707106781186547,0.707106781186547,0.));
#1222=DIRECTION('center_axis',(-1.,0.,0.));
#1223=DIRECTION('ref_axis',(0.,1.,0.));
#1224=DIRECTION('center_axis',(0.,0.,1.));
#1225=DIRECTION('ref_axis',(-0.707106781186548,0.707106781186548,0.));
#1226=DIRECTION('center_axis',(1.,0.,0.));
#1227=DIRECTION('ref_axis',(0.,0.998758526924799,-0.0498137018801599));
#1228=DIRECTION('center_axis',(-1.,1.77635683940025E-15,0.));
#1229=DIRECTION('ref_axis',(0.,0.998758526924799,-0.0498137018801599));
#1230=DIRECTION('',(-1.,0.,0.));
#1231=DIRECTION('',(1.,0.,0.));
#1232=DIRECTION('center_axis',(1.,-1.77635683940025E-15,0.));
#1233=DIRECTION('ref_axis',(-1.77635683940025E-15,-1.,0.));
#1234=DIRECTION('',(0.,0.,-1.));
#1235=DIRECTION('',(1.77635683940025E-15,1.,0.));
#1236=DIRECTION('center_axis',(1.,-1.77635683940025E-15,0.));
#1237=DIRECTION('ref_axis',(0.,0.707106781186547,0.707106781186547));
#1238=DIRECTION('',(0.,0.,-1.));
#1239=DIRECTION('',(-1.77635683940025E-15,-1.,0.));
#1240=DIRECTION('',(-1.76754111828712E-16,-0.0995037190209986,-0.995037190209989));
#1241=DIRECTION('center_axis',(0.,1.,0.));
#1242=DIRECTION('ref_axis',(1.,0.,0.));
#1243=DIRECTION('',(0.,0.,-1.));
#1244=DIRECTION('',(-1.,0.,0.));
#1245=DIRECTION('center_axis',(0.,0.,-1.));
#1246=DIRECTION('ref_axis',(-0.707106781186547,0.707106781186547,0.));
#1247=DIRECTION('',(0.,0.,1.));
#1248=DIRECTION('center_axis',(0.,0.,1.));
#1249=DIRECTION('ref_axis',(-0.707106781186547,0.707106781186547,0.));
#1250=DIRECTION('center_axis',(-1.,-9.60192886162298E-17,0.));
#1251=DIRECTION('ref_axis',(-9.60192886162298E-17,1.,0.));
#1252=DIRECTION('',(0.,0.,-1.));
#1253=DIRECTION('',(9.60192886162298E-17,-1.,0.));
#1254=DIRECTION('center_axis',(-1.,0.,0.));
#1255=DIRECTION('ref_axis',(0.,1.,0.));
#1256=DIRECTION('',(0.,0.,-1.));
#1257=DIRECTION('',(0.,-1.,0.));
#1258=DIRECTION('center_axis',(-1.,0.,0.));
#1259=DIRECTION('ref_axis',(0.,-0.707106781186547,0.707106781186547));
#1260=DIRECTION('',(0.,0.,-1.));
#1261=DIRECTION('',(0.,1.,0.));
#1262=DIRECTION('center_axis',(0.,-1.,0.));
#1263=DIRECTION('ref_axis',(-1.,0.,0.));
#1264=DIRECTION('',(1.,0.,0.));
#1265=DIRECTION('center_axis',(0.,0.995037190209989,-0.0995037190209986));
#1266=DIRECTION('ref_axis',(0.,0.0995037190209986,0.995037190209989));
#1267=DIRECTION('',(0.,-0.0995037190209986,-0.995037190209989));
#1268=DIRECTION('',(-1.,0.,0.));
#1269=DIRECTION('',(1.76754111828712E-16,0.0995037190209986,0.995037190209989));
#1270=DIRECTION('center_axis',(0.,0.,1.));
#1271=DIRECTION('ref_axis',(0.707106781186548,0.707106781186548,0.));
#1272=DIRECTION('',(-0.0995037190210003,0.,-0.995037190209989));
#1273=DIRECTION('center_axis',(0.,0.,1.));
#1274=DIRECTION('ref_axis',(0.707106781186548,0.707106781186548,0.));
#1275=DIRECTION('center_axis',(0.995037190209989,0.,-0.0995037190209986));
#1276=DIRECTION('ref_axis',(-0.0995037190209986,0.,-0.995037190209989));
#1277=DIRECTION('',(0.,1.,0.));
#1278=DIRECTION('center_axis',(0.,0.995037190209989,-0.0995037190209986));
#1279=DIRECTION('ref_axis',(0.,0.0995037190209986,0.995037190209989));
#1280=DIRECTION('',(-1.,0.,0.));
#1281=DIRECTION('',(0.,0.0995037190209986,0.995037190209989));
#1282=DIRECTION('center_axis',(0.,0.,1.));
#1283=DIRECTION('ref_axis',(-0.707106781186548,0.707106781186548,0.));
#1284=DIRECTION('center_axis',(0.,0.,1.));
#1285=DIRECTION('ref_axis',(-0.707106781186548,0.707106781186548,0.));
#1286=DIRECTION('',(-0.0995037190210003,0.,0.995037190209989));
#1287=DIRECTION('center_axis',(-0.995037190209989,-9.55427631506553E-17,
-0.0995037190209986));
#1288=DIRECTION('ref_axis',(-0.0995037190209986,0.,0.995037190209989));
#1289=DIRECTION('',(9.60192886162298E-17,-1.,0.));
#1290=DIRECTION('',(-0.0995037190209986,4.33047573980343E-15,0.995037190209989));
#1291=DIRECTION('center_axis',(0.,0.,-1.));
#1292=DIRECTION('ref_axis',(-1.,0.,0.));
#1293=DIRECTION('',(-1.,0.,0.));
#1294=DIRECTION('center_axis',(0.,0.,-1.));
#1295=DIRECTION('ref_axis',(-0.707106781186547,0.707106781186547,0.));
#1296=DIRECTION('',(3.27140314424443E-16,-1.,0.));
#1297=DIRECTION('',(-1.,4.35207425653061E-14,0.));
#1298=DIRECTION('center_axis',(-1.,0.,0.));
#1299=DIRECTION('ref_axis',(0.,-1.,0.));
#1300=DIRECTION('',(0.,1.,0.));
#1301=DIRECTION('',(0.,0.,1.));
#1302=DIRECTION('',(0.,-1.,0.));
#1303=DIRECTION('',(0.,0.,1.));
#1304=DIRECTION('center_axis',(0.,-1.,0.));
#1305=DIRECTION('ref_axis',(1.,0.,0.));
#1306=DIRECTION('',(-1.,0.,0.));
#1307=DIRECTION('',(1.,0.,0.));
#1308=DIRECTION('',(0.,0.,1.));
#1309=DIRECTION('center_axis',(1.,0.,0.));
#1310=DIRECTION('ref_axis',(0.,1.,0.));
#1311=DIRECTION('',(0.,-1.,0.));
#1312=DIRECTION('',(0.,1.,0.));
#1313=DIRECTION('',(0.,0.,1.));
#1314=DIRECTION('center_axis',(0.,0.,1.));
#1315=DIRECTION('ref_axis',(-1.,0.,0.));
#1316=DIRECTION('center_axis',(0.,0.,1.));
#1317=DIRECTION('ref_axis',(-1.,0.,0.));
#1318=DIRECTION('center_axis',(0.,0.,-1.));
#1319=DIRECTION('ref_axis',(-1.,0.,0.));
#1320=DIRECTION('',(0.,0.,1.));
#1321=DIRECTION('center_axis',(0.,1.,0.));
#1322=DIRECTION('ref_axis',(-1.,0.,0.));
#1323=DIRECTION('',(1.,0.,0.));
#1324=DIRECTION('',(-1.,0.,0.));
#1325=DIRECTION('',(0.,0.,1.));
#1326=DIRECTION('center_axis',(0.,0.,1.));
#1327=DIRECTION('ref_axis',(0.,-1.,0.));
#1328=DIRECTION('center_axis',(0.,0.,1.));
#1329=DIRECTION('ref_axis',(0.,-1.,0.));
#1330=DIRECTION('center_axis',(0.,0.,-1.));
#1331=DIRECTION('ref_axis',(0.,-1.,0.));
#1332=DIRECTION('center_axis',(0.,0.,1.));
#1333=DIRECTION('ref_axis',(-1.,0.,0.));
#1334=DIRECTION('',(-1.,0.,0.));
#1335=DIRECTION('',(0.,-1.,0.));
#1336=DIRECTION('center_axis',(0.,0.,1.));
#1337=DIRECTION('ref_axis',(-1.,0.,0.));
#1338=DIRECTION('',(1.,0.,0.));
#1339=DIRECTION('center_axis',(0.,0.,1.));
#1340=DIRECTION('ref_axis',(0.,-1.,0.));
#1341=DIRECTION('',(0.,1.,0.));
#1342=DIRECTION('center_axis',(0.,0.,-1.));
#1343=DIRECTION('ref_axis',(0.707106781186547,0.707106781186547,0.));
#1344=DIRECTION('center_axis',(0.,0.,1.));
#1345=DIRECTION('ref_axis',(1.,0.,0.));
#1346=DIRECTION('',(0.,0.,-1.));
#1347=DIRECTION('center_axis',(0.,0.,-1.));
#1348=DIRECTION('ref_axis',(0.707106781186547,0.707106781186547,0.));
#1349=DIRECTION('',(0.,0.,1.));
#1350=DIRECTION('center_axis',(0.408248290463864,-0.816496580927727,0.408248290463861));
#1351=DIRECTION('ref_axis',(0.577350269189625,0.577350269189625,0.577350269189628));
#1352=DIRECTION('center_axis',(0.,-1.,0.));
#1353=DIRECTION('ref_axis',(0.707106781186547,0.,0.707106781186547));
#1354=DIRECTION('center_axis',(-1.,0.,0.));
#1355=DIRECTION('ref_axis',(0.,0.707106781186547,0.707106781186547));
#1356=DIRECTION('center_axis',(-1.,0.,0.));
#1357=DIRECTION('ref_axis',(0.,1.,0.));
#1358=DIRECTION('',(0.,1.,0.));
#1359=DIRECTION('',(0.,-1.,0.));
#1360=DIRECTION('center_axis',(0.,0.,-1.));
#1361=DIRECTION('ref_axis',(-0.707106781186547,0.707106781186547,0.));
#1362=DIRECTION('center_axis',(0.,0.,1.));
#1363=DIRECTION('ref_axis',(0.,1.,0.));
#1364=DIRECTION('',(0.,0.,-1.));
#1365=DIRECTION('',(0.,0.,1.));
#1366=DIRECTION('center_axis',(-0.408248290463864,-0.816496580927727,0.408248290463861));
#1367=DIRECTION('ref_axis',(-0.577350269189625,0.577350269189625,0.577350269189628));
#1368=DIRECTION('center_axis',(1.,0.,0.));
#1369=DIRECTION('ref_axis',(0.,0.707106781186547,0.707106781186547));
#1370=DIRECTION('center_axis',(3.27140314424443E-16,-1.,0.));
#1371=DIRECTION('ref_axis',(-0.707106781186547,0.,0.707106781186547));
#1372=DIRECTION('center_axis',(0.,-1.,0.));
#1373=DIRECTION('ref_axis',(-1.,0.,0.));
#1374=DIRECTION('',(1.,0.,0.));
#1375=DIRECTION('center_axis',(-3.27140314424443E-16,1.,0.));
#1376=DIRECTION('ref_axis',(-0.707106781186547,0.,0.707106781186547));
#1377=DIRECTION('',(3.27140314424443E-16,-1.,0.));
#1378=DIRECTION('center_axis',(-4.35207425653061E-14,-1.,0.));
#1379=DIRECTION('ref_axis',(-0.707106781186547,0.,0.707106781186547));
#1380=DIRECTION('',(-3.27140314424443E-16,1.,0.));
#1381=DIRECTION('center_axis',(1.,0.,0.));
#1382=DIRECTION('ref_axis',(0.,0.707106781186547,0.707106781186547));
#1383=DIRECTION('',(-1.,0.,0.));
#1384=DIRECTION('center_axis',(0.,0.,1.));
#1385=DIRECTION('ref_axis',(1.,0.,0.));
#1386=DIRECTION('center_axis',(0.,0.,1.));
#1387=DIRECTION('ref_axis',(0.,-1.,0.));
#1388=DIRECTION('',(-1.,0.,0.));
#1389=DIRECTION('center_axis',(0.,0.,1.));
#1390=DIRECTION('ref_axis',(-1.,0.,0.));
#1391=DIRECTION('',(0.,1.,0.));
#1392=DIRECTION('',(1.,0.,0.));
#1393=DIRECTION('',(0.,-1.,0.));
#1394=DIRECTION('',(1.,0.,0.));
#1395=DIRECTION('',(1.,-4.35207425653061E-14,0.));
#1396=DIRECTION('',(-1.77635683940025E-15,-1.,0.));
#1397=DIRECTION('',(-1.,0.,0.));
#1398=DIRECTION('',(0.,1.,0.));
#1399=DIRECTION('center_axis',(1.,0.,0.));
#1400=DIRECTION('ref_axis',(0.,0.707106781186547,0.707106781186547));
#1401=DIRECTION('center_axis',(-1.,1.77635683940025E-15,0.));
#1402=DIRECTION('ref_axis',(0.,0.707106781186547,0.707106781186547));
#1403=DIRECTION('',(1.,0.,0.));
#1404=DIRECTION('center_axis',(0.,-1.,0.));
#1405=DIRECTION('ref_axis',(0.707106781186547,0.,0.707106781186547));
#1406=DIRECTION('center_axis',(-1.,0.,0.));
#1407=DIRECTION('ref_axis',(0.,-0.707106781186547,0.707106781186547));
#1408=DIRECTION('',(-1.,0.,0.));
#1409=DIRECTION('center_axis',(0.,1.,0.));
#1410=DIRECTION('ref_axis',(1.,0.,0.));
#1411=DIRECTION('',(1.,0.,0.));
#1412=DIRECTION('center_axis',(-4.35207425653061E-14,-1.,0.));
#1413=DIRECTION('ref_axis',(-1.,4.35207425653061E-14,0.));
#1414=DIRECTION('',(0.,0.,-1.));
#1415=DIRECTION('center_axis',(1.,3.27140314424443E-16,0.));
#1416=DIRECTION('ref_axis',(3.27140314424443E-16,-1.,0.));
#1417=DIRECTION('center_axis',(-1.,1.77635683940025E-15,0.));
#1418=DIRECTION('ref_axis',(1.77635683940025E-15,1.,0.));
#1419=DIRECTION('',(1.77635683940025E-15,1.,0.));
#1420=DIRECTION('',(0.,0.,-1.));
#1421=DIRECTION('center_axis',(0.,-1.,0.));
#1422=DIRECTION('ref_axis',(-1.,0.,0.));
#1423=DIRECTION('',(-1.,0.,0.));
#1424=DIRECTION('center_axis',(0.,0.,-1.));
#1425=DIRECTION('ref_axis',(-1.,0.,0.));
#1426=DIRECTION('center_axis',(0.,0.,-1.));
#1427=DIRECTION('ref_axis',(-1.,0.,0.));
#1428=DIRECTION('center_axis',(0.,-1.,0.));
#1429=DIRECTION('ref_axis',(1.,0.,0.));
#1430=DIRECTION('',(0.,0.,1.));
#1431=DIRECTION('',(0.,0.,1.));
#1432=DIRECTION('center_axis',(0.,0.,1.));
#1433=DIRECTION('ref_axis',(-1.,0.,0.));
#1434=DIRECTION('',(0.,0.,1.));
#1435=DIRECTION('center_axis',(-1.,0.,0.));
#1436=DIRECTION('ref_axis',(0.,-1.,0.));
#1437=DIRECTION('',(0.,0.,1.));
#1438=DIRECTION('center_axis',(0.,1.,0.));
#1439=DIRECTION('ref_axis',(-1.,0.,0.));
#1440=DIRECTION('',(0.,0.,1.));
#1441=DIRECTION('center_axis',(1.,0.,0.));
#1442=DIRECTION('ref_axis',(0.,1.,0.));
#1443=DIRECTION('',(0.,0.,1.));
#1444=DIRECTION('center_axis',(0.,0.,1.));
#1445=DIRECTION('ref_axis',(0.,-1.,0.));
#1446=DIRECTION('center_axis',(0.,0.,1.));
#1447=DIRECTION('ref_axis',(1.,0.,0.));
#1448=CARTESIAN_POINT('',(0.,0.,0.));
#1449=CARTESIAN_POINT('Origin',(22.5,-14.5,126.645895496989));
#1450=CARTESIAN_POINT('',(-30.,-47.5,126.645895496989));
#1451=CARTESIAN_POINT('',(-30.,-47.3362272769296,123.362272769296));
#1452=CARTESIAN_POINT('Origin',(-30.,-14.5,126.645895496989));
#1453=CARTESIAN_POINT('',(30.,-47.3362272769296,123.362272769296));
#1454=CARTESIAN_POINT('',(22.5,-47.3362272769296,123.362272769296));
#1455=CARTESIAN_POINT('',(30.,-47.5,126.645895496989));
#1456=CARTESIAN_POINT('Origin',(30.,-14.5,126.645895496989));
#1457=CARTESIAN_POINT('',(22.5,-47.5,126.645895496989));
#1458=CARTESIAN_POINT('Origin',(30.,-45.,130.));
#1459=CARTESIAN_POINT('',(30.,-47.,120.));
#1460=CARTESIAN_POINT('',(30.,-47.6101485148515,126.101485148515));
#1461=CARTESIAN_POINT('',(30.,-45.,120.));
#1462=CARTESIAN_POINT('',(30.,-45.,120.));
#1463=CARTESIAN_POINT('',(30.,-45.,127.5));
#1464=CARTESIAN_POINT('',(30.,-45.,130.));
#1465=CARTESIAN_POINT('',(30.,-42.5,130.));
#1466=CARTESIAN_POINT('Origin',(30.,-42.5,127.5));
#1467=CARTESIAN_POINT('',(30.,-47.5,130.));
#1468=CARTESIAN_POINT('',(30.,-22.5,130.));
#1469=CARTESIAN_POINT('',(30.,-47.5,130.));
#1470=CARTESIAN_POINT('Origin',(15.,-47.25,122.5));
#1471=CARTESIAN_POINT('',(-30.,-47.,120.));
#1472=CARTESIAN_POINT('',(-30.,-47.6225247524752,126.225247524752));
#1473=CARTESIAN_POINT('',(15.,-47.,120.));
#1474=CARTESIAN_POINT('Origin',(19.0625,14.5,126.645895496989));
#1475=CARTESIAN_POINT('',(15.,47.3362272769296,123.362272769296));
#1476=CARTESIAN_POINT('',(15.,47.5,126.645895496989));
#1477=CARTESIAN_POINT('Origin',(15.,14.5,126.645895496989));
#1478=CARTESIAN_POINT('',(45.,47.5,126.645895496989));
#1479=CARTESIAN_POINT('',(19.0625,47.5,126.645895496989));
#1480=CARTESIAN_POINT('',(45.,47.3362272769296,123.362272769296));
#1481=CARTESIAN_POINT('Origin',(45.,14.5,126.645895496989));
#1482=CARTESIAN_POINT('',(19.0625,47.3362272769297,123.362272769296));
#1483=CARTESIAN_POINT('Ctrl Pts',(45.,47.5,126.645895496989));
#1484=CARTESIAN_POINT('Ctrl Pts',(47.5,47.5,126.645895496989));
#1485=CARTESIAN_POINT('Ctrl Pts',(47.5,45.,126.645895496989));
#1486=CARTESIAN_POINT('Ctrl Pts',(45.,47.5,125.));
#1487=CARTESIAN_POINT('Ctrl Pts',(47.5,47.5,125.));
#1488=CARTESIAN_POINT('Ctrl Pts',(47.5,45.,125.));
#1489=CARTESIAN_POINT('Ctrl Pts',(45.,47.3362272769296,123.362272769296));
#1490=CARTESIAN_POINT('Ctrl Pts',(47.3362272769296,47.3362272769296,123.362272769296));
#1491=CARTESIAN_POINT('Ctrl Pts',(47.3362272769296,45.,123.362272769296));
#1492=CARTESIAN_POINT('',(47.5,45.,126.645895496989));
#1493=CARTESIAN_POINT('Origin',(45.,45.,126.645895496989));
#1494=CARTESIAN_POINT('',(47.3362272769296,45.,123.362272769296));
#1495=CARTESIAN_POINT('Origin',(14.5,45.,126.645895496989));
#1496=CARTESIAN_POINT('Origin',(45.,45.,123.362272769296));
#1497=CARTESIAN_POINT('Origin',(14.5,43.7937787871974,126.645895496989));
#1498=CARTESIAN_POINT('',(47.5,17.850230297579,126.645895496989));
#1499=CARTESIAN_POINT('',(47.3362272769296,17.850230297579,123.362272769296));
#1500=CARTESIAN_POINT('Origin',(14.5,17.850230297579,126.645895496989));
#1501=CARTESIAN_POINT('',(47.3362272769296,43.7937787871974,123.362272769296));
#1502=CARTESIAN_POINT('',(47.5,43.7937787871974,126.645895496989));
#1503=CARTESIAN_POINT('Origin',(47.5,17.850230297579,130.));
#1504=CARTESIAN_POINT('',(47.5,17.850230297579,130.));
#1505=CARTESIAN_POINT('',(47.5,17.850230297579,130.));
#1506=CARTESIAN_POINT('',(42.5,17.8502302975792,130.));
#1507=CARTESIAN_POINT('',(23.7500000000004,17.85023029758,130.));
#1508=CARTESIAN_POINT('',(45.,17.8502302975791,127.5));
#1509=CARTESIAN_POINT('Origin',(42.5,17.850230297579,127.5));
#1510=CARTESIAN_POINT('',(45.,17.8502302975791,120.));
#1511=CARTESIAN_POINT('',(45.,17.8502302975791,130.));
#1512=CARTESIAN_POINT('',(47.,17.850230297579,120.));
#1513=CARTESIAN_POINT('',(47.5,17.850230297579,120.));
#1514=CARTESIAN_POINT('',(47.6225247524752,17.850230297579,126.225247524752));
#1515=CARTESIAN_POINT('Origin',(47.5,47.5,130.));
#1516=CARTESIAN_POINT('',(47.5,45.,130.));
#1517=CARTESIAN_POINT('',(47.5,45.,130.));
#1518=CARTESIAN_POINT('',(47.5,23.75,130.));
#1519=CARTESIAN_POINT('Origin',(45.,45.,130.));
#1520=CARTESIAN_POINT('',(45.,47.5,130.));
#1521=CARTESIAN_POINT('',(45.,47.5,130.));
#1522=CARTESIAN_POINT('Origin',(45.,45.,130.));
#1523=CARTESIAN_POINT('Origin',(15.,47.5,130.));
#1524=CARTESIAN_POINT('',(15.,47.5,130.));
#1525=CARTESIAN_POINT('',(15.,47.5,130.));
#1526=CARTESIAN_POINT('',(7.5,47.5,130.));
#1527=CARTESIAN_POINT('Origin',(-14.5,21.5564515103816,126.645895496989));
#1528=CARTESIAN_POINT('',(-47.3362272769296,17.850230297579,123.362272769296));
#1529=CARTESIAN_POINT('',(-47.5,17.850230297579,126.645895496989));
#1530=CARTESIAN_POINT('Origin',(-14.5,17.8502302975789,126.645895496989));
#1531=CARTESIAN_POINT('',(-47.5,45.,126.645895496989));
#1532=CARTESIAN_POINT('',(-47.5,21.5564515103816,126.645895496989));
#1533=CARTESIAN_POINT('',(-47.3362272769296,45.,123.362272769296));
#1534=CARTESIAN_POINT('Origin',(-14.5,45.,126.645895496989));
#1535=CARTESIAN_POINT('',(-47.3362272769297,21.5564515103816,123.362272769296));
#1536=CARTESIAN_POINT('Ctrl Pts',(-47.5,45.,126.645895496989));
#1537=CARTESIAN_POINT('Ctrl Pts',(-47.5,47.5,126.645895496989));
#1538=CARTESIAN_POINT('Ctrl Pts',(-45.,47.5,126.645895496989));
#1539=CARTESIAN_POINT('Ctrl Pts',(-47.5,45.,125.));
#1540=CARTESIAN_POINT('Ctrl Pts',(-47.5,47.5,125.));
#1541=CARTESIAN_POINT('Ctrl Pts',(-45.,47.5,125.));
#1542=CARTESIAN_POINT('Ctrl Pts',(-47.3362272769296,45.,123.362272769296));
#1543=CARTESIAN_POINT('Ctrl Pts',(-47.3362272769296,47.3362272769296,123.362272769296));
#1544=CARTESIAN_POINT('Ctrl Pts',(-45.,47.3362272769296,123.362272769296));
#1545=CARTESIAN_POINT('',(-45.,47.5,126.645895496989));
#1546=CARTESIAN_POINT('Origin',(-45.,45.,126.645895496989));
#1547=CARTESIAN_POINT('',(-45.,47.3362272769296,123.362272769296));
#1548=CARTESIAN_POINT('Origin',(-45.,14.5,126.645895496989));
#1549=CARTESIAN_POINT('Origin',(-45.,45.,123.362272769296));
#1550=CARTESIAN_POINT('Origin',(-43.4375,14.5,126.645895496989));
#1551=CARTESIAN_POINT('',(-15.,47.5,126.645895496989));
#1552=CARTESIAN_POINT('',(-15.,47.3362272769296,123.362272769296));
#1553=CARTESIAN_POINT('Origin',(-15.,14.5,126.645895496989));
#1554=CARTESIAN_POINT('',(-43.4375,47.3362272769297,123.362272769296));
#1555=CARTESIAN_POINT('',(-43.4375,47.5,126.645895496989));
#1556=CARTESIAN_POINT('Origin',(-15.,47.5,130.));
#1557=CARTESIAN_POINT('',(-15.,47.5,130.));
#1558=CARTESIAN_POINT('',(-15.,47.5,130.));
#1559=CARTESIAN_POINT('',(-15.,42.5,130.));
#1560=CARTESIAN_POINT('',(-15.,23.75,130.));
#1561=CARTESIAN_POINT('',(-15.,45.,127.5));
#1562=CARTESIAN_POINT('Origin',(-15.,42.5,127.5));
#1563=CARTESIAN_POINT('',(-15.,45.,120.));
#1564=CARTESIAN_POINT('',(-15.,45.,130.));
#1565=CARTESIAN_POINT('',(-15.,47.,120.));
#1566=CARTESIAN_POINT('',(-15.,45.,120.));
#1567=CARTESIAN_POINT('',(-15.,47.6225247524752,126.225247524752));
#1568=CARTESIAN_POINT('Origin',(-47.5,47.5,130.));
#1569=CARTESIAN_POINT('',(-45.,47.5,130.));
#1570=CARTESIAN_POINT('',(-45.,47.5,130.));
#1571=CARTESIAN_POINT('',(-23.75,47.5,130.));
#1572=CARTESIAN_POINT('Origin',(-45.,45.,130.));
#1573=CARTESIAN_POINT('',(-47.5,45.,130.));
#1574=CARTESIAN_POINT('',(-47.5,45.,130.));
#1575=CARTESIAN_POINT('Origin',(-45.,45.,130.));
#1576=CARTESIAN_POINT('Origin',(-47.5,17.850230297579,130.));
#1577=CARTESIAN_POINT('',(-47.5,17.850230297579,130.));
#1578=CARTESIAN_POINT('',(-47.5,17.850230297579,130.));
#1579=CARTESIAN_POINT('',(-47.5,8.92511514878949,130.));
#1580=CARTESIAN_POINT('Origin',(-30.,-47.5,130.));
#1581=CARTESIAN_POINT('',(-30.,-47.5,130.));
#1582=CARTESIAN_POINT('',(-30.,-47.5,130.));
#1583=CARTESIAN_POINT('',(-30.,-42.5,130.));
#1584=CARTESIAN_POINT('',(-30.,-23.75,130.));
#1585=CARTESIAN_POINT('',(-30.,-45.,127.5));
#1586=CARTESIAN_POINT('Origin',(-30.,-42.5,127.5));
#1587=CARTESIAN_POINT('',(-30.,-45.,120.));
#1588=CARTESIAN_POINT('',(-30.,-45.,130.));
#1589=CARTESIAN_POINT('',(-30.,-45.,120.));
#1590=CARTESIAN_POINT('Origin',(30.,-47.5,130.));
#1591=CARTESIAN_POINT('',(15.,-47.5,130.));
#1592=CARTESIAN_POINT('Origin',(23.125,47.25,122.5));
#1593=CARTESIAN_POINT('',(45.,47.,120.));
#1594=CARTESIAN_POINT('',(45.,47.5,125.));
#1595=CARTESIAN_POINT('',(15.,47.,120.));
#1596=CARTESIAN_POINT('',(23.125,47.,120.));
#1597=CARTESIAN_POINT('',(15.,47.6101485148515,126.101485148515));
#1598=CARTESIAN_POINT('Origin',(45.,45.,122.5));
#1599=CARTESIAN_POINT('',(47.,45.,120.));
#1600=CARTESIAN_POINT('',(47.5,45.,125.));
#1601=CARTESIAN_POINT('Origin',(45.,45.,120.));
#1602=CARTESIAN_POINT('Origin',(47.25,40.0875575743947,122.5));
#1603=CARTESIAN_POINT('',(47.,40.0875575743947,120.));
#1604=CARTESIAN_POINT('Origin',(-39.375,47.25,122.5));
#1605=CARTESIAN_POINT('',(-45.,47.,120.));
#1606=CARTESIAN_POINT('',(-39.375,47.,120.));
#1607=CARTESIAN_POINT('',(-45.,47.,120.));
#1608=CARTESIAN_POINT('Origin',(-45.,45.,122.5));
#1609=CARTESIAN_POINT('',(-47.,45.,120.));
#1610=CARTESIAN_POINT('Origin',(-45.,45.,120.));
#1611=CARTESIAN_POINT('',(-47.,45.,120.));
#1612=CARTESIAN_POINT('Origin',(-47.25,25.2626727231842,122.5));
#1613=CARTESIAN_POINT('',(-47.,17.850230297579,120.));
#1614=CARTESIAN_POINT('',(-47.,25.2626727231842,120.));
#1615=CARTESIAN_POINT('',(-47.6101485148515,17.850230297579,126.101485148515));
#1616=CARTESIAN_POINT('Origin',(-31.25,32.6751151487894,120.));
#1617=CARTESIAN_POINT('',(-42.5,45.,120.));
#1618=CARTESIAN_POINT('',(-45.,45.,120.));
#1619=CARTESIAN_POINT('',(-45.,42.5,120.));
#1620=CARTESIAN_POINT('Origin',(-42.5,42.5,120.));
#1621=CARTESIAN_POINT('',(-45.,17.8502302975789,120.));
#1622=CARTESIAN_POINT('',(-45.,17.8502302975789,120.));
#1623=CARTESIAN_POINT('',(-47.5,17.850230297579,120.));
#1624=CARTESIAN_POINT('Origin',(49.,49.,132.5));
#1625=CARTESIAN_POINT('',(49.,-45.,132.5));
#1626=CARTESIAN_POINT('',(49.,49.,132.5));
#1627=CARTESIAN_POINT('',(49.,24.5,132.5));
#1628=CARTESIAN_POINT('',(49.,-45.,133.5));
#1629=CARTESIAN_POINT('',(49.,-45.,132.5));
#1630=CARTESIAN_POINT('',(49.,49.,133.5));
#1631=CARTESIAN_POINT('',(49.,-45.,133.5));
#1632=CARTESIAN_POINT('',(49.,49.,132.5));
#1633=CARTESIAN_POINT('Origin',(-49.,49.,132.5));
#1634=CARTESIAN_POINT('',(-49.,49.,132.5));
#1635=CARTESIAN_POINT('',(-24.5,49.,132.5));
#1636=CARTESIAN_POINT('',(-49.,49.,133.5));
#1637=CARTESIAN_POINT('',(49.,49.,133.5));
#1638=CARTESIAN_POINT('',(-49.,49.,132.5));
#1639=CARTESIAN_POINT('Origin',(-49.,-45.,132.5));
#1640=CARTESIAN_POINT('',(-49.,-45.,132.5));
#1641=CARTESIAN_POINT('',(-49.,-22.5,132.5));
#1642=CARTESIAN_POINT('',(-49.,-45.,133.5));
#1643=CARTESIAN_POINT('',(-49.,49.,133.5));
#1644=CARTESIAN_POINT('',(-49.,-45.,132.5));
#1645=CARTESIAN_POINT('Origin',(-45.,-45.,132.5));
#1646=CARTESIAN_POINT('',(-45.,-49.,132.5));
#1647=CARTESIAN_POINT('Origin',(-45.,-45.,132.5));
#1648=CARTESIAN_POINT('',(-45.,-49.,133.5));
#1649=CARTESIAN_POINT('Origin',(-45.,-45.,133.5));
#1650=CARTESIAN_POINT('',(-45.,-49.,132.5));
#1651=CARTESIAN_POINT('Origin',(45.,-49.,132.5));
#1652=CARTESIAN_POINT('',(45.,-49.,132.5));
#1653=CARTESIAN_POINT('',(22.5,-49.,132.5));
#1654=CARTESIAN_POINT('',(45.,-49.,133.5));
#1655=CARTESIAN_POINT('',(45.,-49.,133.5));
#1656=CARTESIAN_POINT('',(45.,-49.,132.5));
#1657=CARTESIAN_POINT('Origin',(45.,-45.,132.5));
#1658=CARTESIAN_POINT('Origin',(45.,-45.,132.5));
#1659=CARTESIAN_POINT('Origin',(45.,-45.,133.5));
#1660=CARTESIAN_POINT('Origin',(0.,0.,133.5));
#1661=CARTESIAN_POINT('',(50.,50.,133.5));
#1662=CARTESIAN_POINT('',(-50.,50.,133.5));
#1663=CARTESIAN_POINT('',(50.,50.,133.5));
#1664=CARTESIAN_POINT('',(-50.,-45.,133.5));
#1665=CARTESIAN_POINT('',(-50.,50.,133.5));
#1666=CARTESIAN_POINT('',(-45.,-50.,133.5));
#1667=CARTESIAN_POINT('Origin',(-45.,-45.,133.5));
#1668=CARTESIAN_POINT('',(45.,-50.,133.5));
#1669=CARTESIAN_POINT('',(-45.,-50.,133.5));
#1670=CARTESIAN_POINT('',(50.,-45.,133.5));
#1671=CARTESIAN_POINT('Origin',(45.,-45.,133.5));
#1672=CARTESIAN_POINT('',(50.,-45.,133.5));
#1673=CARTESIAN_POINT('Origin',(42.5,42.5,130.));
#1674=CARTESIAN_POINT('',(45.,42.5,127.5));
#1675=CARTESIAN_POINT('',(42.5,45.,127.5));
#1676=CARTESIAN_POINT('Origin',(42.5,42.5,127.5));
#1677=CARTESIAN_POINT('',(42.5,45.,120.));
#1678=CARTESIAN_POINT('',(42.5,45.,130.));
#1679=CARTESIAN_POINT('',(45.,42.5,120.));
#1680=CARTESIAN_POINT('Origin',(42.5,42.5,120.));
#1681=CARTESIAN_POINT('',(45.,42.5,130.));
#1682=CARTESIAN_POINT('Origin',(42.5,42.5,127.5));
#1683=CARTESIAN_POINT('',(42.5,42.5,130.));
#1684=CARTESIAN_POINT('Origin',(42.5,42.5,127.5));
#1685=CARTESIAN_POINT('Origin',(42.5,42.5,127.5));
#1686=CARTESIAN_POINT('Origin',(45.,17.8502302975791,130.));
#1687=CARTESIAN_POINT('',(45.,17.8502302975791,120.));
#1688=CARTESIAN_POINT('',(45.,8.92511514878955,127.5));
#1689=CARTESIAN_POINT('Origin',(-42.5,42.5,130.));
#1690=CARTESIAN_POINT('',(-42.5,45.,127.5));
#1691=CARTESIAN_POINT('',(-45.,42.5,127.5));
#1692=CARTESIAN_POINT('Origin',(-42.5,42.5,127.5));
#1693=CARTESIAN_POINT('',(-45.,42.5,130.));
#1694=CARTESIAN_POINT('',(-42.5,45.,130.));
#1695=CARTESIAN_POINT('Origin',(-42.5,42.5,127.5));
#1696=CARTESIAN_POINT('',(-42.5,42.5,130.));
#1697=CARTESIAN_POINT('Origin',(-42.5,42.5,127.5));
#1698=CARTESIAN_POINT('Origin',(-42.5,42.5,127.5));
#1699=CARTESIAN_POINT('Origin',(-15.,45.,130.));
#1700=CARTESIAN_POINT('',(-7.5,45.,127.5));
#1701=CARTESIAN_POINT('Origin',(-42.5,22.5,127.5));
#1702=CARTESIAN_POINT('',(-42.5,17.8502302975788,130.));
#1703=CARTESIAN_POINT('',(-42.5,22.5,130.));
#1704=CARTESIAN_POINT('',(-45.,17.8502302975789,127.5));
#1705=CARTESIAN_POINT('Origin',(-42.5,17.8502302975789,127.5));
#1706=CARTESIAN_POINT('',(-45.,22.5,127.5));
#1707=CARTESIAN_POINT('Origin',(-7.5,42.5,127.5));
#1708=CARTESIAN_POINT('',(-7.5,42.5,130.));
#1709=CARTESIAN_POINT('Origin',(0.,0.,130.));
#1710=CARTESIAN_POINT('',(45.,-50.,130.));
#1711=CARTESIAN_POINT('',(50.,-45.,130.));
#1712=CARTESIAN_POINT('Origin',(45.,-45.,130.));
#1713=CARTESIAN_POINT('',(-45.,-50.,130.));
#1714=CARTESIAN_POINT('',(45.,-50.,130.));
#1715=CARTESIAN_POINT('',(-50.,-45.,130.));
#1716=CARTESIAN_POINT('Origin',(-45.,-45.,130.));
#1717=CARTESIAN_POINT('',(-50.,50.,130.));
#1718=CARTESIAN_POINT('',(-50.,-45.,130.));
#1719=CARTESIAN_POINT('',(50.,50.,130.));
#1720=CARTESIAN_POINT('',(-50.,50.,130.));
#1721=CARTESIAN_POINT('',(50.,50.,130.));
#1722=CARTESIAN_POINT('',(-15.,-42.5,130.));
#1723=CARTESIAN_POINT('',(-22.4999999999996,17.8502302975779,130.));
#1724=CARTESIAN_POINT('',(15.,42.5,130.));
#1725=CARTESIAN_POINT('',(15.,22.5,130.));
#1726=CARTESIAN_POINT('',(22.5,42.5,130.));
#1727=CARTESIAN_POINT('',(42.5,8.92511514878955,130.));
#1728=CARTESIAN_POINT('Origin',(22.5,42.5,127.5));
#1729=CARTESIAN_POINT('',(15.,45.,127.5));
#1730=CARTESIAN_POINT('Origin',(15.,42.5,127.5));
#1731=CARTESIAN_POINT('',(22.5,45.,127.5));
#1732=CARTESIAN_POINT('Origin',(42.5,8.92511514878955,127.5));
#1733=CARTESIAN_POINT('Origin',(-15.,-42.5,127.5));
#1734=CARTESIAN_POINT('',(-15.,-45.,127.5));
#1735=CARTESIAN_POINT('Origin',(-30.,-45.,130.));
#1736=CARTESIAN_POINT('',(30.,-45.,120.));
#1737=CARTESIAN_POINT('Origin',(-45.,17.8502302975789,130.));
#1738=CARTESIAN_POINT('',(-45.,17.8502302975789,130.));
#1739=CARTESIAN_POINT('Origin',(-45.,45.,130.));
#1740=CARTESIAN_POINT('Origin',(15.,45.,130.));
#1741=CARTESIAN_POINT('',(15.,45.,120.));
#1742=CARTESIAN_POINT('',(15.,45.,120.));
#1743=CARTESIAN_POINT('',(15.,45.,130.));
#1744=CARTESIAN_POINT('Origin',(45.,45.,130.));
#1745=CARTESIAN_POINT('',(45.,45.,120.));
#1746=CARTESIAN_POINT('Origin',(31.25,32.6751151487895,120.));
#1747=CARTESIAN_POINT('Origin',(0.,-46.25,120.));
#1748=CARTESIAN_POINT('Origin',(-45.,-50.,130.));
#1749=CARTESIAN_POINT('',(45.,-50.,130.));
#1750=CARTESIAN_POINT('',(-45.,-50.,130.));
#1751=CARTESIAN_POINT('Origin',(-45.,-45.,130.));
#1752=CARTESIAN_POINT('',(-50.,-45.,130.));
#1753=CARTESIAN_POINT('Origin',(-50.,50.,130.));
#1754=CARTESIAN_POINT('',(-50.,50.,130.));
#1755=CARTESIAN_POINT('Origin',(50.,50.,130.));
#1756=CARTESIAN_POINT('',(50.,50.,130.));
#1757=CARTESIAN_POINT('Origin',(50.,-45.,130.));
#1758=CARTESIAN_POINT('',(50.,-45.,130.));
#1759=CARTESIAN_POINT('Origin',(45.,-45.,130.));
#1760=CARTESIAN_POINT('Origin',(0.,0.,132.5));
#1761=UNCERTAINTY_MEASURE_WITH_UNIT(LENGTH_MEASURE(0.01),#1765,
'DISTANCE_ACCURACY_VALUE',
'Maximum model space distance between geometric entities at asserted c
onnectivities');
#1762=UNCERTAINTY_MEASURE_WITH_UNIT(LENGTH_MEASURE(0.01),#1765,
'DISTANCE_ACCURACY_VALUE',
'Maximum model space distance between geometric entities at asserted c
onnectivities');
#1763=(
GEOMETRIC_REPRESENTATION_CONTEXT(3)
GLOBAL_UNCERTAINTY_ASSIGNED_CONTEXT((#1761))
GLOBAL_UNIT_ASSIGNED_CONTEXT((#1765,#1767,#1768))
REPRESENTATION_CONTEXT('','3D')
);
#1764=(
GEOMETRIC_REPRESENTATION_CONTEXT(3)
GLOBAL_UNCERTAINTY_ASSIGNED_CONTEXT((#1762))
GLOBAL_UNIT_ASSIGNED_CONTEXT((#1765,#1767,#1768))
REPRESENTATION_CONTEXT('','3D')
);
#1765=(
LENGTH_UNIT()
NAMED_UNIT(*)
SI_UNIT(.MILLI.,.METRE.)
);
#1766=(
LENGTH_UNIT()
NAMED_UNIT(*)
SI_UNIT($,.METRE.)
);
#1767=(
NAMED_UNIT(*)
PLANE_ANGLE_UNIT()
SI_UNIT($,.RADIAN.)
);
#1768=(
NAMED_UNIT(*)
SI_UNIT($,.STERADIAN.)
SOLID_ANGLE_UNIT()
);
#1769=SHAPE_DEFINITION_REPRESENTATION(#1770,#1771);
#1770=PRODUCT_DEFINITION_SHAPE('',$,#1773);
#1771=SHAPE_REPRESENTATION('',(#1049),#1763);
#1772=PRODUCT_DEFINITION_CONTEXT('part definition',#1777,'design');
#1773=PRODUCT_DEFINITION('(Unsaved)','(Unsaved)',#1774,#1772);
#1774=PRODUCT_DEFINITION_FORMATION('',$,#1779);
#1775=PRODUCT_RELATED_PRODUCT_CATEGORY('(Unsaved)','(Unsaved)',(#1779));
#1776=APPLICATION_PROTOCOL_DEFINITION('international standard',
'automotive_design',2009,#1777);
#1777=APPLICATION_CONTEXT(
'Core Data for Automotive Mechanical Design Process');
#1778=PRODUCT_CONTEXT('part definition',#1777,'mechanical');
#1779=PRODUCT('(Unsaved)','(Unsaved)',$,(#1778));
#1780=PRESENTATION_STYLE_ASSIGNMENT((#1781));
#1781=SURFACE_STYLE_USAGE(.BOTH.,#1782);
#1782=SURFACE_SIDE_STYLE('',(#1783));
#1783=SURFACE_STYLE_FILL_AREA(#1784);
#1784=FILL_AREA_STYLE('Steel - Satin',(#1785));
#1785=FILL_AREA_STYLE_COLOUR('Steel - Satin',#1786);
#1786=COLOUR_RGB('Steel - Satin',0.792156862745098,0.792156862745098,0.792156862745098);
ENDSEC;
END-ISO-10303-21;
