ISO-10303-21;
HEADER;
FILE_DESCRIPTION(('STEP AP214'),'1');
FILE_NAME('Roof.stp','2026-07-27T15:35:39',(' '),(' '),'Spatial InterOp 3D',' ',' ');
FILE_SCHEMA(('AUTOMOTIVE_DESIGN { 1 0 10303 214 1 1 1 1 }'));
ENDSEC;
DATA;
#1=PRODUCT_DEFINITION_CONTEXT('',#9,'design');
#2=APPLICATION_PROTOCOL_DEFINITION('INTERNATIONAL STANDARD','automotive_design',1994,#9);
#3=PRODUCT_CATEGORY_RELATIONSHIP('NONE','NONE',#10,#11);
#4=SHAPE_DEFINITION_REPRESENTATION(#12,#13);
#5= (GEOMETRIC_REPRESENTATION_CONTEXT(3)GLOBAL_UNCERTAINTY_ASSIGNED_CONTEXT((#16))GLOBAL_UNIT_ASSIGNED_CONTEXT((#18,#19,#20))REPRESENTATION_CONTEXT('NONE','WORKSPACE'));
#9=APPLICATION_CONTEXT(' ');
#10=PRODUCT_CATEGORY('part','NONE');
#11=PRODUCT_RELATED_PRODUCT_CATEGORY('detail',' ',(#22));
#12=PRODUCT_DEFINITION_SHAPE('NONE','NONE',#23);
#13=ADVANCED_BREP_SHAPE_REPRESENTATION('1',(#24,#25),#5);
#16=UNCERTAINTY_MEASURE_WITH_UNIT(LENGTH_MEASURE(0.001),#18,'','');
#18= (CONVERSION_BASED_UNIT('MILLIMETRE',#28)LENGTH_UNIT()NAMED_UNIT(#31));
#19= (NAMED_UNIT(#33)PLANE_ANGLE_UNIT()SI_UNIT($,.RADIAN.));
#20= (NAMED_UNIT(#33)SOLID_ANGLE_UNIT()SI_UNIT($,.STERADIAN.));
#22=PRODUCT('1','','PART--DESC',(#39));
#23=PRODUCT_DEFINITION('','NONE',#40,#1);
#24=MANIFOLD_SOLID_BREP('1',#41);
#25=AXIS2_PLACEMENT_3D('',#42,#43,#44);
#28=LENGTH_MEASURE_WITH_UNIT(LENGTH_MEASURE(1.0),#45);
#31=DIMENSIONAL_EXPONENTS(1.0,0.0,0.0,0.0,0.0,0.0,0.0);
#33=DIMENSIONAL_EXPONENTS(0.0,0.0,0.0,0.0,0.0,0.0,0.0);
#39=PRODUCT_CONTEXT('',#9,'mechanical');
#40=PRODUCT_DEFINITION_FORMATION_WITH_SPECIFIED_SOURCE(' ','NONE',#22,.NOT_KNOWN.);
#41=CLOSED_SHELL('',(#46,#47,#48,#49,#50,#51,#52,#53,#54,#55,#56,#57,#58,#59,#60,#61,#62,#63,#64,#65,#66,#67,#68,#69,#70,#71,#72,#73,#74,#75,#76,#77,#78,#79,#80,#81,#82,#83,#84,#85,#86,#87,#88,#89,#90,#91,#92,#93));
#42=CARTESIAN_POINT('',(0.0,0.0,0.0));
#43=DIRECTION('',(0.0,0.0,1.0));
#44=DIRECTION('',(1.0,0.0,0.0));
#45= (NAMED_UNIT(#31)LENGTH_UNIT()SI_UNIT(.MILLI.,.METRE.));
#46=ADVANCED_FACE('',(#95),#96,.T.);
#47=ADVANCED_FACE('',(#97),#98,.T.);
#48=ADVANCED_FACE('',(#99),#100,.T.);
#49=ADVANCED_FACE('',(#101,#102,#103,#104),#105,.T.);
#50=ADVANCED_FACE('',(#106),#107,.T.);
#51=ADVANCED_FACE('',(#108),#109,.T.);
#52=ADVANCED_FACE('',(#110),#111,.T.);
#53=ADVANCED_FACE('',(#112),#113,.T.);
#54=ADVANCED_FACE('',(#114),#115,.T.);
#55=ADVANCED_FACE('',(#116),#117,.T.);
#56=ADVANCED_FACE('',(#118),#119,.T.);
#57=ADVANCED_FACE('',(#120),#121,.T.);
#58=ADVANCED_FACE('',(#122),#123,.F.);
#59=ADVANCED_FACE('',(#124),#125,.F.);
#60=ADVANCED_FACE('',(#126),#127,.F.);
#61=ADVANCED_FACE('',(#128),#129,.F.);
#62=ADVANCED_FACE('',(#130),#131,.F.);
#63=ADVANCED_FACE('',(#132),#133,.T.);
#64=ADVANCED_FACE('',(#134),#135,.T.);
#65=ADVANCED_FACE('',(#136),#137,.T.);
#66=ADVANCED_FACE('',(#138),#139,.T.);
#67=ADVANCED_FACE('',(#140),#141,.T.);
#68=ADVANCED_FACE('',(#142),#143,.T.);
#69=ADVANCED_FACE('',(#144),#145,.T.);
#70=ADVANCED_FACE('',(#146),#147,.T.);
#71=ADVANCED_FACE('',(#148),#149,.T.);
#72=ADVANCED_FACE('',(#150),#151,.T.);
#73=ADVANCED_FACE('',(#152),#153,.T.);
#74=ADVANCED_FACE('',(#154),#155,.F.);
#75=ADVANCED_FACE('',(#156),#157,.F.);
#76=ADVANCED_FACE('',(#158),#159,.T.);
#77=ADVANCED_FACE('',(#160),#161,.F.);
#78=ADVANCED_FACE('',(#162),#163,.F.);
#79=ADVANCED_FACE('',(#164),#165,.T.);
#80=ADVANCED_FACE('',(#166),#167,.F.);
#81=ADVANCED_FACE('',(#168),#169,.F.);
#82=ADVANCED_FACE('',(#170),#171,.T.);
#83=ADVANCED_FACE('',(#172),#173,.T.);
#84=ADVANCED_FACE('',(#174),#175,.F.);
#85=ADVANCED_FACE('',(#176),#177,.F.);
#86=ADVANCED_FACE('',(#178),#179,.T.);
#87=ADVANCED_FACE('',(#180),#181,.F.);
#88=ADVANCED_FACE('',(#182),#183,.F.);
#89=ADVANCED_FACE('',(#184),#185,.T.);
#90=ADVANCED_FACE('',(#186),#187,.F.);
#91=ADVANCED_FACE('',(#188),#189,.F.);
#92=ADVANCED_FACE('',(#190),#191,.F.);
#93=ADVANCED_FACE('',(#192,#193),#194,.T.);
#95=FACE_OUTER_BOUND('',#195,.T.);
#96=PLANE('',#196);
#97=FACE_OUTER_BOUND('',#197,.T.);
#98=PLANE('',#198);
#99=FACE_OUTER_BOUND('',#199,.T.);
#100=PLANE('',#200);
#101=FACE_BOUND('',#201,.T.);
#102=FACE_BOUND('',#202,.T.);
#103=FACE_OUTER_BOUND('',#203,.T.);
#104=FACE_BOUND('',#204,.T.);
#105=PLANE('',#205);
#106=FACE_OUTER_BOUND('',#206,.T.);
#107=PLANE('',#207);
#108=FACE_OUTER_BOUND('',#208,.T.);
#109=CYLINDRICAL_SURFACE('',#209,5.0);
#110=FACE_OUTER_BOUND('',#210,.T.);
#111=PLANE('',#211);
#112=FACE_OUTER_BOUND('',#212,.T.);
#113=PLANE('',#213);
#114=FACE_OUTER_BOUND('',#214,.T.);
#115=PLANE('',#215);
#116=FACE_OUTER_BOUND('',#216,.T.);
#117=CYLINDRICAL_SURFACE('',#217,4.99999999999999);
#118=FACE_OUTER_BOUND('',#218,.T.);
#119=CYLINDRICAL_SURFACE('',#219,2.5);
#120=FACE_OUTER_BOUND('',#220,.T.);
#121=CYLINDRICAL_SURFACE('',#221,2.5);
#122=FACE_OUTER_BOUND('',#222,.T.);
#123=CYLINDRICAL_SURFACE('',#223,2.5);
#124=FACE_OUTER_BOUND('',#224,.T.);
#125=CYLINDRICAL_SURFACE('',#225,2.5);
#126=FACE_OUTER_BOUND('',#226,.T.);
#127=CYLINDRICAL_SURFACE('',#227,2.5);
#128=FACE_OUTER_BOUND('',#228,.T.);
#129=CYLINDRICAL_SURFACE('',#229,2.5);
#130=FACE_OUTER_BOUND('',#230,.T.);
#131=CYLINDRICAL_SURFACE('',#231,2.5);
#132=FACE_OUTER_BOUND('',#232,.T.);
#133=PLANE('',#233);
#134=FACE_OUTER_BOUND('',#234,.T.);
#135=PLANE('',#235);
#136=FACE_OUTER_BOUND('',#236,.T.);
#137=CONICAL_SURFACE('',#237,2.0,0.0996686524911619);
#138=FACE_OUTER_BOUND('',#238,.T.);
#139=PLANE('',#239);
#140=FACE_OUTER_BOUND('',#240,.T.);
#141=CONICAL_SURFACE('',#241,2.0,0.0996686524911619);
#142=FACE_OUTER_BOUND('',#242,.T.);
#143=PLANE('',#243);
#144=FACE_OUTER_BOUND('',#244,.T.);
#145=PLANE('',#245);
#146=FACE_OUTER_BOUND('',#246,.T.);
#147=PLANE('',#247);
#148=FACE_OUTER_BOUND('',#248,.T.);
#149=PLANE('',#249);
#150=FACE_OUTER_BOUND('',#250,.T.);
#151=PLANE('',#251);
#152=FACE_OUTER_BOUND('',#252,.T.);
#153=PLANE('',#253);
#154=FACE_OUTER_BOUND('',#254,.T.);
#155=PLANE('',#255);
#156=FACE_OUTER_BOUND('',#256,.T.);
#157=PLANE('',#257);
#158=FACE_OUTER_BOUND('',#258,.T.);
#159=PLANE('',#259);
#160=FACE_OUTER_BOUND('',#260,.T.);
#161=PLANE('',#261);
#162=FACE_OUTER_BOUND('',#262,.T.);
#163=PLANE('',#263);
#164=FACE_OUTER_BOUND('',#264,.T.);
#165=PLANE('',#265);
#166=FACE_OUTER_BOUND('',#266,.T.);
#167=PLANE('',#267);
#168=FACE_OUTER_BOUND('',#268,.T.);
#169=PLANE('',#269);
#170=FACE_OUTER_BOUND('',#270,.T.);
#171=PLANE('',#271);
#172=FACE_OUTER_BOUND('',#272,.T.);
#173=PLANE('',#273);
#174=FACE_OUTER_BOUND('',#274,.T.);
#175=PLANE('',#275);
#176=FACE_OUTER_BOUND('',#276,.T.);
#177=PLANE('',#277);
#178=FACE_OUTER_BOUND('',#278,.T.);
#179=PLANE('',#279);
#180=FACE_OUTER_BOUND('',#280,.T.);
#181=CYLINDRICAL_SURFACE('',#281,3.99999999999997);
#182=FACE_OUTER_BOUND('',#282,.T.);
#183=PLANE('',#283);
#184=FACE_OUTER_BOUND('',#284,.T.);
#185=PLANE('',#285);
#186=FACE_OUTER_BOUND('',#286,.T.);
#187=PLANE('',#287);
#188=FACE_OUTER_BOUND('',#288,.T.);
#189=CYLINDRICAL_SURFACE('',#289,3.99999999999998);
#190=FACE_OUTER_BOUND('',#290,.T.);
#191=PLANE('',#291);
#192=FACE_BOUND('',#292,.T.);
#193=FACE_OUTER_BOUND('',#293,.T.);
#194=PLANE('',#294);
#195=EDGE_LOOP('',(#295,#296,#297,#298));
#196=AXIS2_PLACEMENT_3D('',#299,#300,#301);
#197=EDGE_LOOP('',(#302,#303,#304,#305));
#198=AXIS2_PLACEMENT_3D('',#306,#307,#308);
#199=EDGE_LOOP('',(#309,#310,#311,#312,#313,#314));
#200=AXIS2_PLACEMENT_3D('',#315,#316,#317);
#201=EDGE_LOOP('',(#318,#319,#320,#321));
#202=EDGE_LOOP('',(#322,#323,#324,#325,#326,#327,#328));
#203=EDGE_LOOP('',(#329,#330,#331,#332,#333,#334));
#204=EDGE_LOOP('',(#335,#336,#337,#338,#339,#340,#341));
#205=AXIS2_PLACEMENT_3D('',#342,#343,#344);
#206=EDGE_LOOP('',(#345,#346,#347,#348));
#207=AXIS2_PLACEMENT_3D('',#349,#350,#351);
#208=EDGE_LOOP('',(#352,#353,#354,#355));
#209=AXIS2_PLACEMENT_3D('',#356,#357,#358);
#210=EDGE_LOOP('',(#359,#360,#361,#362));
#211=AXIS2_PLACEMENT_3D('',#363,#364,#365);
#212=EDGE_LOOP('',(#366,#367,#368,#369));
#213=AXIS2_PLACEMENT_3D('',#370,#371,#372);
#214=EDGE_LOOP('',(#373,#374,#375,#376));
#215=AXIS2_PLACEMENT_3D('',#377,#378,#379);
#216=EDGE_LOOP('',(#380,#381,#382,#383));
#217=AXIS2_PLACEMENT_3D('',#384,#385,#386);
#218=EDGE_LOOP('',(#387,#388,#389,#390));
#219=AXIS2_PLACEMENT_3D('',#391,#392,#393);
#220=EDGE_LOOP('',(#394,#395,#396,#397));
#221=AXIS2_PLACEMENT_3D('',#398,#399,#400);
#222=EDGE_LOOP('',(#401,#402,#403,#404));
#223=AXIS2_PLACEMENT_3D('',#405,#406,#407);
#224=EDGE_LOOP('',(#408,#409,#410,#411));
#225=AXIS2_PLACEMENT_3D('',#412,#413,#414);
#226=EDGE_LOOP('',(#415,#416,#417,#418));
#227=AXIS2_PLACEMENT_3D('',#419,#420,#421);
#228=EDGE_LOOP('',(#422,#423,#424,#425));
#229=AXIS2_PLACEMENT_3D('',#426,#427,#428);
#230=EDGE_LOOP('',(#429,#430,#431,#432));
#231=AXIS2_PLACEMENT_3D('',#433,#434,#435);
#232=EDGE_LOOP('',(#436,#437,#438,#439));
#233=AXIS2_PLACEMENT_3D('',#440,#441,#442);
#234=EDGE_LOOP('',(#443,#444,#445,#446));
#235=AXIS2_PLACEMENT_3D('',#447,#448,#449);
#236=EDGE_LOOP('',(#450,#451,#452,#453));
#237=AXIS2_PLACEMENT_3D('',#454,#455,#456);
#238=EDGE_LOOP('',(#457,#458,#459,#460));
#239=AXIS2_PLACEMENT_3D('',#461,#462,#463);
#240=EDGE_LOOP('',(#464,#465,#466,#467));
#241=AXIS2_PLACEMENT_3D('',#468,#469,#470);
#242=EDGE_LOOP('',(#471,#472,#473,#474));
#243=AXIS2_PLACEMENT_3D('',#475,#476,#477);
#244=EDGE_LOOP('',(#478,#479,#480,#481));
#245=AXIS2_PLACEMENT_3D('',#482,#483,#484);
#246=EDGE_LOOP('',(#485,#486,#487,#488));
#247=AXIS2_PLACEMENT_3D('',#489,#490,#491);
#248=EDGE_LOOP('',(#492,#493,#494,#495));
#249=AXIS2_PLACEMENT_3D('',#496,#497,#498);
#250=EDGE_LOOP('',(#499,#500,#501,#502,#503,#504));
#251=AXIS2_PLACEMENT_3D('',#505,#506,#507);
#252=EDGE_LOOP('',(#508,#509,#510,#511,#512,#513));
#253=AXIS2_PLACEMENT_3D('',#514,#515,#516);
#254=EDGE_LOOP('',(#517,#518,#519,#520));
#255=AXIS2_PLACEMENT_3D('',#521,#522,#523);
#256=EDGE_LOOP('',(#524,#525,#526,#527));
#257=AXIS2_PLACEMENT_3D('',#528,#529,#530);
#258=EDGE_LOOP('',(#531,#532,#533,#534,#535,#536,#537));
#259=AXIS2_PLACEMENT_3D('',#538,#539,#540);
#260=EDGE_LOOP('',(#541,#542,#543,#544,#545,#546));
#261=AXIS2_PLACEMENT_3D('',#547,#548,#549);
#262=EDGE_LOOP('',(#550,#551,#552,#553,#554,#555));
#263=AXIS2_PLACEMENT_3D('',#556,#557,#558);
#264=EDGE_LOOP('',(#559,#560,#561,#562));
#265=AXIS2_PLACEMENT_3D('',#563,#564,#565);
#266=EDGE_LOOP('',(#566,#567,#568,#569));
#267=AXIS2_PLACEMENT_3D('',#570,#571,#572);
#268=EDGE_LOOP('',(#573,#574,#575,#576,#577,#578));
#269=AXIS2_PLACEMENT_3D('',#579,#580,#581);
#270=EDGE_LOOP('',(#582,#583,#584,#585));
#271=AXIS2_PLACEMENT_3D('',#586,#587,#588);
#272=EDGE_LOOP('',(#589,#590,#591,#592,#593,#594,#595));
#273=AXIS2_PLACEMENT_3D('',#596,#597,#598);
#274=EDGE_LOOP('',(#599,#600,#601,#602));
#275=AXIS2_PLACEMENT_3D('',#603,#604,#605);
#276=EDGE_LOOP('',(#606,#607,#608,#609));
#277=AXIS2_PLACEMENT_3D('',#610,#611,#612);
#278=EDGE_LOOP('',(#613,#614,#615,#616,#617,#618));
#279=AXIS2_PLACEMENT_3D('',#619,#620,#621);
#280=EDGE_LOOP('',(#622,#623,#624,#625));
#281=AXIS2_PLACEMENT_3D('',#626,#627,#628);
#282=EDGE_LOOP('',(#629,#630,#631,#632));
#283=AXIS2_PLACEMENT_3D('',#633,#634,#635);
#284=EDGE_LOOP('',(#636,#637,#638,#639));
#285=AXIS2_PLACEMENT_3D('',#640,#641,#642);
#286=EDGE_LOOP('',(#643,#644,#645,#646));
#287=AXIS2_PLACEMENT_3D('',#647,#648,#649);
#288=EDGE_LOOP('',(#650,#651,#652,#653));
#289=AXIS2_PLACEMENT_3D('',#654,#655,#656);
#290=EDGE_LOOP('',(#657,#658,#659,#660));
#291=AXIS2_PLACEMENT_3D('',#661,#662,#663);
#292=EDGE_LOOP('',(#664,#665,#666,#667,#668,#669));
#293=EDGE_LOOP('',(#670,#671,#672,#673,#674,#675));
#294=AXIS2_PLACEMENT_3D('',#676,#677,#678);
#295=ORIENTED_EDGE('',*,*,#679,.T.);
#296=ORIENTED_EDGE('',*,*,#680,.T.);
#297=ORIENTED_EDGE('',*,*,#681,.F.);
#298=ORIENTED_EDGE('',*,*,#682,.T.);
#299=CARTESIAN_POINT('',(94.95,115.071680119826,-5.04999999999998));
#300=DIRECTION('',(1.48276864724562E-16,-6.12323399573677E-17,-1.0));
#301=DIRECTION('',(-1.0,0.0,-1.48276864724562E-16));
#302=ORIENTED_EDGE('',*,*,#681,.T.);
#303=ORIENTED_EDGE('',*,*,#683,.T.);
#304=ORIENTED_EDGE('',*,*,#684,.F.);
#305=ORIENTED_EDGE('',*,*,#685,.T.);
#306=CARTESIAN_POINT('',(94.95,115.071680119826,-35.0));
#307=DIRECTION('',(-1.0,0.0,0.0));
#308=DIRECTION('',(0.0,0.0,1.0));
#309=ORIENTED_EDGE('',*,*,#686,.T.);
#310=ORIENTED_EDGE('',*,*,#687,.T.);
#311=ORIENTED_EDGE('',*,*,#688,.T.);
#312=ORIENTED_EDGE('',*,*,#689,.F.);
#313=ORIENTED_EDGE('',*,*,#690,.T.);
#314=ORIENTED_EDGE('',*,*,#679,.F.);
#315=CARTESIAN_POINT('',(65.0,115.071680119826,-5.04999999999998));
#316=DIRECTION('',(-1.0,0.0,0.0));
#317=DIRECTION('',(0.0,0.0,1.0));
#318=ORIENTED_EDGE('',*,*,#691,.T.);
#319=ORIENTED_EDGE('',*,*,#692,.F.);
#320=ORIENTED_EDGE('',*,*,#693,.F.);
#321=ORIENTED_EDGE('',*,*,#694,.F.);
#322=ORIENTED_EDGE('',*,*,#695,.T.);
#323=ORIENTED_EDGE('',*,*,#696,.T.);
#324=ORIENTED_EDGE('',*,*,#697,.T.);
#325=ORIENTED_EDGE('',*,*,#689,.T.);
#326=ORIENTED_EDGE('',*,*,#698,.F.);
#327=ORIENTED_EDGE('',*,*,#699,.T.);
#328=ORIENTED_EDGE('',*,*,#700,.F.);
#329=ORIENTED_EDGE('',*,*,#701,.T.);
#330=ORIENTED_EDGE('',*,*,#702,.T.);
#331=ORIENTED_EDGE('',*,*,#703,.T.);
#332=ORIENTED_EDGE('',*,*,#704,.T.);
#333=ORIENTED_EDGE('',*,*,#705,.T.);
#334=ORIENTED_EDGE('',*,*,#706,.T.);
#335=ORIENTED_EDGE('',*,*,#707,.T.);
#336=ORIENTED_EDGE('',*,*,#708,.T.);
#337=ORIENTED_EDGE('',*,*,#709,.F.);
#338=ORIENTED_EDGE('',*,*,#710,.T.);
#339=ORIENTED_EDGE('',*,*,#711,.F.);
#340=ORIENTED_EDGE('',*,*,#712,.T.);
#341=ORIENTED_EDGE('',*,*,#713,.T.);
#342=CARTESIAN_POINT('',(0.0,125.071680119826,-7.65843163613633E-15));
#343=DIRECTION('',(0.0,-1.0,6.12323399573677E-17));
#344=DIRECTION('',(1.0,0.0,0.0));
#345=ORIENTED_EDGE('',*,*,#701,.F.);
#346=ORIENTED_EDGE('',*,*,#714,.F.);
#347=ORIENTED_EDGE('',*,*,#715,.T.);
#348=ORIENTED_EDGE('',*,*,#716,.T.);
#349=CARTESIAN_POINT('',(4.99999999999999,127.571680119826,-100.0));
#350=DIRECTION('',(0.0,-6.12323399573677E-17,-1.0));
#351=DIRECTION('',(0.0,1.0,-6.12323399573677E-17));
#352=ORIENTED_EDGE('',*,*,#706,.F.);
#353=ORIENTED_EDGE('',*,*,#717,.F.);
#354=ORIENTED_EDGE('',*,*,#718,.F.);
#355=ORIENTED_EDGE('',*,*,#714,.T.);
#356=CARTESIAN_POINT('',(4.99999999999999,127.571680119826,-95.0));
#357=DIRECTION('',(0.0,-1.0,6.12323399573677E-17));
#358=DIRECTION('',(0.0,-6.12323399573677E-17,-1.0));
#359=ORIENTED_EDGE('',*,*,#705,.F.);
#360=ORIENTED_EDGE('',*,*,#719,.F.);
#361=ORIENTED_EDGE('',*,*,#720,.T.);
#362=ORIENTED_EDGE('',*,*,#717,.T.);
#363=CARTESIAN_POINT('',(1.4210854715202E-14,127.571680119826,-7.06085128428748E-16));
#364=DIRECTION('',(-1.0,1.9949837240024E-32,3.25805567024123E-16));
#365=DIRECTION('',(3.25805567024123E-16,0.0,1.0));
#366=ORIENTED_EDGE('',*,*,#704,.F.);
#367=ORIENTED_EDGE('',*,*,#721,.F.);
#368=ORIENTED_EDGE('',*,*,#722,.T.);
#369=ORIENTED_EDGE('',*,*,#719,.T.);
#370=CARTESIAN_POINT('',(100.0,127.571680119826,-2.6067635896535E-15));
#371=DIRECTION('',(0.0,6.12323399573677E-17,1.0));
#372=DIRECTION('',(0.0,-1.0,6.12323399573677E-17));
#373=ORIENTED_EDGE('',*,*,#703,.F.);
#374=ORIENTED_EDGE('',*,*,#723,.F.);
#375=ORIENTED_EDGE('',*,*,#724,.T.);
#376=ORIENTED_EDGE('',*,*,#721,.T.);
#377=CARTESIAN_POINT('',(100.0,127.571680119826,-95.0));
#378=DIRECTION('',(1.0,0.0,-0.0));
#379=DIRECTION('',(-0.0,0.0,-1.0));
#380=ORIENTED_EDGE('',*,*,#702,.F.);
#381=ORIENTED_EDGE('',*,*,#716,.F.);
#382=ORIENTED_EDGE('',*,*,#725,.F.);
#383=ORIENTED_EDGE('',*,*,#723,.T.);
#384=CARTESIAN_POINT('',(95.0,127.571680119826,-95.0));
#385=DIRECTION('',(0.0,-1.0,6.12323399573677E-17));
#386=DIRECTION('',(0.0,-6.12323399573677E-17,-1.0));
#387=ORIENTED_EDGE('',*,*,#726,.F.);
#388=ORIENTED_EDGE('',*,*,#727,.T.);
#389=ORIENTED_EDGE('',*,*,#728,.F.);
#390=ORIENTED_EDGE('',*,*,#699,.F.);
#391=CARTESIAN_POINT('',(94.9499999999999,115.071680119826,-5.04999999999998));
#392=DIRECTION('',(0.0,1.0,-6.12323399573677E-17));
#393=DIRECTION('',(0.0,6.12323399573677E-17,1.0));
#394=ORIENTED_EDGE('',*,*,#729,.F.);
#395=ORIENTED_EDGE('',*,*,#730,.T.);
#396=ORIENTED_EDGE('',*,*,#731,.F.);
#397=ORIENTED_EDGE('',*,*,#710,.F.);
#398=CARTESIAN_POINT('',(5.04999999999997,115.071680119826,-5.04999999999999));
#399=DIRECTION('',(0.0,1.0,-6.12323399573677E-17));
#400=DIRECTION('',(0.0,6.12323399573677E-17,1.0));
#401=ORIENTED_EDGE('',*,*,#732,.F.);
#402=ORIENTED_EDGE('',*,*,#733,.F.);
#403=ORIENTED_EDGE('',*,*,#734,.F.);
#404=ORIENTED_EDGE('',*,*,#691,.F.);
#405=CARTESIAN_POINT('',(0.0,122.571680119826,-92.45));
#406=DIRECTION('',(-1.0,0.0,0.0));
#407=DIRECTION('',(0.0,0.0,1.0));
#408=ORIENTED_EDGE('',*,*,#735,.T.);
#409=ORIENTED_EDGE('',*,*,#736,.F.);
#410=ORIENTED_EDGE('',*,*,#737,.F.);
#411=ORIENTED_EDGE('',*,*,#707,.F.);
#412=CARTESIAN_POINT('',(7.54999999999995,122.571680119826,-4.37077786596569E-15));
#413=DIRECTION('',(-4.15175221228773E-16,6.12323399573677E-17,1.0));
#414=DIRECTION('',(1.0,0.0,4.15175221228773E-16));
#415=ORIENTED_EDGE('',*,*,#738,.F.);
#416=ORIENTED_EDGE('',*,*,#739,.F.);
#417=ORIENTED_EDGE('',*,*,#735,.F.);
#418=ORIENTED_EDGE('',*,*,#713,.F.);
#419=CARTESIAN_POINT('',(1.7911845258727E-15,122.571680119826,-7.55));
#420=DIRECTION('',(1.0,1.45269430218032E-32,2.37242983559299E-16));
#421=DIRECTION('',(2.37242983559299E-16,0.0,-1.0));
#422=ORIENTED_EDGE('',*,*,#740,.F.);
#423=ORIENTED_EDGE('',*,*,#683,.F.);
#424=ORIENTED_EDGE('',*,*,#741,.T.);
#425=ORIENTED_EDGE('',*,*,#696,.F.);
#426=CARTESIAN_POINT('',(92.45,122.571680119826,-7.50535078624291E-15));
#427=DIRECTION('',(0.0,-6.12323399573677E-17,-1.0));
#428=DIRECTION('',(0.0,1.0,-6.12323399573677E-17));
#429=ORIENTED_EDGE('',*,*,#690,.F.);
#430=ORIENTED_EDGE('',*,*,#697,.F.);
#431=ORIENTED_EDGE('',*,*,#741,.F.);
#432=ORIENTED_EDGE('',*,*,#680,.F.);
#433=CARTESIAN_POINT('',(1.11949032867044E-15,122.571680119826,-7.55));
#434=DIRECTION('',(1.0,9.07933938862699E-33,1.48276864724562E-16));
#435=DIRECTION('',(1.48276864724562E-16,0.0,-1.0));
#436=ORIENTED_EDGE('',*,*,#742,.F.);
#437=ORIENTED_EDGE('',*,*,#743,.F.);
#438=ORIENTED_EDGE('',*,*,#744,.F.);
#439=ORIENTED_EDGE('',*,*,#745,.F.);
#440=CARTESIAN_POINT('',(3.06505531621543E-14,115.071680119826,-96.95));
#441=DIRECTION('',(3.14579064433748E-16,-0.0995037190209992,-0.995037190209989));
#442=DIRECTION('',(-1.0,-2.42643968104734E-32,-3.16148047056774E-16));
#443=ORIENTED_EDGE('',*,*,#746,.T.);
#444=ORIENTED_EDGE('',*,*,#747,.F.);
#445=ORIENTED_EDGE('',*,*,#748,.F.);
#446=ORIENTED_EDGE('',*,*,#749,.F.);
#447=CARTESIAN_POINT('',(3.04999999999997,115.071680119826,-6.533050626698E-15));
#448=DIRECTION('',(-0.995037190209989,-0.0995037190209988,-1.61287942166467E-16));
#449=DIRECTION('',(-1.6821560979169E-16,6.12323399573677E-17,1.0));
#450=ORIENTED_EDGE('',*,*,#750,.T.);
#451=ORIENTED_EDGE('',*,*,#730,.F.);
#452=ORIENTED_EDGE('',*,*,#746,.F.);
#453=ORIENTED_EDGE('',*,*,#751,.F.);
#454=CARTESIAN_POINT('',(5.04999999999997,115.071680119826,-5.04999999999999));
#455=DIRECTION('',(-0.0,1.0,0.0));
#456=DIRECTION('',(0.0,-0.0,1.0));
#457=ORIENTED_EDGE('',*,*,#752,.F.);
#458=ORIENTED_EDGE('',*,*,#753,.F.);
#459=ORIENTED_EDGE('',*,*,#750,.F.);
#460=ORIENTED_EDGE('',*,*,#754,.F.);
#461=CARTESIAN_POINT('',(5.56632365770967E-16,115.071680119826,-3.04999999999999));
#462=DIRECTION('',(-1.81596690234978E-16,-0.0995037190209987,0.995037190209989));
#463=DIRECTION('',(1.0,1.36280059768591E-32,1.82502415006875E-16));
#464=ORIENTED_EDGE('',*,*,#755,.T.);
#465=ORIENTED_EDGE('',*,*,#727,.F.);
#466=ORIENTED_EDGE('',*,*,#756,.T.);
#467=ORIENTED_EDGE('',*,*,#757,.F.);
#468=CARTESIAN_POINT('',(94.9499999999999,115.071680119826,-5.04999999999998));
#469=DIRECTION('',(-0.0,1.0,0.0));
#470=DIRECTION('',(0.0,-0.0,1.0));
#471=ORIENTED_EDGE('',*,*,#687,.F.);
#472=ORIENTED_EDGE('',*,*,#758,.F.);
#473=ORIENTED_EDGE('',*,*,#756,.F.);
#474=ORIENTED_EDGE('',*,*,#759,.F.);
#475=CARTESIAN_POINT('',(5.56632365770967E-16,115.071680119826,-3.04999999999999));
#476=DIRECTION('',(-1.81596690234978E-16,-0.0995037190209987,0.995037190209989));
#477=DIRECTION('',(1.0,1.36280059768591E-32,1.82502415006875E-16));
#478=ORIENTED_EDGE('',*,*,#760,.F.);
#479=ORIENTED_EDGE('',*,*,#761,.F.);
#480=ORIENTED_EDGE('',*,*,#755,.F.);
#481=ORIENTED_EDGE('',*,*,#762,.F.);
#482=CARTESIAN_POINT('',(96.9499999999999,115.071680119826,2.27751550673082E-14));
#483=DIRECTION('',(0.995037190209989,-0.0995037190209985,3.1216057166044E-16));
#484=DIRECTION('',(3.07594257904805E-16,-6.12323399573676E-17,-1.0));
#485=ORIENTED_EDGE('',*,*,#763,.T.);
#486=ORIENTED_EDGE('',*,*,#736,.T.);
#487=ORIENTED_EDGE('',*,*,#764,.F.);
#488=ORIENTED_EDGE('',*,*,#765,.T.);
#489=CARTESIAN_POINT('',(5.04999999999996,115.071680119826,-5.05));
#490=DIRECTION('',(1.0,2.54221502881556E-32,4.15175221228773E-16));
#491=DIRECTION('',(4.15175221228773E-16,0.0,-1.0));
#492=ORIENTED_EDGE('',*,*,#764,.T.);
#493=ORIENTED_EDGE('',*,*,#739,.T.);
#494=ORIENTED_EDGE('',*,*,#766,.F.);
#495=ORIENTED_EDGE('',*,*,#767,.T.);
#496=CARTESIAN_POINT('',(35.0,115.071680119826,-5.04999999999999));
#497=DIRECTION('',(2.37242983559299E-16,-6.12323399573677E-17,-1.0));
#498=DIRECTION('',(-1.0,0.0,-2.37242983559299E-16));
#499=ORIENTED_EDGE('',*,*,#768,.T.);
#500=ORIENTED_EDGE('',*,*,#748,.T.);
#501=ORIENTED_EDGE('',*,*,#769,.T.);
#502=ORIENTED_EDGE('',*,*,#708,.F.);
#503=ORIENTED_EDGE('',*,*,#737,.T.);
#504=ORIENTED_EDGE('',*,*,#763,.F.);
#505=CARTESIAN_POINT('',(5.04999999999997,115.071680119826,-35.0));
#506=DIRECTION('',(0.0,-6.12323399573677E-17,-1.0));
#507=DIRECTION('',(0.0,1.0,-6.12323399573677E-17));
#508=ORIENTED_EDGE('',*,*,#770,.F.);
#509=ORIENTED_EDGE('',*,*,#752,.T.);
#510=ORIENTED_EDGE('',*,*,#771,.T.);
#511=ORIENTED_EDGE('',*,*,#766,.T.);
#512=ORIENTED_EDGE('',*,*,#738,.T.);
#513=ORIENTED_EDGE('',*,*,#712,.F.);
#514=CARTESIAN_POINT('',(35.0,115.071680119826,-2.54999999999999));
#515=DIRECTION('',(1.0,0.0,0.0));
#516=DIRECTION('',(0.0,0.0,-1.0));
#517=ORIENTED_EDGE('',*,*,#731,.T.);
#518=ORIENTED_EDGE('',*,*,#753,.T.);
#519=ORIENTED_EDGE('',*,*,#770,.T.);
#520=ORIENTED_EDGE('',*,*,#711,.T.);
#521=CARTESIAN_POINT('',(97.4499999999999,115.071680119826,-2.54999999999998));
#522=DIRECTION('',(1.82502415006875E-16,-6.12323399573677E-17,-1.0));
#523=DIRECTION('',(-1.0,0.0,-1.82502415006875E-16));
#524=ORIENTED_EDGE('',*,*,#769,.F.);
#525=ORIENTED_EDGE('',*,*,#747,.T.);
#526=ORIENTED_EDGE('',*,*,#729,.T.);
#527=ORIENTED_EDGE('',*,*,#709,.T.);
#528=CARTESIAN_POINT('',(2.54999999999997,115.071680119826,-2.54999999999999));
#529=DIRECTION('',(1.0,1.03002354049007E-32,1.6821560979169E-16));
#530=DIRECTION('',(1.6821560979169E-16,0.0,-1.0));
#531=ORIENTED_EDGE('',*,*,#751,.T.);
#532=ORIENTED_EDGE('',*,*,#749,.T.);
#533=ORIENTED_EDGE('',*,*,#768,.F.);
#534=ORIENTED_EDGE('',*,*,#765,.F.);
#535=ORIENTED_EDGE('',*,*,#767,.F.);
#536=ORIENTED_EDGE('',*,*,#771,.F.);
#537=ORIENTED_EDGE('',*,*,#754,.T.);
#538=CARTESIAN_POINT('',(0.0,115.071680119826,-7.04610823656265E-15));
#539=DIRECTION('',(0.0,-1.0,6.12323399573677E-17));
#540=DIRECTION('',(1.0,0.0,0.0));
#541=ORIENTED_EDGE('',*,*,#772,.F.);
#542=ORIENTED_EDGE('',*,*,#773,.T.);
#543=ORIENTED_EDGE('',*,*,#774,.F.);
#544=ORIENTED_EDGE('',*,*,#775,.T.);
#545=ORIENTED_EDGE('',*,*,#776,.F.);
#546=ORIENTED_EDGE('',*,*,#777,.T.);
#547=CARTESIAN_POINT('',(0.0,127.571680119826,-7.81151248602975E-15));
#548=DIRECTION('',(0.0,-1.0,6.12323399573677E-17));
#549=DIRECTION('',(1.0,0.0,0.0));
#550=ORIENTED_EDGE('',*,*,#778,.F.);
#551=ORIENTED_EDGE('',*,*,#744,.T.);
#552=ORIENTED_EDGE('',*,*,#779,.T.);
#553=ORIENTED_EDGE('',*,*,#692,.T.);
#554=ORIENTED_EDGE('',*,*,#734,.T.);
#555=ORIENTED_EDGE('',*,*,#780,.F.);
#556=CARTESIAN_POINT('',(79.95,115.071680119826,-97.45));
#557=DIRECTION('',(-1.0,0.0,0.0));
#558=DIRECTION('',(0.0,0.0,1.0));
#559=ORIENTED_EDGE('',*,*,#781,.T.);
#560=ORIENTED_EDGE('',*,*,#745,.T.);
#561=ORIENTED_EDGE('',*,*,#778,.T.);
#562=ORIENTED_EDGE('',*,*,#782,.F.);
#563=CARTESIAN_POINT('',(0.0,115.071680119826,-7.04610823656265E-15));
#564=DIRECTION('',(0.0,-1.0,6.12323399573677E-17));
#565=DIRECTION('',(1.0,0.0,0.0));
#566=ORIENTED_EDGE('',*,*,#779,.F.);
#567=ORIENTED_EDGE('',*,*,#743,.T.);
#568=ORIENTED_EDGE('',*,*,#783,.T.);
#569=ORIENTED_EDGE('',*,*,#693,.T.);
#570=CARTESIAN_POINT('',(5.05,115.071680119826,-97.45));
#571=DIRECTION('',(-3.16148047056774E-16,6.12323399573677E-17,1.0));
#572=DIRECTION('',(1.0,0.0,3.16148047056774E-16));
#573=ORIENTED_EDGE('',*,*,#783,.F.);
#574=ORIENTED_EDGE('',*,*,#742,.T.);
#575=ORIENTED_EDGE('',*,*,#781,.F.);
#576=ORIENTED_EDGE('',*,*,#784,.T.);
#577=ORIENTED_EDGE('',*,*,#732,.T.);
#578=ORIENTED_EDGE('',*,*,#694,.T.);
#579=CARTESIAN_POINT('',(20.05,115.071680119826,-94.95));
#580=DIRECTION('',(1.0,0.0,0.0));
#581=DIRECTION('',(0.0,0.0,-1.0));
#582=ORIENTED_EDGE('',*,*,#780,.T.);
#583=ORIENTED_EDGE('',*,*,#733,.T.);
#584=ORIENTED_EDGE('',*,*,#784,.F.);
#585=ORIENTED_EDGE('',*,*,#782,.T.);
#586=CARTESIAN_POINT('',(50.0,115.071680119826,-94.95));
#587=DIRECTION('',(-0.0,6.12323399573677E-17,1.0));
#588=DIRECTION('',(0.0,-1.0,6.12323399573677E-17));
#589=ORIENTED_EDGE('',*,*,#785,.F.);
#590=ORIENTED_EDGE('',*,*,#762,.T.);
#591=ORIENTED_EDGE('',*,*,#757,.T.);
#592=ORIENTED_EDGE('',*,*,#758,.T.);
#593=ORIENTED_EDGE('',*,*,#686,.F.);
#594=ORIENTED_EDGE('',*,*,#682,.F.);
#595=ORIENTED_EDGE('',*,*,#685,.F.);
#596=CARTESIAN_POINT('',(0.0,115.071680119826,-7.04610823656265E-15));
#597=DIRECTION('',(0.0,-1.0,6.12323399573677E-17));
#598=DIRECTION('',(1.0,0.0,0.0));
#599=ORIENTED_EDGE('',*,*,#688,.F.);
#600=ORIENTED_EDGE('',*,*,#759,.T.);
#601=ORIENTED_EDGE('',*,*,#726,.T.);
#602=ORIENTED_EDGE('',*,*,#698,.T.);
#603=CARTESIAN_POINT('',(97.4499999999999,115.071680119826,-2.54999999999998));
#604=DIRECTION('',(1.82502415006875E-16,-6.12323399573677E-17,-1.0));
#605=DIRECTION('',(-1.0,0.0,-1.82502415006875E-16));
#606=ORIENTED_EDGE('',*,*,#728,.T.);
#607=ORIENTED_EDGE('',*,*,#761,.T.);
#608=ORIENTED_EDGE('',*,*,#786,.T.);
#609=ORIENTED_EDGE('',*,*,#700,.T.);
#610=CARTESIAN_POINT('',(97.45,115.071680119826,-94.95));
#611=DIRECTION('',(-1.0,-1.88347161689613E-32,-3.07594257904805E-16));
#612=DIRECTION('',(-3.07594257904805E-16,0.0,1.0));
#613=ORIENTED_EDGE('',*,*,#786,.F.);
#614=ORIENTED_EDGE('',*,*,#760,.T.);
#615=ORIENTED_EDGE('',*,*,#785,.T.);
#616=ORIENTED_EDGE('',*,*,#684,.T.);
#617=ORIENTED_EDGE('',*,*,#740,.T.);
#618=ORIENTED_EDGE('',*,*,#695,.F.);
#619=CARTESIAN_POINT('',(97.45,115.071680119826,-35.0));
#620=DIRECTION('',(0.0,-6.12323399573677E-17,-1.0));
#621=DIRECTION('',(0.0,1.0,-6.12323399573677E-17));
#622=ORIENTED_EDGE('',*,*,#773,.F.);
#623=ORIENTED_EDGE('',*,*,#787,.F.);
#624=ORIENTED_EDGE('',*,*,#788,.T.);
#625=ORIENTED_EDGE('',*,*,#789,.T.);
#626=CARTESIAN_POINT('',(95.0,128.571680119826,-95.0));
#627=DIRECTION('',(0.0,-1.0,6.12323399573677E-17));
#628=DIRECTION('',(0.0,-6.12323399573677E-17,-1.0));
#629=ORIENTED_EDGE('',*,*,#772,.T.);
#630=ORIENTED_EDGE('',*,*,#790,.F.);
#631=ORIENTED_EDGE('',*,*,#791,.F.);
#632=ORIENTED_EDGE('',*,*,#787,.T.);
#633=CARTESIAN_POINT('',(99.0,128.571680119826,-95.0));
#634=DIRECTION('',(1.0,9.25706262772351E-33,1.51179305480872E-16));
#635=DIRECTION('',(1.51179305480872E-16,0.0,-1.0));
#636=ORIENTED_EDGE('',*,*,#777,.F.);
#637=ORIENTED_EDGE('',*,*,#792,.F.);
#638=ORIENTED_EDGE('',*,*,#793,.T.);
#639=ORIENTED_EDGE('',*,*,#790,.T.);
#640=CARTESIAN_POINT('',(1.00000000000001,128.571680119826,-1.0));
#641=DIRECTION('',(0.0,-6.12323399573677E-17,-1.0));
#642=DIRECTION('',(0.0,1.0,-6.12323399573677E-17));
#643=ORIENTED_EDGE('',*,*,#776,.T.);
#644=ORIENTED_EDGE('',*,*,#794,.F.);
#645=ORIENTED_EDGE('',*,*,#795,.F.);
#646=ORIENTED_EDGE('',*,*,#792,.T.);
#647=CARTESIAN_POINT('',(1.00000000000001,128.571680119826,-1.0));
#648=DIRECTION('',(-1.0,1.1282045077538E-32,1.84249778554813E-16));
#649=DIRECTION('',(1.84249778554813E-16,0.0,1.0));
#650=ORIENTED_EDGE('',*,*,#775,.F.);
#651=ORIENTED_EDGE('',*,*,#796,.F.);
#652=ORIENTED_EDGE('',*,*,#797,.T.);
#653=ORIENTED_EDGE('',*,*,#794,.T.);
#654=CARTESIAN_POINT('',(4.99999999999998,128.571680119826,-95.0));
#655=DIRECTION('',(0.0,-1.0,6.12323399573677E-17));
#656=DIRECTION('',(0.0,-6.12323399573677E-17,-1.0));
#657=ORIENTED_EDGE('',*,*,#774,.T.);
#658=ORIENTED_EDGE('',*,*,#789,.F.);
#659=ORIENTED_EDGE('',*,*,#798,.F.);
#660=ORIENTED_EDGE('',*,*,#796,.T.);
#661=CARTESIAN_POINT('',(4.99999999999998,128.571680119826,-99.0));
#662=DIRECTION('',(1.57898385724467E-16,-6.12323399573677E-17,-1.0));
#663=DIRECTION('',(-1.0,0.0,-1.57898385724467E-16));
#664=ORIENTED_EDGE('',*,*,#788,.F.);
#665=ORIENTED_EDGE('',*,*,#791,.T.);
#666=ORIENTED_EDGE('',*,*,#793,.F.);
#667=ORIENTED_EDGE('',*,*,#795,.T.);
#668=ORIENTED_EDGE('',*,*,#797,.F.);
#669=ORIENTED_EDGE('',*,*,#798,.T.);
#670=ORIENTED_EDGE('',*,*,#715,.F.);
#671=ORIENTED_EDGE('',*,*,#718,.T.);
#672=ORIENTED_EDGE('',*,*,#720,.F.);
#673=ORIENTED_EDGE('',*,*,#722,.F.);
#674=ORIENTED_EDGE('',*,*,#724,.F.);
#675=ORIENTED_EDGE('',*,*,#725,.T.);
#676=CARTESIAN_POINT('',(0.0,128.571680119826,-7.87274482598712E-15));
#677=DIRECTION('',(0.0,1.0,-6.12323399573677E-17));
#678=DIRECTION('',(1.0,0.0,0.0));
#679=EDGE_CURVE('',#799,#800,#801,.T.);
#680=EDGE_CURVE('',#800,#802,#803,.F.);
#681=EDGE_CURVE('',#804,#802,#805,.T.);
#682=EDGE_CURVE('',#804,#799,#806,.T.);
#683=EDGE_CURVE('',#802,#807,#808,.F.);
#684=EDGE_CURVE('',#809,#807,#810,.T.);
#685=EDGE_CURVE('',#809,#804,#811,.T.);
#686=EDGE_CURVE('',#799,#812,#813,.T.);
#687=EDGE_CURVE('',#812,#814,#815,.T.);
#688=EDGE_CURVE('',#814,#816,#817,.T.);
#689=EDGE_CURVE('',#818,#816,#819,.T.);
#690=EDGE_CURVE('',#818,#800,#820,.F.);
#691=EDGE_CURVE('',#821,#822,#823,.T.);
#692=EDGE_CURVE('',#824,#822,#825,.T.);
#693=EDGE_CURVE('',#826,#824,#827,.T.);
#694=EDGE_CURVE('',#821,#826,#828,.T.);
#695=EDGE_CURVE('',#829,#830,#831,.T.);
#696=EDGE_CURVE('',#830,#832,#833,.T.);
#697=EDGE_CURVE('',#832,#818,#834,.T.);
#698=EDGE_CURVE('',#835,#816,#836,.T.);
#699=EDGE_CURVE('',#835,#837,#838,.F.);
#700=EDGE_CURVE('',#829,#837,#839,.T.);
#701=EDGE_CURVE('',#840,#841,#842,.T.);
#702=EDGE_CURVE('',#841,#843,#844,.T.);
#703=EDGE_CURVE('',#843,#845,#846,.T.);
#704=EDGE_CURVE('',#845,#847,#848,.T.);
#705=EDGE_CURVE('',#847,#849,#850,.T.);
#706=EDGE_CURVE('',#849,#840,#851,.T.);
#707=EDGE_CURVE('',#852,#853,#854,.T.);
#708=EDGE_CURVE('',#853,#855,#856,.T.);
#709=EDGE_CURVE('',#857,#855,#858,.T.);
#710=EDGE_CURVE('',#857,#859,#860,.F.);
#711=EDGE_CURVE('',#861,#859,#862,.T.);
#712=EDGE_CURVE('',#861,#863,#864,.T.);
#713=EDGE_CURVE('',#863,#852,#865,.T.);
#714=EDGE_CURVE('',#866,#840,#867,.T.);
#715=EDGE_CURVE('',#866,#868,#869,.T.);
#716=EDGE_CURVE('',#868,#841,#870,.T.);
#717=EDGE_CURVE('',#871,#849,#872,.T.);
#718=EDGE_CURVE('',#866,#871,#873,.T.);
#719=EDGE_CURVE('',#874,#847,#875,.T.);
#720=EDGE_CURVE('',#874,#871,#876,.T.);
#721=EDGE_CURVE('',#877,#845,#878,.T.);
#722=EDGE_CURVE('',#877,#874,#879,.T.);
#723=EDGE_CURVE('',#880,#843,#881,.T.);
#724=EDGE_CURVE('',#880,#877,#882,.T.);
#725=EDGE_CURVE('',#880,#868,#883,.T.);
#726=EDGE_CURVE('',#884,#835,#885,.T.);
#727=EDGE_CURVE('',#884,#886,#887,.F.);
#728=EDGE_CURVE('',#837,#886,#888,.F.);
#729=EDGE_CURVE('',#889,#857,#890,.T.);
#730=EDGE_CURVE('',#889,#891,#892,.F.);
#731=EDGE_CURVE('',#859,#891,#893,.F.);
#732=EDGE_CURVE('',#894,#821,#895,.T.);
#733=EDGE_CURVE('',#896,#894,#897,.F.);
#734=EDGE_CURVE('',#822,#896,#898,.T.);
#735=EDGE_CURVE('',#852,#899,#900,.T.);
#736=EDGE_CURVE('',#901,#899,#902,.F.);
#737=EDGE_CURVE('',#853,#901,#903,.F.);
#738=EDGE_CURVE('',#904,#863,#905,.F.);
#739=EDGE_CURVE('',#899,#904,#906,.F.);
#740=EDGE_CURVE('',#807,#830,#907,.F.);
#741=EDGE_CURVE('',#802,#832,#908,.F.);
#742=EDGE_CURVE('',#909,#910,#911,.T.);
#743=EDGE_CURVE('',#912,#909,#913,.T.);
#744=EDGE_CURVE('',#914,#912,#915,.T.);
#745=EDGE_CURVE('',#910,#914,#916,.T.);
#746=EDGE_CURVE('',#917,#889,#918,.T.);
#747=EDGE_CURVE('',#919,#889,#920,.T.);
#748=EDGE_CURVE('',#921,#919,#922,.T.);
#749=EDGE_CURVE('',#917,#921,#923,.T.);
#750=EDGE_CURVE('',#924,#891,#925,.T.);
#751=EDGE_CURVE('',#924,#917,#926,.T.);
#752=EDGE_CURVE('',#927,#928,#929,.T.);
#753=EDGE_CURVE('',#891,#927,#930,.T.);
#754=EDGE_CURVE('',#928,#924,#931,.T.);
#755=EDGE_CURVE('',#932,#886,#933,.T.);
#756=EDGE_CURVE('',#884,#934,#935,.T.);
#757=EDGE_CURVE('',#932,#934,#936,.T.);
#758=EDGE_CURVE('',#934,#812,#937,.T.);
#759=EDGE_CURVE('',#814,#884,#938,.T.);
#760=EDGE_CURVE('',#939,#940,#941,.T.);
#761=EDGE_CURVE('',#886,#939,#942,.T.);
#762=EDGE_CURVE('',#940,#932,#943,.T.);
#763=EDGE_CURVE('',#944,#901,#945,.T.);
#764=EDGE_CURVE('',#946,#899,#947,.T.);
#765=EDGE_CURVE('',#946,#944,#948,.T.);
#766=EDGE_CURVE('',#949,#904,#950,.T.);
#767=EDGE_CURVE('',#949,#946,#951,.T.);
#768=EDGE_CURVE('',#944,#921,#952,.T.);
#769=EDGE_CURVE('',#919,#855,#953,.T.);
#770=EDGE_CURVE('',#927,#861,#954,.T.);
#771=EDGE_CURVE('',#928,#949,#955,.T.);
#772=EDGE_CURVE('',#956,#957,#958,.T.);
#773=EDGE_CURVE('',#956,#959,#960,.T.);
#774=EDGE_CURVE('',#961,#959,#962,.T.);
#775=EDGE_CURVE('',#961,#963,#964,.T.);
#776=EDGE_CURVE('',#965,#963,#966,.T.);
#777=EDGE_CURVE('',#965,#957,#967,.T.);
#778=EDGE_CURVE('',#914,#968,#969,.T.);
#779=EDGE_CURVE('',#912,#824,#970,.T.);
#780=EDGE_CURVE('',#968,#896,#971,.T.);
#781=EDGE_CURVE('',#972,#910,#973,.T.);
#782=EDGE_CURVE('',#972,#968,#974,.T.);
#783=EDGE_CURVE('',#909,#826,#975,.T.);
#784=EDGE_CURVE('',#972,#894,#976,.T.);
#785=EDGE_CURVE('',#940,#809,#977,.T.);
#786=EDGE_CURVE('',#939,#829,#978,.T.);
#787=EDGE_CURVE('',#979,#956,#980,.T.);
#788=EDGE_CURVE('',#979,#981,#982,.T.);
#789=EDGE_CURVE('',#981,#959,#983,.T.);
#790=EDGE_CURVE('',#984,#957,#985,.T.);
#791=EDGE_CURVE('',#979,#984,#986,.T.);
#792=EDGE_CURVE('',#987,#965,#988,.T.);
#793=EDGE_CURVE('',#987,#984,#989,.T.);
#794=EDGE_CURVE('',#990,#963,#991,.T.);
#795=EDGE_CURVE('',#987,#990,#992,.T.);
#796=EDGE_CURVE('',#993,#961,#994,.T.);
#797=EDGE_CURVE('',#993,#990,#995,.T.);
#798=EDGE_CURVE('',#993,#981,#996,.T.);
#799=VERTEX_POINT('',#997);
#800=VERTEX_POINT('',#998);
#801=LINE('',#999,#1000);
#802=VERTEX_POINT('',#1001);
#803=LINE('',#1002,#1003);
#804=VERTEX_POINT('',#1004);
#805=LINE('',#1005,#1006);
#806=LINE('',#1007,#1008);
#807=VERTEX_POINT('',#1009);
#808=LINE('',#1010,#1011);
#809=VERTEX_POINT('',#1012);
#810=LINE('',#1013,#1014);
#811=LINE('',#1015,#1016);
#812=VERTEX_POINT('',#1017);
#813=LINE('',#1018,#1019);
#814=VERTEX_POINT('',#1020);
#815=LINE('',#1021,#1022);
#816=VERTEX_POINT('',#1023);
#817=LINE('',#1024,#1025);
#818=VERTEX_POINT('',#1026);
#819=LINE('',#1027,#1028);
#820=CIRCLE('',#1029,2.5);
#821=VERTEX_POINT('',#1030);
#822=VERTEX_POINT('',#1031);
#823=LINE('',#1032,#1033);
#824=VERTEX_POINT('',#1034);
#825=LINE('',#1035,#1036);
#826=VERTEX_POINT('',#1037);
#827=LINE('',#1038,#1039);
#828=LINE('',#1040,#1041);
#829=VERTEX_POINT('',#1042);
#830=VERTEX_POINT('',#1043);
#831=LINE('',#1044,#1045);
#832=VERTEX_POINT('',#1046);
#833=LINE('',#1047,#1048);
#834=LINE('',#1049,#1050);
#835=VERTEX_POINT('',#1051);
#836=LINE('',#1052,#1053);
#837=VERTEX_POINT('',#1054);
#838=CIRCLE('',#1055,2.5);
#839=LINE('',#1056,#1057);
#840=VERTEX_POINT('',#1058);
#841=VERTEX_POINT('',#1059);
#842=LINE('',#1060,#1061);
#843=VERTEX_POINT('',#1062);
#844=CIRCLE('',#1063,4.99999999999999);
#845=VERTEX_POINT('',#1064);
#846=LINE('',#1065,#1066);
#847=VERTEX_POINT('',#1067);
#848=LINE('',#1068,#1069);
#849=VERTEX_POINT('',#1070);
#850=LINE('',#1071,#1072);
#851=CIRCLE('',#1073,5.0);
#852=VERTEX_POINT('',#1074);
#853=VERTEX_POINT('',#1075);
#854=LINE('',#1076,#1077);
#855=VERTEX_POINT('',#1078);
#856=LINE('',#1079,#1080);
#857=VERTEX_POINT('',#1081);
#858=LINE('',#1082,#1083);
#859=VERTEX_POINT('',#1084);
#860=CIRCLE('',#1085,2.5);
#861=VERTEX_POINT('',#1086);
#862=LINE('',#1087,#1088);
#863=VERTEX_POINT('',#1089);
#864=LINE('',#1090,#1091);
#865=LINE('',#1092,#1093);
#866=VERTEX_POINT('',#1094);
#867=LINE('',#1095,#1096);
#868=VERTEX_POINT('',#1097);
#869=LINE('',#1098,#1099);
#870=LINE('',#1100,#1101);
#871=VERTEX_POINT('',#1102);
#872=LINE('',#1103,#1104);
#873=CIRCLE('',#1105,4.99999999999999);
#874=VERTEX_POINT('',#1106);
#875=LINE('',#1107,#1108);
#876=LINE('',#1109,#1110);
#877=VERTEX_POINT('',#1111);
#878=LINE('',#1112,#1113);
#879=LINE('',#1114,#1115);
#880=VERTEX_POINT('',#1116);
#881=LINE('',#1117,#1118);
#882=LINE('',#1119,#1120);
#883=CIRCLE('',#1121,4.99999999999996);
#884=VERTEX_POINT('',#1122);
#885=LINE('',#1123,#1124);
#886=VERTEX_POINT('',#1125);
#887=CIRCLE('',#1126,2.5);
#888=LINE('',#1127,#1128);
#889=VERTEX_POINT('',#1129);
#890=LINE('',#1130,#1131);
#891=VERTEX_POINT('',#1132);
#892=CIRCLE('',#1133,2.5);
#893=LINE('',#1134,#1135);
#894=VERTEX_POINT('',#1136);
#895=CIRCLE('',#1137,2.5);
#896=VERTEX_POINT('',#1138);
#897=LINE('',#1139,#1140);
#898=CIRCLE('',#1141,2.5);
#899=VERTEX_POINT('',#1142);
#900=ELLIPSE('',#1143,3.53553390593274,2.5);
#901=VERTEX_POINT('',#1144);
#902=LINE('',#1145,#1146);
#903=CIRCLE('',#1147,2.5);
#904=VERTEX_POINT('',#1148);
#905=CIRCLE('',#1149,2.5);
#906=LINE('',#1150,#1151);
#907=CIRCLE('',#1152,2.5);
#908=ELLIPSE('',#1153,3.53553390593274,2.5);
#909=VERTEX_POINT('',#1154);
#910=VERTEX_POINT('',#1155);
#911=LINE('',#1156,#1157);
#912=VERTEX_POINT('',#1158);
#913=LINE('',#1159,#1160);
#914=VERTEX_POINT('',#1161);
#915=LINE('',#1162,#1163);
#916=LINE('',#1164,#1165);
#917=VERTEX_POINT('',#1166);
#918=LINE('',#1167,#1168);
#919=VERTEX_POINT('',#1169);
#920=LINE('',#1170,#1171);
#921=VERTEX_POINT('',#1172);
#922=LINE('',#1173,#1174);
#923=LINE('',#1175,#1176);
#924=VERTEX_POINT('',#1177);
#925=LINE('',#1178,#1179);
#926=CIRCLE('',#1180,2.0);
#927=VERTEX_POINT('',#1181);
#928=VERTEX_POINT('',#1182);
#929=LINE('',#1183,#1184);
#930=LINE('',#1185,#1186);
#931=LINE('',#1187,#1188);
#932=VERTEX_POINT('',#1189);
#933=LINE('',#1190,#1191);
#934=VERTEX_POINT('',#1192);
#935=LINE('',#1193,#1194);
#936=CIRCLE('',#1195,2.0);
#937=LINE('',#1196,#1197);
#938=LINE('',#1198,#1199);
#939=VERTEX_POINT('',#1200);
#940=VERTEX_POINT('',#1201);
#941=LINE('',#1202,#1203);
#942=LINE('',#1204,#1205);
#943=LINE('',#1206,#1207);
#944=VERTEX_POINT('',#1208);
#945=LINE('',#1209,#1210);
#946=VERTEX_POINT('',#1211);
#947=LINE('',#1212,#1213);
#948=LINE('',#1214,#1215);
#949=VERTEX_POINT('',#1216);
#950=LINE('',#1217,#1218);
#951=LINE('',#1219,#1220);
#952=LINE('',#1221,#1222);
#953=LINE('',#1223,#1224);
#954=LINE('',#1225,#1226);
#955=LINE('',#1227,#1228);
#956=VERTEX_POINT('',#1229);
#957=VERTEX_POINT('',#1230);
#958=LINE('',#1231,#1232);
#959=VERTEX_POINT('',#1233);
#960=CIRCLE('',#1234,3.99999999999997);
#961=VERTEX_POINT('',#1235);
#962=LINE('',#1236,#1237);
#963=VERTEX_POINT('',#1238);
#964=CIRCLE('',#1239,3.99999999999998);
#965=VERTEX_POINT('',#1240);
#966=LINE('',#1241,#1242);
#967=LINE('',#1243,#1244);
#968=VERTEX_POINT('',#1245);
#969=LINE('',#1246,#1247);
#970=LINE('',#1248,#1249);
#971=LINE('',#1250,#1251);
#972=VERTEX_POINT('',#1252);
#973=LINE('',#1253,#1254);
#974=LINE('',#1255,#1256);
#975=LINE('',#1257,#1258);
#976=LINE('',#1259,#1260);
#977=LINE('',#1261,#1262);
#978=LINE('',#1263,#1264);
#979=VERTEX_POINT('',#1265);
#980=LINE('',#1266,#1267);
#981=VERTEX_POINT('',#1268);
#982=CIRCLE('',#1269,3.99999999999997);
#983=LINE('',#1270,#1271);
#984=VERTEX_POINT('',#1272);
#985=LINE('',#1273,#1274);
#986=LINE('',#1275,#1276);
#987=VERTEX_POINT('',#1277);
#988=LINE('',#1278,#1279);
#989=LINE('',#1280,#1281);
#990=VERTEX_POINT('',#1282);
#991=LINE('',#1283,#1284);
#992=LINE('',#1285,#1286);
#993=VERTEX_POINT('',#1287);
#994=LINE('',#1288,#1289);
#995=CIRCLE('',#1290,3.99999999999998);
#996=LINE('',#1291,#1292);
#997=CARTESIAN_POINT('',(65.0,115.071680119826,-5.04999999999998));
#998=CARTESIAN_POINT('',(65.0,122.571680119826,-5.04999999999998));
#999=CARTESIAN_POINT('',(65.0,115.071680119826,-5.04999999999998));
#1000=VECTOR('',#1293,1.0);
#1001=CARTESIAN_POINT('',(94.95,122.571680119826,-5.04999999999998));
#1002=CARTESIAN_POINT('',(94.95,122.571680119826,-5.04999999999998));
#1003=VECTOR('',#1294,1.0);
#1004=CARTESIAN_POINT('',(94.95,115.071680119826,-5.04999999999997));
#1005=CARTESIAN_POINT('',(94.95,115.071680119826,-5.04999999999997));
#1006=VECTOR('',#1295,1.0);
#1007=CARTESIAN_POINT('',(94.95,115.071680119826,-5.04999999999998));
#1008=VECTOR('',#1296,1.0);
#1009=CARTESIAN_POINT('',(94.9499999999999,122.571680119826,-35.0));
#1010=CARTESIAN_POINT('',(94.95,122.571680119826,-35.0));
#1011=VECTOR('',#1297,1.0);
#1012=CARTESIAN_POINT('',(94.9499999999999,115.071680119826,-35.0));
#1013=CARTESIAN_POINT('',(94.9499999999999,115.071680119826,-35.0));
#1014=VECTOR('',#1298,1.0);
#1015=CARTESIAN_POINT('',(94.95,115.071680119826,-35.0));
#1016=VECTOR('',#1299,1.0);
#1017=CARTESIAN_POINT('',(65.0,115.071680119826,-3.04999999999998));
#1018=CARTESIAN_POINT('',(65.0,115.071680119826,-5.04999999999998));
#1019=VECTOR('',#1300,1.0);
#1020=CARTESIAN_POINT('',(65.0,120.071680119826,-2.54999999999998));
#1021=CARTESIAN_POINT('',(65.0,114.873660317846,-3.069801980198));
#1022=VECTOR('',#1301,1.0);
#1023=CARTESIAN_POINT('',(65.0,125.071680119826,-2.54999999999998));
#1024=CARTESIAN_POINT('',(65.0,115.071680119826,-2.54999999999998));
#1025=VECTOR('',#1302,1.0);
#1026=CARTESIAN_POINT('',(65.0,125.071680119826,-7.54999999999999));
#1027=CARTESIAN_POINT('',(65.0,125.071680119826,-5.04999999999998));
#1028=VECTOR('',#1303,1.0);
#1029=AXIS2_PLACEMENT_3D('',#1304,#1305,#1306);
#1030=CARTESIAN_POINT('',(20.05,125.071680119826,-92.45));
#1031=CARTESIAN_POINT('',(79.95,125.071680119826,-92.45));
#1032=CARTESIAN_POINT('',(79.95,125.071680119826,-92.45));
#1033=VECTOR('',#1307,1.0);
#1034=CARTESIAN_POINT('',(79.95,125.071680119826,-97.45));
#1035=CARTESIAN_POINT('',(79.95,125.071680119826,-97.45));
#1036=VECTOR('',#1308,1.0);
#1037=CARTESIAN_POINT('',(20.05,125.071680119826,-97.45));
#1038=CARTESIAN_POINT('',(5.05,125.071680119826,-97.45));
#1039=VECTOR('',#1309,1.0);
#1040=CARTESIAN_POINT('',(20.05,125.071680119826,-94.95));
#1041=VECTOR('',#1310,1.0);
#1042=CARTESIAN_POINT('',(97.45,125.071680119826,-35.0));
#1043=CARTESIAN_POINT('',(92.45,125.071680119826,-35.0));
#1044=CARTESIAN_POINT('',(97.45,125.071680119826,-35.0));
#1045=VECTOR('',#1311,1.0);
#1046=CARTESIAN_POINT('',(92.45,125.071680119826,-7.54999999999998));
#1047=CARTESIAN_POINT('',(92.45,125.071680119826,-5.04999999999998));
#1048=VECTOR('',#1312,1.0);
#1049=CARTESIAN_POINT('',(65.0,125.071680119826,-7.54999999999999));
#1050=VECTOR('',#1313,1.0);
#1051=CARTESIAN_POINT('',(94.9499999999999,125.071680119826,-2.54999999999998));
#1052=CARTESIAN_POINT('',(97.4499999999999,125.071680119826,-2.54999999999998));
#1053=VECTOR('',#1314,1.0);
#1054=CARTESIAN_POINT('',(97.45,125.071680119826,-5.04999999999997));
#1055=AXIS2_PLACEMENT_3D('',#1315,#1316,#1317);
#1056=CARTESIAN_POINT('',(97.45,125.071680119826,-94.95));
#1057=VECTOR('',#1318,1.0);
#1058=CARTESIAN_POINT('',(4.99999999999998,125.071680119826,-100.0));
#1059=CARTESIAN_POINT('',(95.0,125.071680119826,-100.0));
#1060=CARTESIAN_POINT('',(4.99999999999999,125.071680119826,-100.0));
#1061=VECTOR('',#1319,1.0);
#1062=CARTESIAN_POINT('',(100.0,125.071680119826,-95.0));
#1063=AXIS2_PLACEMENT_3D('',#1320,#1321,#1322);
#1064=CARTESIAN_POINT('',(100.0,125.071680119826,-2.45368273976008E-15));
#1065=CARTESIAN_POINT('',(100.0,125.071680119826,-95.0));
#1066=VECTOR('',#1323,1.0);
#1067=CARTESIAN_POINT('',(2.77555756156289E-14,125.071680119826,-2.45368273976008E-15));
#1068=CARTESIAN_POINT('',(100.0,125.071680119826,-2.45368273976008E-15));
#1069=VECTOR('',#1324,1.0);
#1070=CARTESIAN_POINT('',(-1.67406741520897E-14,125.071680119826,-95.0));
#1071=CARTESIAN_POINT('',(1.4210854715202E-14,125.071680119826,-5.53004278535328E-16));
#1072=VECTOR('',#1325,1.0);
#1073=AXIS2_PLACEMENT_3D('',#1326,#1327,#1328);
#1074=CARTESIAN_POINT('',(7.54999999999996,125.071680119826,-7.55));
#1075=CARTESIAN_POINT('',(7.54999999999997,125.071680119826,-35.0));
#1076=CARTESIAN_POINT('',(7.54999999999997,125.071680119826,-35.0));
#1077=VECTOR('',#1329,1.0);
#1078=CARTESIAN_POINT('',(2.54999999999997,125.071680119826,-35.0));
#1079=CARTESIAN_POINT('',(5.04999999999997,125.071680119826,-35.0));
#1080=VECTOR('',#1330,1.0);
#1081=CARTESIAN_POINT('',(2.54999999999997,125.071680119826,-5.04999999999999));
#1082=CARTESIAN_POINT('',(2.54999999999997,125.071680119826,-2.54999999999999));
#1083=VECTOR('',#1331,1.0);
#1084=CARTESIAN_POINT('',(5.04999999999997,125.071680119826,-2.54999999999999));
#1085=AXIS2_PLACEMENT_3D('',#1332,#1333,#1334);
#1086=CARTESIAN_POINT('',(35.0,125.071680119826,-2.54999999999999));
#1087=CARTESIAN_POINT('',(97.4499999999999,125.071680119826,-2.54999999999998));
#1088=VECTOR('',#1335,1.0);
#1089=CARTESIAN_POINT('',(35.0,125.071680119826,-7.54999999999999));
#1090=CARTESIAN_POINT('',(35.0,125.071680119826,-2.54999999999999));
#1091=VECTOR('',#1336,1.0);
#1092=CARTESIAN_POINT('',(5.04999999999995,125.071680119826,-7.55));
#1093=VECTOR('',#1337,1.0);
#1094=CARTESIAN_POINT('',(4.99999999999998,128.571680119826,-100.0));
#1095=CARTESIAN_POINT('',(4.99999999999998,127.571680119826,-100.0));
#1096=VECTOR('',#1338,1.0);
#1097=CARTESIAN_POINT('',(94.9999999999999,128.571680119826,-100.0));
#1098=CARTESIAN_POINT('',(4.99999999999998,128.571680119826,-100.0));
#1099=VECTOR('',#1339,1.0);
#1100=CARTESIAN_POINT('',(95.0,127.571680119826,-100.0));
#1101=VECTOR('',#1340,1.0);
#1102=CARTESIAN_POINT('',(-1.67406741520897E-14,128.571680119826,-95.0));
#1103=CARTESIAN_POINT('',(-1.67406741520897E-14,127.571680119826,-95.0));
#1104=VECTOR('',#1341,1.0);
#1105=AXIS2_PLACEMENT_3D('',#1342,#1343,#1344);
#1106=CARTESIAN_POINT('',(1.4210854715202E-14,128.571680119826,-7.67317468386115E-16));
#1107=CARTESIAN_POINT('',(2.77555756156289E-14,127.571680119826,-2.6067635896535E-15));
#1108=VECTOR('',#1345,1.0);
#1109=CARTESIAN_POINT('',(1.4210854715202E-14,128.571680119826,-7.67317468386115E-16));
#1110=VECTOR('',#1346,1.0);
#1111=CARTESIAN_POINT('',(100.0,128.571680119826,6.00504298182734E-15));
#1112=CARTESIAN_POINT('',(100.0,127.571680119826,-2.6067635896535E-15));
#1113=VECTOR('',#1347,1.0);
#1114=CARTESIAN_POINT('',(100.0,128.571680119826,-2.66799592961086E-15));
#1115=VECTOR('',#1348,1.0);
#1116=CARTESIAN_POINT('',(100.0,128.571680119826,-95.0));
#1117=CARTESIAN_POINT('',(100.0,127.571680119826,-95.0));
#1118=VECTOR('',#1349,1.0);
#1119=CARTESIAN_POINT('',(100.0,128.571680119826,-95.0));
#1120=VECTOR('',#1350,1.0);
#1121=AXIS2_PLACEMENT_3D('',#1351,#1352,#1353);
#1122=CARTESIAN_POINT('',(94.9499999999999,120.071680119826,-2.54999999999998));
#1123=CARTESIAN_POINT('',(94.9499999999999,115.071680119826,-2.54999999999998));
#1124=VECTOR('',#1354,1.0);
#1125=CARTESIAN_POINT('',(97.45,120.071680119826,-5.04999999999997));
#1126=AXIS2_PLACEMENT_3D('',#1355,#1356,#1357);
#1127=CARTESIAN_POINT('',(97.45,115.071680119826,-5.04999999999997));
#1128=VECTOR('',#1358,1.0);
#1129=CARTESIAN_POINT('',(2.54999999999997,120.071680119826,-5.04999999999999));
#1130=CARTESIAN_POINT('',(2.54999999999997,115.071680119826,-5.04999999999999));
#1131=VECTOR('',#1359,1.0);
#1132=CARTESIAN_POINT('',(5.04999999999997,120.071680119826,-2.54999999999999));
#1133=AXIS2_PLACEMENT_3D('',#1360,#1361,#1362);
#1134=CARTESIAN_POINT('',(5.04999999999997,115.071680119826,-2.54999999999999));
#1135=VECTOR('',#1363,1.0);
#1136=CARTESIAN_POINT('',(20.05,122.571680119826,-94.95));
#1137=AXIS2_PLACEMENT_3D('',#1364,#1365,#1366);
#1138=CARTESIAN_POINT('',(79.95,122.571680119826,-94.95));
#1139=CARTESIAN_POINT('',(20.05,122.571680119826,-94.95));
#1140=VECTOR('',#1367,1.0);
#1141=AXIS2_PLACEMENT_3D('',#1368,#1369,#1370);
#1142=CARTESIAN_POINT('',(5.04999999999995,122.571680119826,-5.05));
#1143=AXIS2_PLACEMENT_3D('',#1371,#1372,#1373);
#1144=CARTESIAN_POINT('',(5.04999999999997,122.571680119826,-35.0));
#1145=CARTESIAN_POINT('',(5.04999999999996,122.571680119826,-5.05));
#1146=VECTOR('',#1374,1.0);
#1147=AXIS2_PLACEMENT_3D('',#1375,#1376,#1377);
#1148=CARTESIAN_POINT('',(35.0,122.571680119826,-5.04999999999999));
#1149=AXIS2_PLACEMENT_3D('',#1378,#1379,#1380);
#1150=CARTESIAN_POINT('',(35.0,122.571680119826,-5.04999999999999));
#1151=VECTOR('',#1381,1.0);
#1152=AXIS2_PLACEMENT_3D('',#1382,#1383,#1384);
#1153=AXIS2_PLACEMENT_3D('',#1385,#1386,#1387);
#1154=CARTESIAN_POINT('',(20.05,120.071680119826,-97.45));
#1155=CARTESIAN_POINT('',(20.05,115.071680119826,-96.95));
#1156=CARTESIAN_POINT('',(20.05,115.071680119826,-96.95));
#1157=VECTOR('',#1388,1.0);
#1158=CARTESIAN_POINT('',(79.95,120.071680119826,-97.45));
#1159=CARTESIAN_POINT('',(20.05,120.071680119826,-97.45));
#1160=VECTOR('',#1389,1.0);
#1161=CARTESIAN_POINT('',(79.95,115.071680119826,-96.95));
#1162=CARTESIAN_POINT('',(79.95,115.071680119826,-96.95));
#1163=VECTOR('',#1390,1.0);
#1164=CARTESIAN_POINT('',(79.95,115.071680119826,-96.95));
#1165=VECTOR('',#1391,1.0);
#1166=CARTESIAN_POINT('',(3.04999999999997,115.071680119826,-5.04999999999999));
#1167=CARTESIAN_POINT('',(3.04999999999997,115.071680119826,-5.04999999999999));
#1168=VECTOR('',#1392,1.0);
#1169=CARTESIAN_POINT('',(2.54999999999997,120.071680119826,-35.0));
#1170=CARTESIAN_POINT('',(2.54999999999997,120.071680119826,-5.04999999999999));
#1171=VECTOR('',#1393,1.0);
#1172=CARTESIAN_POINT('',(3.04999999999997,115.071680119826,-35.0));
#1173=CARTESIAN_POINT('',(3.06980198019799,114.873660317846,-35.0));
#1174=VECTOR('',#1394,1.0);
#1175=CARTESIAN_POINT('',(3.04999999999997,115.071680119826,-35.0));
#1176=VECTOR('',#1395,1.0);
#1177=CARTESIAN_POINT('',(5.04999999999997,115.071680119826,-3.04999999999999));
#1178=CARTESIAN_POINT('',(5.04999999999997,115.071680119826,-3.04999999999999));
#1179=VECTOR('',#1396,1.0);
#1180=AXIS2_PLACEMENT_3D('',#1397,#1398,#1399);
#1181=CARTESIAN_POINT('',(35.0,120.071680119826,-2.54999999999999));
#1182=CARTESIAN_POINT('',(35.0,115.071680119826,-3.04999999999999));
#1183=CARTESIAN_POINT('',(35.0,115.121185070321,-3.04504950495048));
#1184=VECTOR('',#1400,1.0);
#1185=CARTESIAN_POINT('',(35.0,120.071680119826,-2.54999999999999));
#1186=VECTOR('',#1401,1.0);
#1187=CARTESIAN_POINT('',(5.04999999999997,115.071680119826,-3.04999999999999));
#1188=VECTOR('',#1402,1.0);
#1189=CARTESIAN_POINT('',(96.9499999999999,115.071680119826,-5.04999999999997));
#1190=CARTESIAN_POINT('',(96.9499999999999,115.071680119826,-5.04999999999997));
#1191=VECTOR('',#1403,1.0);
#1192=CARTESIAN_POINT('',(94.9499999999999,115.071680119826,-3.04999999999998));
#1193=CARTESIAN_POINT('',(94.9499999999999,120.071680119826,-2.54999999999998));
#1194=VECTOR('',#1404,1.0);
#1195=AXIS2_PLACEMENT_3D('',#1405,#1406,#1407);
#1196=CARTESIAN_POINT('',(65.0,115.071680119826,-3.04999999999998));
#1197=VECTOR('',#1408,1.0);
#1198=CARTESIAN_POINT('',(94.9499999999999,120.071680119826,-2.54999999999998));
#1199=VECTOR('',#1409,1.0);
#1200=CARTESIAN_POINT('',(97.45,120.071680119826,-35.0));
#1201=CARTESIAN_POINT('',(96.95,115.071680119826,-35.0));
#1202=CARTESIAN_POINT('',(96.9549504950495,115.121185070321,-35.0));
#1203=VECTOR('',#1410,1.0);
#1204=CARTESIAN_POINT('',(97.45,120.071680119826,-35.0));
#1205=VECTOR('',#1411,1.0);
#1206=CARTESIAN_POINT('',(96.9499999999999,115.071680119826,-5.04999999999997));
#1207=VECTOR('',#1412,1.0);
#1208=CARTESIAN_POINT('',(5.04999999999997,115.071680119826,-35.0));
#1209=CARTESIAN_POINT('',(5.04999999999997,115.071680119826,-35.0));
#1210=VECTOR('',#1413,1.0);
#1211=CARTESIAN_POINT('',(5.04999999999995,115.071680119826,-5.05));
#1212=CARTESIAN_POINT('',(5.04999999999995,115.071680119826,-5.05));
#1213=VECTOR('',#1414,1.0);
#1214=CARTESIAN_POINT('',(5.04999999999996,115.071680119826,-5.05));
#1215=VECTOR('',#1415,1.0);
#1216=CARTESIAN_POINT('',(35.0,115.071680119826,-5.04999999999999));
#1217=CARTESIAN_POINT('',(35.0,115.071680119826,-5.04999999999999));
#1218=VECTOR('',#1416,1.0);
#1219=CARTESIAN_POINT('',(35.0,115.071680119826,-5.04999999999999));
#1220=VECTOR('',#1417,1.0);
#1221=CARTESIAN_POINT('',(5.04999999999997,115.071680119826,-35.0));
#1222=VECTOR('',#1418,1.0);
#1223=CARTESIAN_POINT('',(2.54999999999997,115.071680119826,-35.0));
#1224=VECTOR('',#1419,1.0);
#1225=CARTESIAN_POINT('',(35.0,115.071680119826,-2.54999999999999));
#1226=VECTOR('',#1420,1.0);
#1227=CARTESIAN_POINT('',(35.0,115.071680119826,-2.54999999999999));
#1228=VECTOR('',#1421,1.0);
#1229=CARTESIAN_POINT('',(99.0,127.571680119826,-95.0));
#1230=CARTESIAN_POINT('',(99.0,127.571680119826,-1.0));
#1231=CARTESIAN_POINT('',(99.0,127.571680119826,-95.0));
#1232=VECTOR('',#1422,1.0);
#1233=CARTESIAN_POINT('',(95.0,127.571680119826,-99.0));
#1234=AXIS2_PLACEMENT_3D('',#1423,#1424,#1425);
#1235=CARTESIAN_POINT('',(4.99999999999998,127.571680119826,-99.0));
#1236=CARTESIAN_POINT('',(4.99999999999998,127.571680119826,-99.0));
#1237=VECTOR('',#1426,1.0);
#1238=CARTESIAN_POINT('',(0.999999999999994,127.571680119826,-95.0));
#1239=AXIS2_PLACEMENT_3D('',#1427,#1428,#1429);
#1240=CARTESIAN_POINT('',(1.00000000000001,127.571680119826,-1.0));
#1241=CARTESIAN_POINT('',(1.00000000000001,127.571680119826,-1.0));
#1242=VECTOR('',#1430,1.0);
#1243=CARTESIAN_POINT('',(1.00000000000001,127.571680119826,-1.0));
#1244=VECTOR('',#1431,1.0);
#1245=CARTESIAN_POINT('',(79.95,115.071680119826,-94.95));
#1246=CARTESIAN_POINT('',(79.95,115.071680119826,-97.45));
#1247=VECTOR('',#1432,1.0);
#1248=CARTESIAN_POINT('',(79.95,115.071680119826,-97.45));
#1249=VECTOR('',#1433,1.0);
#1250=CARTESIAN_POINT('',(79.95,115.071680119826,-94.95));
#1251=VECTOR('',#1434,1.0);
#1252=CARTESIAN_POINT('',(20.05,115.071680119826,-94.95));
#1253=CARTESIAN_POINT('',(20.05,115.071680119826,-94.95));
#1254=VECTOR('',#1435,1.0);
#1255=CARTESIAN_POINT('',(50.0,115.071680119826,-94.95));
#1256=VECTOR('',#1436,1.0);
#1257=CARTESIAN_POINT('',(20.05,115.071680119826,-97.45));
#1258=VECTOR('',#1437,1.0);
#1259=CARTESIAN_POINT('',(20.05,115.071680119826,-94.95));
#1260=VECTOR('',#1438,1.0);
#1261=CARTESIAN_POINT('',(97.45,115.071680119826,-35.0));
#1262=VECTOR('',#1439,1.0);
#1263=CARTESIAN_POINT('',(97.45,115.071680119826,-35.0));
#1264=VECTOR('',#1440,1.0);
#1265=CARTESIAN_POINT('',(99.0,128.571680119826,-95.0));
#1266=CARTESIAN_POINT('',(99.0,128.571680119826,-95.0));
#1267=VECTOR('',#1441,1.0);
#1268=CARTESIAN_POINT('',(95.0,128.571680119826,-99.0));
#1269=AXIS2_PLACEMENT_3D('',#1442,#1443,#1444);
#1270=CARTESIAN_POINT('',(95.0,128.571680119826,-99.0));
#1271=VECTOR('',#1445,1.0);
#1272=CARTESIAN_POINT('',(99.0,128.571680119826,-1.0));
#1273=CARTESIAN_POINT('',(99.0,128.571680119826,-1.0));
#1274=VECTOR('',#1446,1.0);
#1275=CARTESIAN_POINT('',(99.0,128.571680119826,-95.0));
#1276=VECTOR('',#1447,1.0);
#1277=CARTESIAN_POINT('',(1.00000000000001,128.571680119826,-1.0));
#1278=CARTESIAN_POINT('',(1.00000000000001,128.571680119826,-1.0));
#1279=VECTOR('',#1448,1.0);
#1280=CARTESIAN_POINT('',(1.00000000000001,128.571680119826,-1.0));
#1281=VECTOR('',#1449,1.0);
#1282=CARTESIAN_POINT('',(0.999999999999994,128.571680119826,-95.0));
#1283=CARTESIAN_POINT('',(0.999999999999994,128.571680119826,-95.0));
#1284=VECTOR('',#1450,1.0);
#1285=CARTESIAN_POINT('',(1.00000000000001,128.571680119826,-1.0));
#1286=VECTOR('',#1451,1.0);
#1287=CARTESIAN_POINT('',(4.99999999999998,128.571680119826,-99.0));
#1288=CARTESIAN_POINT('',(4.99999999999998,128.571680119826,-99.0));
#1289=VECTOR('',#1452,1.0);
#1290=AXIS2_PLACEMENT_3D('',#1453,#1454,#1455);
#1291=CARTESIAN_POINT('',(4.99999999999998,128.571680119826,-99.0));
#1292=VECTOR('',#1456,1.0);
#1293=DIRECTION('',(-0.0,1.0,-6.12323399573677E-17));
#1294=DIRECTION('',(-1.0,-9.07933938862699E-33,-1.48276864724562E-16));
#1295=DIRECTION('',(-0.0,1.0,-6.12323399573677E-17));
#1296=DIRECTION('',(-1.0,-9.07933938862699E-33,-1.48276864724562E-16));
#1297=DIRECTION('',(0.0,6.12323399573677E-17,1.0));
#1298=DIRECTION('',(-0.0,1.0,-6.12323399573677E-17));
#1299=DIRECTION('',(0.0,6.12323399573677E-17,1.0));
#1300=DIRECTION('',(0.0,6.12323399573677E-17,1.0));
#1301=DIRECTION('',(0.0,0.995037190209989,0.0995037190209987));
#1302=DIRECTION('',(-0.0,1.0,-6.12323399573677E-17));
#1303=DIRECTION('',(0.0,6.12323399573677E-17,1.0));
#1304=CARTESIAN_POINT('',(65.0,122.571680119826,-7.54999999999999));
#1305=DIRECTION('',(-1.0,0.0,0.0));
#1306=DIRECTION('',(0.0,0.0,1.0));
#1307=DIRECTION('',(1.0,0.0,-0.0));
#1308=DIRECTION('',(0.0,6.12323399573677E-17,1.0));
#1309=DIRECTION('',(1.0,1.93584846942383E-32,3.16148047056774E-16));
#1310=DIRECTION('',(0.0,-6.12323399573677E-17,-1.0));
#1311=DIRECTION('',(-1.0,0.0,0.0));
#1312=DIRECTION('',(0.0,6.12323399573677E-17,1.0));
#1313=DIRECTION('',(-1.0,-9.07933938862699E-33,-1.48276864724562E-16));
#1314=DIRECTION('',(-1.0,-1.11750499187416E-32,-1.82502415006875E-16));
#1315=CARTESIAN_POINT('',(94.9499999999999,125.071680119826,-5.04999999999998));
#1316=DIRECTION('',(0.0,-1.0,6.12323399573677E-17));
#1317=DIRECTION('',(0.0,-6.12323399573677E-17,-1.0));
#1318=DIRECTION('',(-3.07594257904805E-16,6.12323399573677E-17,1.0));
#1319=DIRECTION('',(1.0,0.0,0.0));
#1320=CARTESIAN_POINT('',(95.0,125.071680119826,-95.0));
#1321=DIRECTION('',(0.0,-1.0,6.12323399573677E-17));
#1322=DIRECTION('',(0.0,-6.12323399573677E-17,-1.0));
#1323=DIRECTION('',(0.0,6.12323399573677E-17,1.0));
#1324=DIRECTION('',(-1.0,0.0,0.0));
#1325=DIRECTION('',(-3.25805567024123E-16,-6.12323399573677E-17,-1.0));
#1326=CARTESIAN_POINT('',(4.99999999999999,125.071680119826,-95.0));
#1327=DIRECTION('',(0.0,-1.0,6.12323399573677E-17));
#1328=DIRECTION('',(-1.0,0.0,0.0));
#1329=DIRECTION('',(4.15175221228773E-16,-6.12323399573677E-17,-1.0));
#1330=DIRECTION('',(-1.0,0.0,0.0));
#1331=DIRECTION('',(1.6821560979169E-16,-6.12323399573677E-17,-1.0));
#1332=CARTESIAN_POINT('',(5.04999999999997,125.071680119826,-5.04999999999999));
#1333=DIRECTION('',(0.0,-1.0,6.12323399573677E-17));
#1334=DIRECTION('',(0.0,-6.12323399573677E-17,-1.0));
#1335=DIRECTION('',(-1.0,-1.11750499187416E-32,-1.82502415006875E-16));
#1336=DIRECTION('',(0.0,-6.12323399573677E-17,-1.0));
#1337=DIRECTION('',(-1.0,-1.45269430218032E-32,-2.37242983559299E-16));
#1338=DIRECTION('',(0.0,-1.0,6.12323399573677E-17));
#1339=DIRECTION('',(1.0,0.0,0.0));
#1340=DIRECTION('',(0.0,-1.0,6.12323399573677E-17));
#1341=DIRECTION('',(0.0,-1.0,6.12323399573677E-17));
#1342=CARTESIAN_POINT('',(4.99999999999998,128.571680119826,-95.0));
#1343=DIRECTION('',(-1.3363823550461E-47,1.0,-6.12323399573677E-17));
#1344=DIRECTION('',(1.24344978758018E-15,-6.12323399573677E-17,-1.0));
#1345=DIRECTION('',(0.0,-1.0,6.12323399573677E-17));
#1346=DIRECTION('',(-3.25805567024123E-16,-6.12323399573677E-17,-1.0));
#1347=DIRECTION('',(0.0,-1.0,6.12323399573677E-17));
#1348=DIRECTION('',(-1.0,0.0,-0.0));
#1349=DIRECTION('',(0.0,-1.0,6.12323399573677E-17));
#1350=DIRECTION('',(0.0,6.12323399573677E-17,1.0));
#1351=CARTESIAN_POINT('',(95.0,128.571680119826,-95.0));
#1352=DIRECTION('',(0.0,1.0,-6.12323399573677E-17));
#1353=DIRECTION('',(1.0,0.0,0.0));
#1354=DIRECTION('',(0.0,1.0,-6.12323399573677E-17));
#1355=CARTESIAN_POINT('',(94.9499999999999,120.071680119826,-5.04999999999998));
#1356=DIRECTION('',(0.0,-1.0,-0.0));
#1357=DIRECTION('',(0.0,0.0,-1.0));
#1358=DIRECTION('',(0.0,1.0,-6.12323399573677E-17));
#1359=DIRECTION('',(0.0,1.0,-6.12323399573677E-17));
#1360=CARTESIAN_POINT('',(5.04999999999997,120.071680119826,-5.04999999999999));
#1361=DIRECTION('',(0.0,-1.0,-0.0));
#1362=DIRECTION('',(0.0,0.0,-1.0));
#1363=DIRECTION('',(0.0,1.0,-6.12323399573677E-17));
#1364=CARTESIAN_POINT('',(20.05,122.571680119826,-92.45));
#1365=DIRECTION('',(1.0,0.0,0.0));
#1366=DIRECTION('',(0.0,0.0,-1.0));
#1367=DIRECTION('',(1.0,0.0,0.0));
#1368=CARTESIAN_POINT('',(79.95,122.571680119826,-92.45));
#1369=DIRECTION('',(-1.0,0.0,0.0));
#1370=DIRECTION('',(0.0,0.0,1.0));
#1371=CARTESIAN_POINT('',(7.54999999999996,122.571680119826,-7.55));
#1372=DIRECTION('',(0.707106781186547,4.32978028117747E-17,0.707106781186548));
#1373=DIRECTION('',(-0.707106781186548,4.32978028117746E-17,0.707106781186547));
#1374=DIRECTION('',(4.15175221228773E-16,-6.12323399573677E-17,-1.0));
#1375=CARTESIAN_POINT('',(7.54999999999997,122.571680119826,-35.0));
#1376=DIRECTION('',(0.0,-6.12323399573677E-17,-1.0));
#1377=DIRECTION('',(0.0,1.0,-6.12323399573677E-17));
#1378=CARTESIAN_POINT('',(35.0,122.571680119826,-7.54999999999999));
#1379=DIRECTION('',(1.0,0.0,0.0));
#1380=DIRECTION('',(0.0,0.0,-1.0));
#1381=DIRECTION('',(-1.0,-1.45269430218032E-32,-2.37242983559299E-16));
#1382=CARTESIAN_POINT('',(92.45,122.571680119826,-35.0));
#1383=DIRECTION('',(0.0,-6.12323399573677E-17,-1.0));
#1384=DIRECTION('',(0.0,1.0,-6.12323399573677E-17));
#1385=CARTESIAN_POINT('',(92.45,122.571680119826,-7.54999999999998));
#1386=DIRECTION('',(0.707106781186548,-4.32978028117747E-17,-0.707106781186548));
#1387=DIRECTION('',(-0.707106781186547,-4.32978028117747E-17,-0.707106781186548));
#1388=DIRECTION('',(0.0,-0.995037190209989,0.0995037190209992));
#1389=DIRECTION('',(-1.0,-1.93584846942383E-32,-3.16148047056774E-16));
#1390=DIRECTION('',(0.0,0.995037190209989,-0.0995037190209992));
#1391=DIRECTION('',(1.0,1.93584846942383E-32,3.16148047056774E-16));
#1392=DIRECTION('',(-0.0995037190209988,0.995037190209989,0.0));
#1393=DIRECTION('',(-1.6821560979169E-16,6.12323399573677E-17,1.0));
#1394=DIRECTION('',(-0.0995037190209988,0.995037190209989,-6.0928455501162E-17));
#1395=DIRECTION('',(1.6821560979169E-16,-6.12323399573677E-17,-1.0));
#1396=DIRECTION('',(1.72611437332727E-16,0.995037190209989,0.0995037190209987));
#1397=CARTESIAN_POINT('',(5.04999999999997,115.071680119826,-5.04999999999999));
#1398=DIRECTION('',(0.0,-1.0,6.12323399573677E-17));
#1399=DIRECTION('',(0.0,-6.12323399573677E-17,-1.0));
#1400=DIRECTION('',(0.0,-0.995037190209989,-0.0995037190209987));
#1401=DIRECTION('',(1.0,1.11750499187416E-32,1.82502415006875E-16));
#1402=DIRECTION('',(-1.0,-1.11750499187416E-32,-1.82502415006875E-16));
#1403=DIRECTION('',(0.0995037190209989,0.995037190209989,1.72611437332727E-16));
#1404=DIRECTION('',(0.0,-0.995037190209989,-0.0995037190209987));
#1405=CARTESIAN_POINT('',(94.9499999999999,115.071680119826,-5.04999999999998));
#1406=DIRECTION('',(0.0,-1.0,6.12323399573676E-17));
#1407=DIRECTION('',(0.0,-6.12323399573677E-17,-1.0));
#1408=DIRECTION('',(-1.0,-1.11750499187416E-32,-1.82502415006875E-16));
#1409=DIRECTION('',(1.0,1.11750499187416E-32,1.82502415006875E-16));
#1410=DIRECTION('',(-0.0995037190209985,-0.995037190209989,6.0928455501162E-17));
#1411=DIRECTION('',(3.07594257904805E-16,-6.12323399573677E-17,-1.0));
#1412=DIRECTION('',(-3.07594257904805E-16,6.12323399573677E-17,1.0));
#1413=DIRECTION('',(-0.0,1.0,-6.12323399573677E-17));
#1414=DIRECTION('',(-0.0,1.0,-6.12323399573677E-17));
#1415=DIRECTION('',(4.15175221228773E-16,-6.12323399573677E-17,-1.0));
#1416=DIRECTION('',(-0.0,1.0,-6.12323399573677E-17));
#1417=DIRECTION('',(-1.0,-1.45269430218032E-32,-2.37242983559299E-16));
#1418=DIRECTION('',(-1.0,0.0,0.0));
#1419=DIRECTION('',(-0.0,1.0,-6.12323399573677E-17));
#1420=DIRECTION('',(-0.0,1.0,-6.12323399573677E-17));
#1421=DIRECTION('',(0.0,-6.12323399573677E-17,-1.0));
#1422=DIRECTION('',(-1.51179305480872E-16,6.12323399573677E-17,1.0));
#1423=CARTESIAN_POINT('',(95.0,127.571680119826,-95.0));
#1424=DIRECTION('',(0.0,1.0,-6.12323399573677E-17));
#1425=DIRECTION('',(1.0,0.0,0.0));
#1426=DIRECTION('',(1.0,9.66848763340011E-33,1.57898385724467E-16));
#1427=CARTESIAN_POINT('',(4.99999999999998,127.571680119826,-95.0));
#1428=DIRECTION('',(0.0,1.0,-6.12323399573677E-17));
#1429=DIRECTION('',(0.0,-6.12323399573677E-17,-1.0));
#1430=DIRECTION('',(-1.84249778554813E-16,-6.12323399573677E-17,-1.0));
#1431=DIRECTION('',(1.0,0.0,0.0));
#1432=DIRECTION('',(0.0,6.12323399573677E-17,1.0));
#1433=DIRECTION('',(-0.0,1.0,-6.12323399573677E-17));
#1434=DIRECTION('',(-0.0,1.0,-6.12323399573677E-17));
#1435=DIRECTION('',(0.0,-6.12323399573677E-17,-1.0));
#1436=DIRECTION('',(1.0,0.0,0.0));
#1437=DIRECTION('',(-0.0,1.0,-6.12323399573677E-17));
#1438=DIRECTION('',(-0.0,1.0,-6.12323399573677E-17));
#1439=DIRECTION('',(-1.0,0.0,0.0));
#1440=DIRECTION('',(-0.0,1.0,-6.12323399573677E-17));
#1441=DIRECTION('',(-0.0,-1.0,6.12323399573677E-17));
#1442=CARTESIAN_POINT('',(95.0,128.571680119826,-95.0));
#1443=DIRECTION('',(0.0,1.0,-6.12323399573677E-17));
#1444=DIRECTION('',(1.0,0.0,0.0));
#1445=DIRECTION('',(-0.0,-1.0,6.12323399573677E-17));
#1446=DIRECTION('',(-0.0,-1.0,6.12323399573677E-17));
#1447=DIRECTION('',(-1.51179305480872E-16,6.12323399573677E-17,1.0));
#1448=DIRECTION('',(-0.0,-1.0,6.12323399573677E-17));
#1449=DIRECTION('',(1.0,0.0,0.0));
#1450=DIRECTION('',(-0.0,-1.0,6.12323399573677E-17));
#1451=DIRECTION('',(-1.84249778554813E-16,-6.12323399573677E-17,-1.0));
#1452=DIRECTION('',(-0.0,-1.0,6.12323399573677E-17));
#1453=CARTESIAN_POINT('',(4.99999999999998,128.571680119826,-95.0));
#1454=DIRECTION('',(0.0,1.0,-6.12323399573677E-17));
#1455=DIRECTION('',(0.0,-6.12323399573677E-17,-1.0));
#1456=DIRECTION('',(1.0,9.66848763340011E-33,1.57898385724467E-16));
ENDSEC;
END-ISO-10303-21;
